<svg width="312" height="99" viewBox="0 0 312 99" fill="none" xmlns="http://www.w3.org/2000/svg">
<path d="M302.176 86.1035H293.473C293.617 87.1408 294.148 87.4866 294.895 87.5586C298.787 87.9332 302.679 88.3078 306.6 87.8179C306.341 88.9849 305.365 88.7256 304.604 88.7544C295.627 89.1578 286.637 88.8408 277.66 88.5671C271.212 88.3654 264.792 88.279 258.344 88.6247C252.757 88.9273 247.127 89.0569 241.54 88.7976C234.1 88.4518 226.819 89.5035 219.494 90.4688C216.406 90.8722 213.276 91.1315 210.159 90.4688C214.295 89.5324 218.575 89.7629 223.401 88.5239C217.713 87.3713 212.687 86.9823 207.746 87.8035C199.028 89.2442 190.296 89.3739 181.536 88.812C171.827 88.1925 162.118 87.8468 152.395 88.3078C146.708 88.5815 141.063 89.3595 135.376 89.6764C125.667 90.2239 115.987 90.8146 106.264 90.1951C98.2504 89.6908 90.2795 88.9705 82.3517 87.7459C80.4846 87.4578 78.5888 87.3569 75.9462 87.5874C80.2261 89.7197 83.9746 91.3909 88.1395 91.3044C93.4535 91.2036 98.6094 92.1544 103.837 92.8316C109.051 93.5231 114.307 93.7968 119.621 93.4655C128.683 92.9036 137.775 92.7307 146.851 92.4282C148.201 92.3849 149.551 92.5866 150.945 92.6731C150.657 93.2782 150.241 93.2926 149.824 93.307C138.421 93.5375 127.061 94.7621 115.643 94.69C109.812 94.6468 104.038 94.2578 98.3365 93.0909C96.1392 92.6443 93.9418 92.4282 91.73 92.5722C85.8273 92.9612 80.4559 91.2612 75.4148 88.3942C74.1366 87.6595 72.9302 87.4001 71.5371 87.4145C67.3147 87.4722 63.0922 87.5298 58.8698 87.9332C54.7479 88.3222 50.6404 87.6162 46.5185 87.6162C39.8402 87.6162 33.2337 88.3222 26.6271 89.0569C22.4909 89.5035 18.3977 89.4171 14.2902 89.3163C10.0821 89.2154 5.87405 88.9417 1.66599 88.7256C1.09151 88.6968 0.459584 88.812 0 88.351C0.258516 87.3569 0.976616 87.5298 1.57982 87.5298C3.80593 87.5154 6.01767 87.5298 8.24378 87.5298C15.2812 87.5298 20.7674 84.3459 25.1766 79.0585C25.7223 78.4102 26.1532 77.6755 26.6559 76.9839C29.1261 73.5407 32.1852 70.789 36.3646 69.7228C41.2189 68.4694 44.4791 65.4296 46.8057 61.1363C48.8164 57.4193 51.5165 54.3939 55.3942 52.521C57.5629 51.4693 59.0565 49.6396 60.3204 47.6803C62.4603 44.3523 65.2896 41.9751 69.0668 40.7073C71.5371 39.8717 73.5334 38.3734 75.0701 36.2411C76.3771 34.4115 78.1149 33.0428 80.0681 31.9047C83.0698 30.147 86.0283 28.3029 89.0443 26.5453C92.3189 24.6436 94.2577 25.191 95.9955 28.3894C98.0924 32.2648 101.008 35.5208 104.397 38.1861C109.295 42.0183 113.79 46.3548 119.19 49.6108C122.35 51.5125 124.676 54.5379 126.601 57.7651C127.908 59.955 129.315 62.0728 131.226 63.7872C132.805 65.1991 134.385 66.0491 136.554 64.5652C137.918 63.6431 139.642 63.2253 141.236 62.7067C147.368 60.7041 152.668 57.3905 157.35 52.9532C160.797 49.6828 164.445 46.5997 167.963 43.4014C169.601 41.9031 171.166 40.3327 172.775 38.7912C176.566 35.1174 180.013 31.0691 184.767 28.519C186.864 27.3953 188.3 25.508 189.794 23.7215C193.312 19.4859 196.989 15.3943 201.326 11.9367C204.228 9.61715 206.281 6.46204 209.053 3.96964C211.294 1.96708 213.951 1.16029 216.579 0.122991C217.383 -0.193961 217.742 0.122991 217.972 0.828931C218.733 3.16285 220.514 4.63236 222.324 6.13068C225.914 9.09851 228.772 12.8443 232.478 15.6969C237.088 19.241 240.721 23.6063 243.105 28.9224C246.394 36.2411 251.651 42.0039 257.453 47.3057C262.939 52.3193 268.067 57.5778 272.533 63.5711C276.899 69.4347 282.759 74.0449 287.168 79.8509C290.342 84.0289 294.076 85.7001 299.117 85.0374C299.965 84.9221 301.013 84.6484 302.148 86.0891L302.176 86.1035ZM275.348 68.8728C275.003 68.9305 274.802 69.1033 274.86 69.4635C274.86 69.5356 275.032 69.5788 275.118 69.6364C275.176 69.3771 275.248 69.1178 275.305 68.8728C274.975 68.7288 274.644 68.5847 274.314 68.4262C273.582 67.1008 272.461 66.0923 271.413 65.0262C271.226 64.7525 271.04 64.4787 270.853 64.205C270.566 63.9024 270.221 63.4991 269.919 64.0897C269.79 64.3491 270.149 64.594 270.465 64.6804C270.508 65.055 270.68 65.2999 271.097 65.3287C271.097 65.7465 271.585 66.1211 271.169 66.5533C269.761 67.1728 269.733 65.4008 268.813 65.1847C267.822 63.5423 266.444 62.2745 264.921 61.1363C262.437 58.9176 260.785 56.1083 259.32 53.1693C257.984 50.504 256.275 48.1845 254.121 46.1099C249.238 41.3988 244.973 36.1979 242.172 29.9165C241.54 28.4902 240.664 27.1648 239.86 25.7097C237.935 26.5741 236.24 27.4241 234.1 26.5309C230.869 25.191 230.812 25.3207 229.031 28.4614C227.882 30.4928 227.092 30.7521 224.923 29.8013C224.248 29.5131 223.616 29.1097 222.927 28.8504C221.103 28.1589 220.428 28.4614 219.868 30.2767C219.379 31.8903 219.049 33.5471 219.135 35.2615C219.236 37.0768 218.748 38.82 218.331 40.5488C218.159 41.2836 217.512 41.8454 216.651 41.5861C216.148 41.4276 215.344 41.2404 215.961 40.3615C216.579 40.4768 217.196 40.6353 217.441 39.742C217.828 38.3013 217.986 36.8174 217.915 35.3479C217.828 33.403 218.288 31.5589 218.862 29.7436C219.494 27.7122 220.629 27.0928 222.697 27.597C223.3 27.7411 223.86 28.058 224.435 28.3317C226.216 29.1866 227.566 28.7544 228.485 27.0351C229.849 24.4707 230.912 24.0385 233.569 25.0614C234.646 25.4792 235.68 25.9978 236.915 25.7385C238.984 25.2919 239.357 24.4131 238.079 22.7275C237.447 21.8919 236.743 21.0851 235.968 20.3647C231.544 16.2876 226.919 12.4121 222.755 8.03239C221.089 6.28916 218.819 5.10779 217.685 2.87471C216.967 1.47724 216.134 1.6069 214.884 1.96708C211.567 2.94675 209.269 5.28067 207.1 7.72985C204.845 10.2655 202.49 12.657 199.933 14.8901C196.989 17.4545 194.275 20.2783 191.962 23.4622C191.589 23.7648 190.957 24.1681 191.316 24.5715C191.79 25.119 192.321 24.3987 192.824 24.2114C193.399 23.9376 193.959 23.6639 194.533 23.3902C195.955 22.6986 197.334 21.8919 198.799 21.3588C200.781 20.6385 201.441 21.0274 202.418 23.03C202.691 23.6063 202.964 24.1681 203.28 24.7156C204.443 26.6894 205.534 27.208 207.689 26.7902C208.206 26.6894 208.694 26.4444 209.211 26.358C210.159 26.1995 210.891 26.43 211.006 27.5538C211.423 31.5013 213.075 35.0022 214.798 38.503C213.276 38.6039 213.204 37.2064 212.759 36.3564C211.322 33.5326 210.518 30.4784 209.915 27.4241C209.599 27.3521 209.383 27.2368 209.197 27.2656C204.271 28.1012 203.883 27.9139 201.657 23.7648C201.556 23.5775 201.441 23.3902 201.384 23.1885C201.097 22.1512 200.465 21.8486 199.474 22.2664C195.783 23.808 192.02 25.3495 188.616 27.3377C183.072 30.5648 178.39 35.0166 173.708 39.4683C165.709 47.0896 158.14 55.2727 148.704 61.2516C147.742 61.5109 146.866 61.9287 146.133 62.6202C144.64 63.0957 143.146 63.6143 141.638 64.0609C136.353 65.6313 132.015 68.5559 128.324 72.7195C124.03 77.5602 118.515 80.6289 112.253 82.2713C111.018 82.6026 109.812 82.8764 108.806 83.6832C105.747 84.3891 102.832 85.3544 100.663 88.034C103.162 88.9705 105.403 88.7544 107.543 87.4001C107.729 89.1434 108.907 88.884 110.07 88.6679C119.693 89.2154 129.287 88.5959 138.866 87.962C139.771 87.9044 140.489 87.5874 141.164 87.0544C146.277 82.9484 151.418 78.8568 155.368 73.5263C156.876 71.4805 158.384 69.4203 160.265 67.7059C165.12 63.2829 169.845 58.7448 174.369 54.0049C174.527 54.1634 174.685 54.3218 174.843 54.4803C172.904 57.549 170.218 59.9405 167.676 62.4618C164.976 65.1414 162.118 67.6626 159.476 70.4C155.181 74.8229 152.625 80.2255 150.973 86.1179C150.643 87.2849 151.447 86.7518 151.907 86.7374C152.223 86.7374 152.539 86.795 152.855 86.7806C162.147 86.0891 171.41 86.5357 180.674 87.2273C186.361 87.6451 192.063 87.7171 197.765 87.4722C200.393 87.3569 201.341 85.5849 200.12 83.1933C199.747 82.4442 199.172 81.7958 198.799 81.0323C198.526 80.4704 197.707 79.9374 198.641 78.9001C200.192 81.3348 201.772 83.6687 203.868 85.5561C203.71 86.0603 203.423 86.1035 202.964 85.9018C202.447 85.6713 201.858 85.1959 201.484 86.0891C201.413 86.2476 201.413 86.5213 201.513 86.651C201.973 87.2993 202.619 86.8959 203.165 86.8383C204.041 86.7518 203.165 85.7289 203.811 85.4984C205.649 86.5069 207.646 86.3484 209.628 86.19C213.304 85.8874 216.967 86.1467 220.643 86.3917C230.697 87.04 240.75 87.6018 250.832 87.2273C251.321 87.2273 251.967 87.429 252.24 87.184C252.527 86.9391 252.139 86.4781 251.694 86.334C251.32 85.4408 250.143 84.9654 250.186 83.7696C251.234 83.6832 251.694 84.3171 252.182 84.8069C254.265 86.8959 256.692 87.6451 259.622 87.2273C261.79 86.9247 264.016 87.0112 266.214 86.9103C271.456 86.6798 276.684 87.5298 281.94 87.1984C283.247 86.8239 282.615 86.334 282.026 85.8586C278.982 80.9891 273.725 78.1365 270.522 73.4254C274.774 77.0127 279.427 80.1535 282.716 84.6916C284.511 87.1696 286.723 87.8323 289.523 87.4145C289.94 87.4578 290.356 87.5586 290.773 87.5442C291.232 87.5298 291.936 87.7603 291.994 87.04C292.022 86.7662 291.462 86.4349 291.175 86.1323C289.595 84.4611 288.216 82.5018 286.392 81.1619C283.061 78.7272 280.26 75.7161 277 73.2237C276.684 72.9932 276.353 72.6763 276.856 72.2729C278.134 70.8898 276.411 70.933 275.98 70.1983C275.779 70.8898 276.267 71.0627 276.511 71.3076C276.813 71.6101 277.158 71.8118 276.899 72.3017C274.989 71.8839 273.424 70.472 272.792 68.5703C272.792 68.5415 272.935 68.455 273.021 68.383C273.467 68.2101 273.926 68.8872 274.357 68.3542C274.343 69.2042 274.63 69.4347 275.334 68.8584L275.348 68.8728ZM151.131 80.1823C149.034 82.934 145.961 84.6484 143.591 87.3137C149.738 87.4866 151.749 85.5128 151.131 80.139C151.16 80.4128 151.246 80.6145 151.576 80.5136C151.605 80.5136 151.62 80.3984 151.634 80.3407C151.462 80.2831 151.289 80.2399 151.117 80.1823H151.131ZM124.447 66.8126C125.366 67.5186 126.256 68.2677 127.219 68.9161C127.721 69.2618 128.339 69.4923 128.942 69.6508C129.157 69.7084 129.531 69.4491 129.718 69.233C130.105 68.8008 129.775 68.5559 129.402 68.2966C125.007 65.3287 122.307 60.5168 117.883 57.5778C117.754 57.4914 117.754 57.2032 117.697 57.0015C117.811 56.9151 117.941 56.8142 118.056 56.7134C121.373 59.1626 124.662 61.6262 127.089 65.0694C127.894 66.2076 129.071 66.9135 130.436 67.3457C131.541 67.6915 132.245 67.3745 132.906 66.3084C129.301 64.7525 127.204 61.7126 125.28 58.5431C123.729 55.993 121.876 53.7167 119.592 51.7574C116.864 49.4091 113.56 47.8964 110.817 45.5192C109.295 44.1938 107.902 44.8133 106.882 46.7006C105.561 49.1209 104.527 49.4667 102.028 48.2421C100.979 47.7379 100.003 47.104 98.9541 46.5997C95.2631 44.8277 93.8125 45.1014 90.854 48.0404C88.872 49.9998 86.8757 50.1438 84.6927 48.4582C84.19 48.0692 83.6873 47.6658 83.2852 47.176C81.9926 45.6345 80.499 45.5192 78.7468 46.3116C77.4111 46.9167 76.0467 47.565 74.6393 47.954C72.7722 48.4582 71.5084 47.7955 71.4222 46.0379C71.336 44.2514 70.345 43.9921 69.0668 43.7183C67.0418 43.3005 65.2896 43.7183 63.9683 45.3895C62.9055 46.715 61.9145 48.0836 60.9092 49.4379C59.5735 51.2532 58.0655 52.8811 56.0405 53.8896C52.5936 55.5896 50.0372 58.2117 48.2276 61.5397C45.6855 66.2364 42.0663 69.5356 36.8529 70.9618C32.7884 72.0712 29.7006 74.5924 27.4889 78.1077C25.076 81.9111 21.7871 84.5764 17.7514 86.4493C17.019 86.795 15.9274 86.8671 15.6258 88.0196C18.7998 88.1925 21.9308 88.8408 24.5159 86.4493C24.7026 86.2764 25.0617 86.1179 25.3058 86.4637C25.5643 86.8383 24.8462 87.7747 26.0096 87.6595C26.742 87.573 27.4889 87.6018 28.2213 87.5154C35.5747 86.6798 42.9424 86.1035 50.3388 86.2476C50.5398 86.2476 50.7266 86.1179 50.9276 86.0459C51.5883 82.545 52.4787 81.2916 55.6671 79.4043C61.6129 75.9034 68.2338 74.6644 74.9121 73.5263C79.6803 72.7195 84.5634 72.5178 89.2311 71.1203C89.7194 70.9762 90.3226 70.4144 90.8683 71.2644C89.5614 72.3593 88.0965 72.7915 86.531 73.0508C80.3984 74.0881 74.2084 74.722 68.1333 76.1195C63.6954 77.1424 59.3581 78.4823 55.5235 81.0467C53.7713 82.2136 51.976 83.4526 52.292 85.9739C53.0388 86.5069 53.8 86.3052 54.5038 86.3052C59.0565 86.3628 63.5949 86.2476 68.1189 85.8586C76.7361 85.1238 85.181 86.6798 93.6402 87.8179C96.3402 88.1781 98.7531 87.7747 100.792 86.1035C102.573 84.6484 104.598 83.8704 106.695 83.1501C109.381 82.2281 112.11 81.4069 114.767 80.4272C118.889 78.9145 122.479 76.4941 125.768 73.6271C126.687 72.8203 127.736 72.028 127.965 70.6737C126.414 69.7228 124.734 68.9881 123.973 67.1872C124.131 67.072 124.274 66.9423 124.418 66.7982L124.447 66.8126ZM68.6934 42.2056C70.4456 43.2861 72.0398 43.0556 72.4275 44.8565C72.9015 47.0608 73.2892 47.2336 75.2856 46.6141C76.1904 46.3404 77.0377 45.8938 77.8994 45.4904C80.2261 44.3811 82.3517 44.3234 84.1469 46.5421C84.5347 47.0319 85.0661 47.4209 85.5831 47.7811C87.2347 48.9481 88.2688 48.8616 89.7912 47.4497C90.1789 47.0896 90.4949 46.6718 90.854 46.2828C92.721 44.309 94.8466 43.7904 97.4605 44.7556C99.3562 45.4616 101.065 46.4845 102.846 47.3921C104.11 48.0404 105.072 47.8675 105.647 46.4989C106.207 45.159 106.911 43.9489 108.49 43.2717C106.911 42.0039 105.575 40.9666 104.297 39.8861C100.577 36.731 97.2738 33.2013 94.8753 28.8936C93.4678 26.3868 92.6492 26.1131 90.1215 27.5682C86.5597 29.6284 83.0554 31.775 79.5511 33.936C78.7468 34.4259 77.9425 35.0166 77.3824 35.7513C75.2568 38.5751 72.8153 40.981 68.7078 42.1912L68.6934 42.2056ZM269.689 63.6431C268.411 59.9405 263.715 54.7685 261.36 54.3218C263.083 58.5287 266.673 60.8194 269.689 63.6431ZM261.417 53.3566C261.302 53.4286 261.173 53.4862 261.044 53.5583C261.115 53.6159 261.187 53.7312 261.23 53.7312C261.36 53.7023 261.489 53.6159 261.618 53.5583C261.546 53.5006 261.489 53.443 261.417 53.371V53.3566Z" fill="#4B2F28"/>
<path d="M100.807 98.1045C97.3026 99.3579 93.7551 98.9833 90.2508 98.8105C85.1954 98.5511 80.1831 97.9748 75.3 96.4333C71.6951 95.2952 67.961 96.0299 64.2843 95.9867C56.7874 95.8858 49.2904 96.0299 41.8222 95.5689C36.8242 95.2663 31.9124 95.4969 27.0006 96.1308C22.1606 96.7503 17.335 96.5774 12.4519 96.318C12.7248 95.1799 13.5291 95.6986 14.003 95.713C20.667 95.9003 27.2591 94.9638 33.8513 94.1858C36.1061 93.9265 38.2604 94.3443 40.4722 94.3155C50.1809 94.1858 59.8896 94.9206 69.5983 94.474C72.3558 94.3443 75.0271 94.8197 77.7128 95.5545C84.6927 97.4418 91.8737 97.5859 99.0547 97.7155C99.6005 97.7155 100.261 97.2545 100.821 98.1045H100.807Z" fill="#4B2F28"/>
<path d="M156.977 95.7849C160.222 95.5256 163.439 95.1222 166.714 95.1942C173.478 95.3383 180.171 94.69 186.821 93.4222C191.402 92.5578 196.041 92.5145 200.623 93.6671C204.874 94.7332 209.182 94.69 213.505 94.3298C219.063 93.8688 224.636 93.4942 230.208 93.0764C231.616 92.9756 233.023 92.8315 234.46 92.9179C232.391 94.3874 229.907 94.0849 227.623 94.3874C222.726 95.0358 217.771 95.3095 212.845 95.7561C209.039 96.1019 205.262 96.0731 201.527 95.1798C196.113 93.8832 190.713 93.9408 185.255 95.0646C178.936 96.3612 172.488 96.5341 166.053 96.4332C163.052 96.39 160.036 96.4332 157.034 96.4332C157.02 96.2171 157.005 96.001 156.991 95.7993L156.977 95.7849Z" fill="#4B2F28"/>
<path d="M243.263 92.8748C244.082 91.7366 244.987 92.0248 245.762 92.0392C250.918 92.1112 256.089 91.6934 261.23 92.457C264.074 92.8748 266.946 92.7595 269.747 92.3417C273.323 91.8231 276.684 92.385 279.958 93.6384C284.008 95.1799 288.073 95.713 292.338 94.6613C294.076 94.2435 295.943 94.2723 297.681 94.6468C299.922 95.1367 302.061 95.0646 304.216 94.4019C306.83 93.6095 309.386 93.8689 312 94.7189C311.296 95.5689 310.406 95.2231 309.63 95.2808C304.532 95.6697 299.448 96.6782 294.292 95.8138C293.401 95.6697 292.41 95.9579 291.491 96.174C288.217 96.9231 284.985 96.8367 281.854 95.6121C277.359 93.8401 272.849 92.9612 267.966 93.7824C265.41 94.2146 262.738 93.9265 260.096 93.5519C255.701 92.918 251.249 93.2782 246.825 93.2206C245.691 93.2062 244.527 93.4511 243.235 92.9036L243.263 92.8748Z" fill="#4B2F28"/>
<path d="M265.984 67.922C262.523 65.1703 259.076 62.4186 255.356 60.0126C251.981 57.8228 249.769 54.6245 247.902 51.138C244.858 45.4761 242.258 39.5692 238.409 34.3683C238.237 34.1234 238.05 33.8497 238.251 33.5327C239.745 34.57 241.669 36.9616 243.105 39.6557C245.001 43.1854 246.94 46.6862 248.764 50.2592C250.818 54.3075 253.676 57.5779 257.496 60.0559C260.771 62.1737 263.959 64.4212 266.544 67.4178C266.358 67.5907 266.156 67.7492 265.97 67.922H265.984Z" fill="#4B2F28"/>
<path d="M199 27.7699C194.145 37.1921 186.088 43.704 178.864 50.9363C178.319 50.1295 179.223 49.7405 179.582 49.2651C180.387 48.1701 181.22 47.0464 182.239 46.1387C188.157 40.837 193.356 34.9158 197.779 28.3174C197.995 27.986 198.21 27.6114 199 27.7699Z" fill="#4B2F28"/>
<path d="M228.657 66.5533C227.063 65.9626 226.201 64.6228 225.368 63.2829C223.918 60.9346 222.64 58.4566 221.993 55.7913C221.132 52.2472 219.48 49.0777 217.9 45.8506C217.541 45.1302 216.88 44.4531 217.498 43.2861C219.695 47.0607 221.835 50.6049 222.999 54.7252C224.148 58.8024 225.713 62.7499 228.7 65.9194C228.988 66.222 228.844 66.4237 228.614 66.6398L228.657 66.5533Z" fill="#4B2F28"/>
<path d="M200.522 48.3142C200.206 50.5905 200.206 52.838 200.68 55.1431C201.054 56.9584 200.192 58.6728 199.445 60.2864C197.707 64.0754 196.472 67.922 197.406 72.1865C195.696 70.0255 196.314 67.5475 196.558 65.1847C196.702 63.744 197.205 62.3177 197.923 61.0067C199.316 58.4279 199.89 55.7194 199.445 52.7804C199.215 51.21 199.531 49.7117 200.536 48.2998L200.522 48.3142Z" fill="#4B2F28"/>
<path d="M110.085 86.9968C109.137 86.7663 108.562 88.2934 107.5 87.5298C107.6 86.651 108.605 86.6942 108.964 86.1035C115.772 85.1527 121.359 81.5942 126.788 77.7187C127.104 77.5026 127.405 77.0992 127.865 77.445C128.066 77.7907 127.908 78.0789 127.678 78.2518C122.852 81.8535 118.07 85.5417 111.822 86.3196C111.176 86.4061 110.602 86.651 110.07 86.9968H110.085Z" fill="#4B2F28"/>
<path d="M233.224 70.5153C239.572 72.1865 242.517 77.906 247.199 81.3349C245.231 81.162 244.427 80.9459 243.163 79.4331C240.434 76.1484 237.174 73.5551 233.54 71.3653C233.411 71.2788 233.397 71.0051 233.21 70.5153H233.224Z" fill="#4B2F28"/>
<path d="M147.498 65.2423C147.828 65.2711 148.115 65.2423 148.216 64.8389C149.135 64.8245 149.781 63.427 150.887 64.2626L150.93 64.205C148.101 66.0491 145.099 67.5186 141.911 68.6856C139.757 69.4779 137.789 70.8034 135.721 71.8407C135.031 72.1864 134.471 72.9644 133.035 72.6331C136.109 70.5441 138.895 68.7576 142.112 67.7347C143.993 67.1296 145.932 66.5821 147.498 65.2567V65.2423Z" fill="#4B2F28"/>
<path d="M236.614 29.3979C237.26 30.4785 237.964 31.5302 238.424 33.4319C236.829 32.1065 236.355 30.9827 236.24 29.6573C236.355 29.5708 236.485 29.4844 236.6 29.3979H236.614Z" fill="#4B2F28"/>
<path d="M214.712 38.4886C215.444 38.9497 215.875 39.6268 216.033 40.4768C214.927 40.3904 214.41 39.6124 214.712 38.4886Z" fill="#4B2F28"/>
<path d="M268.282 69.4635C268.656 69.7372 269.129 70.2559 268.77 70.5296C268.411 70.8033 267.952 70.3423 267.952 69.766C268.067 69.6652 268.167 69.5643 268.282 69.4779V69.4635Z" fill="#4B2F28"/>
<path d="M266.559 67.4178C266.975 67.8645 267.377 68.2967 267.794 68.7433C267.621 68.8585 267.478 68.9738 267.334 69.1179C266.702 68.9306 266.286 68.4984 265.998 67.9221C266.185 67.7492 266.386 67.5907 266.573 67.4178H266.559Z" fill="#4B2F28"/>
<path d="M174.383 54.0626C174.656 53.8465 174.814 53.2125 175.231 53.6015C175.547 53.8897 175.346 54.3651 174.857 54.538C174.699 54.3795 174.541 54.221 174.383 54.0626Z" fill="#4B2F28"/>
<path d="M236.255 29.6572C235.723 29.542 235.551 29.0233 235.881 28.7928C236.298 28.4903 236.398 29.153 236.628 29.3979C236.499 29.4844 236.384 29.5708 236.269 29.6572H236.255Z" fill="#4B2F28"/>
<path d="M133.049 73.2813C132.949 73.4542 132.848 73.6127 132.748 73.7855C132.633 73.6847 132.461 73.6127 132.403 73.483C132.288 73.2525 132.403 73.0508 132.647 73.0364C132.777 73.0364 132.906 73.1804 133.049 73.2669V73.2813Z" fill="#4B2F28"/>
<path d="M199.258 27.2368C199.158 27.1215 199.043 26.9919 198.928 26.8622C199.072 26.7326 199.215 26.5885 199.373 26.4876C199.617 26.3436 199.818 26.4444 199.833 26.7182C199.861 27.0927 199.574 27.1792 199.258 27.2368Z" fill="#4B2F28"/>
<path d="M150.873 64.2622L150.858 64.1185L150.916 64.2047L150.873 64.2622Z" fill="#4B2F28"/>
<path d="M228.614 66.6398C228.715 66.4093 228.873 66.3372 229.002 66.4813C229.074 66.5533 229.031 66.7262 229.045 66.8559C228.916 66.755 228.787 66.6542 228.657 66.5533L228.614 66.6398Z" fill="#4B2F28"/>
<path d="M271.14 66.5245C271.844 66.2508 271.93 66.6254 271.815 67.2017C271.585 67.2305 271.413 67.5762 271.097 67.2593C270.781 66.9423 271.097 66.7694 271.14 66.5389V66.5245Z" fill="#4B2F28"/>
<path d="M271.772 67.1439C272.39 66.9711 272.576 67.2448 272.447 67.8211C272.217 67.8499 272.045 68.1956 271.715 67.8643C271.399 67.5473 271.729 67.3745 271.758 67.1295L271.772 67.1439Z" fill="#4B2F28"/>
<path d="M272.404 67.778C272.993 67.6339 273.194 67.8932 273.079 68.4551C272.849 68.4839 272.677 68.8297 272.347 68.4983C272.031 68.1813 272.361 68.0085 272.39 67.7635L272.404 67.778Z" fill="#4B2F28"/>
<path d="M267.952 69.7517C267.55 69.7372 267.363 69.4923 267.334 69.1033C267.478 68.9593 267.636 68.8296 267.794 68.7288C267.952 68.9737 268.124 69.2186 268.282 69.4491C268.167 69.55 268.052 69.6364 267.952 69.7372V69.7517Z" fill="#4B2F28"/>
<path d="M128.971 76.9407C128.913 77.0416 128.841 77.1712 128.77 77.2865C128.698 77.2289 128.569 77.1424 128.583 77.0992C128.612 76.9695 128.698 76.8399 128.77 76.7102C128.827 76.7822 128.899 76.8399 128.971 76.9263V76.9407Z" fill="#4B2F28"/>
<path d="M198.224 78.295C198.081 78.367 197.951 78.4534 197.793 78.4967C197.736 78.4967 197.65 78.367 197.578 78.295C197.722 78.2229 197.851 78.1365 198.009 78.0933C198.066 78.0933 198.152 78.2229 198.224 78.295Z" fill="#4B2F28"/>
<path d="M95.7084 65.8906C95.7084 65.8906 95.5074 65.761 95.5217 65.7177C96.1967 61.8423 94.3297 59.3787 91.2131 57.4194C89.5472 56.3676 88.0104 54.9846 87.1056 53.1261C86.804 52.5066 86.2726 51.8151 87.5365 51.1523C87.9961 53.5151 89.7339 54.8117 91.4142 56.166C92.6493 57.16 93.9706 58.0533 95.0909 59.1626C97.1303 61.1796 97.2595 63.2542 95.7228 65.905L95.7084 65.8906Z" fill="#4B2F28"/>
<path d="M39.7253 74.4772C38.4183 76.3645 36.3502 77.2001 34.4401 78.1798C31.6538 79.606 29.2267 81.2916 27.7905 84.2018C27.3596 85.0663 26.7564 85.9307 25.4926 86.4205C28.207 79.6349 33.88 76.9408 39.7109 74.4772H39.7253Z" fill="#4B2F28"/>
<path d="M51.2436 67.9076C50.0802 68.8584 48.9026 69.7949 47.2366 70.4576C48.9456 68.383 49.2042 68.239 51.3297 67.9652L51.2436 67.922V67.9076Z" fill="#4B2F28"/>
<path d="M93.6689 69.3626C93.712 68.1092 94.6312 67.7491 95.9381 66.9135C95.6796 68.6855 94.5881 68.9736 93.6689 69.3626Z" fill="#4B2F28"/>
<path d="M46.9349 70.0542C46.4754 71.322 45.8291 71.5813 45.1397 71.7974C44.795 70.5584 45.9009 70.7313 46.9349 70.0542Z" fill="#4B2F28"/>
<path d="M123.643 65.6025C123.901 66.0059 124.174 66.4093 124.432 66.8127C124.289 66.9568 124.145 67.0865 123.987 67.2017C123.24 66.8127 123.125 66.2797 123.671 65.6169H123.643V65.6025Z" fill="#4B2F28"/>
<path d="M123.686 65.6169C123.585 65.66 123.484 65.7031 123.384 65.7462C123.427 65.7462 123.47 65.7606 123.499 65.7462C123.556 65.7031 123.599 65.6456 123.657 65.6025L123.686 65.6169Z" fill="#4B2F28"/>
<path d="M51.3299 67.9508C51.0427 67.7779 50.9852 67.5906 51.2868 67.3889C51.3299 67.3601 51.4161 67.4178 51.4879 67.4322C51.4017 67.5906 51.3155 67.7347 51.2437 67.8932L51.3299 67.9508Z" fill="#4B2F28"/>
<path d="M117.682 56.9872C117.409 56.9151 117.108 56.7567 117.366 56.4829C117.596 56.238 117.855 56.4829 118.027 56.699C117.912 56.7999 117.797 56.8863 117.668 56.9872H117.682Z" fill="#4B2F28"/>
</svg>
