<svg width="28" height="28" viewBox="0 0 28 28" fill="none" xmlns="http://www.w3.org/2000/svg">
<path d="M13.4167 22.4816C12.7136 22.4816 12.1003 22.2568 11.5769 21.8073C11.0534 21.3593 10.7244 20.8059 10.5899 20.1471H11.802C11.921 20.4932 12.126 20.774 12.4169 20.9894C12.7077 21.2057 13.041 21.3138 13.4167 21.3138C13.8966 21.3138 14.3084 21.1423 14.6522 20.7993C14.996 20.4563 15.1675 20.0444 15.1667 19.5638C15.1659 19.0831 14.9944 18.6717 14.6522 18.3294C14.3084 17.9857 13.8966 17.8138 13.4167 17.8138H2.91669V16.6471H13.4167C14.2248 16.6471 14.9131 16.9314 15.4817 17.4999C16.0502 18.0685 16.3341 18.7568 16.3334 19.5649C16.3326 20.3731 16.0487 21.061 15.4817 21.6288C14.9147 22.1966 14.2264 22.4804 13.4167 22.4804M2.91669 11.3528V10.1861H18.0834C18.7382 10.1861 19.2909 9.96095 19.7412 9.51062C20.1915 9.06028 20.4167 8.50767 20.4167 7.85278C20.4167 7.19789 20.1915 6.64528 19.7412 6.19495C19.2909 5.74462 18.7382 5.51906 18.0834 5.51828C17.5179 5.51828 17.0326 5.68395 16.6274 6.01528C16.2221 6.34584 15.9596 6.76389 15.8399 7.26945H14.6277C14.7622 6.42167 15.1523 5.72323 15.7979 5.17412C16.4434 4.62656 17.2052 4.35278 18.0834 4.35278C19.0665 4.35278 19.8956 4.69034 20.5707 5.36545C21.2458 6.04056 21.5834 6.86967 21.5834 7.85278C21.5834 8.83589 21.2458 9.66501 20.5707 10.3401C19.8956 11.0152 19.0665 11.3528 18.0834 11.3528H2.91669ZM22.1667 20.3699V19.159C22.6722 19.0392 23.0903 18.7767 23.4209 18.3714C23.7514 17.9662 23.9167 17.4813 23.9167 16.9166C23.9167 16.2617 23.6915 15.7091 23.2412 15.2588C22.7909 14.8084 22.2382 14.5833 21.5834 14.5833H2.91669V13.4166H21.5834C22.5665 13.4166 23.3956 13.7542 24.0707 14.4293C24.7458 15.1044 25.0834 15.9335 25.0834 16.9166C25.0834 17.7947 24.8092 18.5566 24.2609 19.2021C23.7125 19.8477 23.0145 20.2369 22.1667 20.3699Z" fill="#75554D"/>
</svg>
