<svg width="28" height="28" viewBox="0 0 28 28" fill="none" xmlns="http://www.w3.org/2000/svg">
<path d="M8.302 11.7343C7.80967 11.7343 7.39472 11.5652 7.05717 11.2268C6.71961 10.8885 6.55122 10.4817 6.552 10.0065C6.552 9.51884 6.72039 9.10156 7.05717 8.75467C7.39472 8.40778 7.80967 8.23434 8.302 8.23434C8.79356 8.23434 9.20811 8.40662 9.54567 8.75117C9.88322 9.09573 10.052 9.51028 10.052 9.99484C10.052 10.4794 9.88322 10.8905 9.54567 11.228C9.20811 11.5656 8.79356 11.7343 8.302 11.7343ZM6.552 24.5C6.22144 24.5 5.94417 24.3806 5.72017 24.1418C5.49617 23.9031 5.38456 23.6184 5.38533 23.2878C4.84789 23.2878 4.3995 23.0992 4.04017 22.722C3.68083 22.3448 3.50078 21.8906 3.5 21.3593V17.0963C3.5 16.8296 3.59022 16.6056 3.77067 16.4243C3.95111 16.2431 4.17511 16.1529 4.44267 16.1537H6.552V15.2565C6.552 14.6522 6.76356 14.1311 7.18667 13.6932C7.60978 13.2553 8.12311 13.0359 8.72667 13.0352C9.086 13.0352 9.42355 13.1168 9.73933 13.2802C10.0551 13.4435 10.3339 13.6613 10.5758 13.9335L11.7612 15.3148C11.9167 15.4751 12.0672 15.6248 12.2127 15.764C12.3581 15.9032 12.5187 16.0331 12.6945 16.1537H21V6.28834C21 5.85123 20.8542 5.47206 20.5625 5.15084C20.2708 4.82962 19.9142 4.66823 19.4927 4.66667C19.2912 4.66667 19.0983 4.70945 18.914 4.79501C18.7297 4.88134 18.5663 4.99567 18.424 5.13801L16.9657 6.63017C17.0629 6.96851 17.0823 7.30178 17.024 7.63001C16.9657 7.95823 16.849 8.26545 16.674 8.55167L14.273 6.09351C14.5452 5.91384 14.8369 5.79912 15.148 5.74934C15.4591 5.69956 15.7702 5.73456 16.0813 5.85434L17.5397 4.35634C17.8002 4.08801 18.0973 3.87801 18.431 3.72634C18.7647 3.57467 19.1186 3.49923 19.4927 3.50001C20.2432 3.50001 20.8767 3.77223 21.3932 4.31667C21.9096 4.86112 22.1674 5.51795 22.1667 6.28717V16.1537H23.5573C23.8249 16.1537 24.0489 16.2439 24.2293 16.4243C24.4098 16.6056 24.5 16.8296 24.5 17.0963V21.3593C24.5 21.8898 24.3203 22.344 23.961 22.722C23.6017 23.1 23.1533 23.2886 22.6158 23.2878C22.6158 23.6184 22.5038 23.9031 22.2798 24.1418C22.0558 24.3806 21.7786 24.5 21.448 24.5H6.552ZM5.38533 22.1212H22.6158C22.8251 22.1212 22.9969 22.0465 23.1315 21.8972C23.2661 21.7478 23.3333 21.5686 23.3333 21.3593V17.3203H4.66667V21.3593C4.66667 21.5686 4.73394 21.7478 4.8685 21.8972C5.00306 22.0473 5.17533 22.1212 5.38533 22.1212ZM5.38533 22.1212L4.66667 22.1223H23.3333L5.38533 22.1212Z" fill="#75554D"/>
</svg>
