<svg width="28" height="28" viewBox="0 0 28 28" fill="none" xmlns="http://www.w3.org/2000/svg">
<path d="M18.6223 19.565C19.3402 19.565 19.9535 19.8189 20.4622 20.3268C20.97 20.8355 21.224 21.4488 21.224 22.1667C21.224 22.8846 20.9697 23.4978 20.461 24.0065C19.9523 24.5152 19.339 24.7695 18.6212 24.7695C18.0168 24.7695 17.4743 24.5817 16.9937 24.206C16.513 23.8303 16.2213 23.345 16.1187 22.75H7.67666L6.55433 24.514C6.46877 24.6517 6.34433 24.7357 6.18099 24.766C6.01766 24.7963 5.86716 24.7691 5.72949 24.6843C5.59183 24.5996 5.50744 24.4751 5.47633 24.311C5.44522 24.1469 5.47244 23.996 5.55799 23.8583L10.661 15.9927C9.70433 15.6528 8.81338 15.1017 7.98816 14.3395C7.16294 13.5773 6.60566 12.698 6.31633 11.7017C6.23233 11.3968 6.28444 11.1207 6.47266 10.8733C6.66166 10.6244 6.91599 10.5 7.23566 10.5H18.4532C18.7736 10.5 19.0244 10.6237 19.2057 10.871C19.3869 11.1183 19.4355 11.3944 19.3515 11.6993C19.0614 12.7128 18.5107 13.5967 17.6995 14.3512C16.8883 15.1056 15.9977 15.6528 15.0278 15.9927L16.9773 19.0843C16.7634 19.2041 16.5923 19.3126 16.464 19.4098C16.3357 19.507 16.1914 19.6408 16.0312 19.8112L13.832 16.275C13.706 16.3139 13.552 16.3333 13.37 16.3333H12.32C12.152 16.3333 12.0054 16.3139 11.8802 16.275L8.43149 21.5833H16.1187C16.2213 20.9875 16.513 20.5022 16.9937 20.1273C17.4743 19.7517 18.0168 19.5638 18.6212 19.5638M18.6212 23.6028C19.0272 23.6028 19.3682 23.4648 19.6443 23.1887C19.9204 22.9125 20.0581 22.5719 20.0573 22.1667C20.0565 21.7614 19.9189 21.4208 19.6443 21.1447C19.3698 20.8685 19.0291 20.7305 18.6223 20.7305C18.2155 20.7305 17.8749 20.8685 17.6003 21.1447C17.3258 21.4208 17.1877 21.7614 17.1862 22.1667C17.1846 22.5719 17.3227 22.9125 17.6003 23.1887C17.878 23.4648 18.2175 23.6028 18.6212 23.6028ZM12.8333 15.1888C14.0303 15.1888 15.106 14.8606 16.0603 14.2042C17.0147 13.5477 17.7279 12.7019 18.2 11.6667H7.46666C7.94266 12.7011 8.65705 13.5469 9.60983 14.2042C10.5626 14.8614 11.6371 15.1896 12.8333 15.1888ZM9.33566 5.7995C8.97555 5.34683 8.73094 4.92294 8.60183 4.52783C8.47349 4.13427 8.4416 3.68938 8.50616 3.19316C8.52094 3.10761 8.55788 3.03255 8.61699 2.968C8.67611 2.90344 8.74805 2.87155 8.83283 2.87233C8.91372 2.87233 8.97672 2.90422 9.02183 2.968C9.06694 3.03177 9.08949 3.1045 9.08949 3.18616C9.05449 3.62016 9.09494 4.01605 9.21083 4.37383C9.32672 4.73161 9.54994 5.10766 9.88049 5.502C10.2414 5.95933 10.4872 6.38516 10.6178 6.77949C10.7485 7.17383 10.7796 7.61911 10.7112 8.11533C10.6917 8.20088 10.6536 8.27555 10.5968 8.33933C10.54 8.40388 10.4689 8.43616 10.3833 8.43616C10.3024 8.43616 10.2398 8.40388 10.1955 8.33933C10.1504 8.27555 10.1278 8.20322 10.1278 8.12233C10.162 7.68833 10.1212 7.29127 10.0053 6.93116C9.88944 6.57027 9.66622 6.19305 9.33566 5.7995ZM12.2372 5.7995C11.8763 5.35072 11.6305 4.92955 11.4998 4.536C11.3692 4.14244 11.3353 3.69483 11.3983 3.19316C11.4139 3.10761 11.4508 3.03255 11.5092 2.968C11.5683 2.90422 11.6406 2.87233 11.7262 2.87233C11.807 2.87233 11.87 2.90422 11.9152 2.968C11.9603 3.03177 11.9824 3.1045 11.9817 3.18616C11.9474 3.62016 11.9883 4.01605 12.1042 4.37383C12.22 4.73161 12.4433 5.10766 12.7738 5.502C13.1347 5.95466 13.3805 6.37816 13.5112 6.77249C13.6418 7.16683 13.6729 7.61677 13.6045 8.12233C13.585 8.20788 13.5469 8.28138 13.4902 8.34283C13.4334 8.40427 13.3622 8.43538 13.2767 8.43616C13.1958 8.43616 13.1328 8.40388 13.0877 8.33933C13.0433 8.27555 13.0212 8.20322 13.0212 8.12233C13.0554 7.68833 13.0153 7.29127 12.901 6.93116C12.7882 6.57027 12.5665 6.19305 12.236 5.7995M15.1748 5.7995C14.8139 5.35072 14.5682 4.92955 14.4375 4.536C14.3068 4.14244 14.2738 3.69483 14.3383 3.19316C14.3523 3.10761 14.3889 3.03255 14.448 2.968C14.5071 2.90344 14.5794 2.87155 14.665 2.87233C14.7459 2.87233 14.8089 2.90422 14.854 2.968C14.8991 3.03177 14.9217 3.1045 14.9217 3.18616C14.8867 3.62016 14.9271 4.01605 15.043 4.37383C15.1589 4.73161 15.3821 5.10766 15.7127 5.502C16.0735 5.95466 16.3193 6.37816 16.45 6.77249C16.5807 7.16683 16.6118 7.61677 16.5433 8.12233C16.5239 8.20788 16.4858 8.28138 16.429 8.34283C16.3722 8.40505 16.301 8.43616 16.2155 8.43616C16.1346 8.43616 16.072 8.40388 16.0277 8.33933C15.9825 8.27555 15.96 8.20322 15.96 8.12233C15.9942 7.68833 15.9545 7.29127 15.841 6.93116C15.7274 6.57027 15.5054 6.19305 15.1748 5.7995Z" fill="#75554D"/>
</svg>
