<svg width="28" height="28" viewBox="0 0 28 28" fill="none" xmlns="http://www.w3.org/2000/svg">
<path d="M6.55201 23.3333C6.01456 23.3333 5.56617 23.1536 5.20684 22.7943C4.8475 22.435 4.66745 21.9862 4.66667 21.448V6.55196C4.66667 6.01452 4.84673 5.56613 5.20684 5.20679C5.56695 4.84746 6.01534 4.6674 6.55201 4.66663H21.4492C21.9858 4.66663 22.4342 4.84668 22.7943 5.20679C23.1545 5.5669 23.3341 6.01529 23.3333 6.55196V21.4491C23.3333 21.9858 23.1537 22.4342 22.7943 22.7943C22.435 23.1544 21.9862 23.3341 21.448 23.3333H6.55201ZM7.00001 15.5015L11.6667 10.8348L16.3333 15.5015L21 10.8348L22.1667 12.0015V6.55196C22.1667 6.34196 22.0994 6.16968 21.9648 6.03513C21.8303 5.90057 21.6584 5.83329 21.4492 5.83329H6.55084C6.34162 5.83329 6.16973 5.90057 6.03517 6.03513C5.90062 6.16968 5.83334 6.34196 5.83334 6.55196V14.3336L7.00001 15.5015ZM6.55201 22.1666H21.4492C21.6584 22.1666 21.8303 22.0993 21.9648 21.9648C22.0994 21.8302 22.1667 21.6583 22.1667 21.4491V13.6593L21 12.4926L16.3333 17.1593L11.6667 12.4926L7.00001 17.1593L5.83334 15.9926V21.4491C5.83334 21.6583 5.90062 21.8302 6.03517 21.9648C6.16973 22.0993 6.34201 22.1666 6.55201 22.1666ZM5.83334 22.1666V13.6593V14.826V5.83329V22.1666Z" fill="#75554D"/>
</svg>
