<svg width="28" height="28" viewBox="0 0 28 28" fill="none" xmlns="http://www.w3.org/2000/svg">
<path d="M4.66666 17.9491C4.38977 17.9491 4.14866 17.8496 3.94332 17.6505C3.73799 17.4521 3.63532 17.211 3.63532 16.9271C3.63532 16.6433 3.73799 16.3983 3.94332 16.1921C4.14866 15.9876 4.38977 15.8853 4.66666 15.8853H13.874L3.30282 5.31298C3.19393 5.20409 3.1356 5.06992 3.12782 4.91048C3.12004 4.75259 3.17838 4.61142 3.30282 4.48698C3.42727 4.36253 3.56493 4.30031 3.71582 4.30031C3.86671 4.30031 4.00399 4.36253 4.12766 4.48698L23.961 24.3203C24.0699 24.4292 24.1282 24.563 24.136 24.7216C24.1438 24.8803 24.0854 25.0219 23.961 25.1463C23.8365 25.2708 23.6989 25.333 23.548 25.333C23.3971 25.333 23.2598 25.2708 23.1362 25.1463L15.9378 17.948L4.66666 17.9491ZM21.56 15.8841C21.7085 15.8841 21.8318 15.9328 21.9298 16.03C22.0278 16.1264 22.0768 16.2489 22.0768 16.3975V17.423C22.0768 17.5824 22.0302 17.71 21.9368 17.8056C21.8419 17.9005 21.7253 17.948 21.5868 17.948H21.4982L21.0455 17.5396V16.401C21.0455 16.2516 21.0941 16.1284 21.1913 16.0311C21.2885 15.9339 21.4114 15.8849 21.56 15.8841ZM23.7592 15.8841C23.9069 15.8841 24.0302 15.9328 24.129 16.03C24.227 16.128 24.276 16.2513 24.276 16.3998V17.4311C24.276 17.5805 24.2274 17.7041 24.1302 17.8021C24.0329 17.9001 23.9097 17.9491 23.7603 17.9491C23.611 17.9491 23.4877 17.9005 23.3905 17.8033C23.2933 17.7061 23.2443 17.5828 23.2435 17.4335V16.4021C23.2435 16.2528 23.2921 16.1291 23.3893 16.0311C23.4865 15.9331 23.6098 15.8841 23.7592 15.8841ZM18.851 15.8841H19.362C19.5113 15.8841 19.6346 15.9331 19.7318 16.0311C19.8298 16.1284 19.8788 16.2516 19.8788 16.401V16.912L18.851 15.8841ZM21.5623 14.2695C21.4138 14.2695 21.2905 14.2205 21.1925 14.1225C21.0945 14.0245 21.0455 13.9012 21.0455 13.7526V12.7528C21.0455 12.0544 20.8219 11.4835 20.3747 11.0401C19.9274 10.5968 19.3927 10.3751 18.7705 10.3751H16.9622C16.0825 10.3751 15.3308 10.0566 14.707 9.41965C14.0832 8.78265 13.7713 8.00759 13.7713 7.09448C13.7713 6.23037 14.0832 5.4977 14.707 4.89648C15.3308 4.29526 16.0825 3.99426 16.9622 3.99348C17.1107 3.99348 17.234 4.04209 17.332 4.13931C17.4292 4.23653 17.4778 4.35981 17.4778 4.50915C17.4778 4.65848 17.4292 4.78176 17.332 4.87898C17.2348 4.9762 17.1115 5.0252 16.9622 5.02598C16.3788 5.02598 15.8733 5.2212 15.4455 5.61165C15.0177 6.00209 14.8038 6.49481 14.8038 7.08981C14.8038 7.68481 15.0177 8.20903 15.4455 8.66248C15.8733 9.11592 16.3788 9.34265 16.9622 9.34265H18.7705C19.6797 9.34265 20.4583 9.66659 21.1062 10.3145C21.7533 10.9616 22.0768 11.7429 22.0768 12.6583V13.7538C22.0768 13.9024 22.0282 14.0256 21.931 14.1236C21.8338 14.2216 21.7109 14.2703 21.5623 14.2695ZM23.7603 14.2695C23.6118 14.2695 23.4885 14.2209 23.3905 14.1236C23.2925 14.0264 23.2435 13.9031 23.2435 13.7538V11.6433C23.2435 10.36 22.7963 9.31153 21.9018 8.49798C21.0074 7.68442 19.899 7.27765 18.5768 7.27765C18.4283 7.27765 18.305 7.22903 18.207 7.13181C18.1098 7.03381 18.0612 6.91053 18.0612 6.76198C18.0612 6.61342 18.1098 6.49015 18.207 6.39215C18.3042 6.29415 18.4275 6.24515 18.5768 6.24515C19.1602 6.24515 19.6579 6.03865 20.0702 5.62565C20.4824 5.21265 20.6893 4.71487 20.6908 4.13231C20.6908 3.98298 20.7394 3.85931 20.8367 3.76131C20.9339 3.66409 21.0568 3.61548 21.2053 3.61548C21.3539 3.61548 21.4772 3.66409 21.5752 3.76131C21.6732 3.85853 21.7222 3.98181 21.7222 4.13115C21.7222 4.69503 21.6078 5.17959 21.3792 5.58481C21.1505 5.99003 20.8612 6.31826 20.5112 6.56948C21.5254 6.8977 22.4062 7.49698 23.1537 8.36731C23.9019 9.23842 24.276 10.3304 24.276 11.6433V13.7526C24.276 13.9012 24.2274 14.0245 24.1302 14.1225C24.0329 14.2197 23.9097 14.2683 23.7603 14.2683" fill="#75554D"/>
</svg>
