<svg width="28" height="28" viewBox="0 0 28 28" fill="none" xmlns="http://www.w3.org/2000/svg">
<path d="M6.10166 21V22.6158C6.10166 22.8149 6.03166 22.9841 5.89166 23.1233C5.75166 23.2633 5.58171 23.3333 5.38182 23.3333C5.18193 23.3333 5.01277 23.2633 4.87432 23.1233C4.73588 22.9833 4.66666 22.8142 4.66666 22.6158V14.4993C4.66666 14.3936 4.67288 14.2874 4.68532 14.1808C4.69699 14.0743 4.72032 13.9685 4.75532 13.8635L6.74682 8.26233C6.87127 7.889 7.09605 7.58567 7.42116 7.35233C7.74627 7.119 8.11066 7.00156 8.51432 7H19.4857C19.8885 7 20.2529 7.11667 20.5788 7.35C20.9047 7.58333 21.1295 7.88667 21.2532 8.26L23.2447 13.8623C23.2797 13.9673 23.303 14.0731 23.3147 14.1797C23.3271 14.2862 23.3333 14.3924 23.3333 14.4982V22.6158C23.3333 22.8149 23.2633 22.9845 23.1233 23.1245C22.9833 23.2637 22.813 23.3333 22.6123 23.3333C22.4124 23.3333 22.2433 23.2633 22.1048 23.1233C21.9664 22.9841 21.8972 22.8149 21.8972 22.6158V21H6.10166ZM6.31866 13.013H21.6825L20.1425 8.638C20.0834 8.48789 19.9939 8.372 19.8742 8.29033C19.7536 8.20789 19.6113 8.16667 19.4472 8.16667H8.55282C8.38793 8.16667 8.24599 8.20789 8.12699 8.29033C8.00721 8.372 7.91738 8.48789 7.85749 8.638L6.31866 13.013ZM8.66599 18.3073C9.02843 18.3073 9.33488 18.1806 9.58532 17.927C9.83654 17.6727 9.96216 17.3639 9.96216 17.0007C9.96216 16.6382 9.83499 16.3318 9.58066 16.0813C9.32632 15.8301 9.01793 15.7045 8.65549 15.7045C8.29227 15.7045 7.98505 15.8317 7.73382 16.086C7.48416 16.3403 7.35932 16.6487 7.35932 17.0112C7.35932 17.3744 7.4861 17.6816 7.73966 17.9328C7.99399 18.1825 8.30355 18.3073 8.66599 18.3073ZM19.3457 18.3073C19.7081 18.3073 20.0145 18.1806 20.265 17.927C20.5154 17.6727 20.6407 17.3639 20.6407 17.0007C20.6407 16.6382 20.5139 16.3318 20.2603 16.0813C20.006 15.8301 19.6976 15.7045 19.3352 15.7045C18.9719 15.7045 18.6647 15.8317 18.4135 16.086C18.1638 16.3403 18.039 16.6487 18.039 17.0112C18.039 17.3744 18.1658 17.6816 18.4193 17.9328C18.6737 18.1825 18.9824 18.3073 19.3457 18.3073ZM5.83332 19.8333H22.1667V14.1797H5.83332V19.8333Z" fill="#75554D"/>
</svg>
