<svg width="28" height="28" viewBox="0 0 28 28" fill="none" xmlns="http://www.w3.org/2000/svg">
<path d="M9.422 19.7435C9.16689 19.7435 8.95378 19.6575 8.78267 19.4856C8.61156 19.313 8.526 19.0991 8.526 18.844C8.526 18.5889 8.61194 18.3761 8.78383 18.2058C8.95572 18.0355 9.16961 17.9499 9.4255 17.9491C9.68139 17.9484 9.89411 18.0343 10.0637 18.207C10.2332 18.3796 10.3188 18.5935 10.3203 18.8486C10.3219 19.1037 10.2356 19.3165 10.0613 19.4868C9.88711 19.6571 9.67361 19.7427 9.42083 19.7435M13.9988 19.7435C13.7437 19.7435 13.5306 19.6575 13.3595 19.4856C13.1884 19.3137 13.1028 19.0999 13.1028 18.844C13.1028 18.5881 13.1888 18.3754 13.3607 18.2058C13.5326 18.0362 13.7464 17.9507 14.0023 17.9491C14.2582 17.9476 14.4709 18.0335 14.6405 18.207C14.8101 18.3804 14.8956 18.5943 14.8972 18.8486C14.8987 19.103 14.8128 19.3157 14.6393 19.4868C14.4659 19.6579 14.2532 19.7435 13.9988 19.7435ZM18.5757 19.7435C18.3206 19.7435 18.1074 19.6575 17.9363 19.4856C17.7652 19.3137 17.6797 19.0999 17.6797 18.844C17.6797 18.5881 17.766 18.3754 17.9387 18.2058C18.1106 18.0347 18.3241 17.9491 18.5792 17.9491C18.8343 17.9491 19.047 18.0351 19.2173 18.207C19.3877 18.3789 19.4732 18.5927 19.474 18.8486C19.4748 19.1045 19.3888 19.3172 19.2162 19.4868C19.0435 19.6564 18.8296 19.7419 18.5745 19.7435M7.89833 15.1666C7.65722 15.1666 7.44722 15.0772 7.26833 14.8983C7.08944 14.7194 7 14.5094 7 14.2683V14C7 12.1636 7.61989 10.5805 8.85967 9.25047C10.0994 7.92047 11.6184 7.17924 13.4167 7.0268V5.24997C13.4167 5.0843 13.4727 4.94586 13.5847 4.83463C13.6967 4.72341 13.8355 4.66741 14.0012 4.66663C14.1668 4.66586 14.3053 4.72186 14.4165 4.83463C14.5277 4.94741 14.5833 5.08586 14.5833 5.24997V7.0268C16.3816 7.17924 17.9006 7.92047 19.1403 9.25047C20.3801 10.5805 21 12.1636 21 14V14.2683C21 14.5094 20.9106 14.7194 20.7317 14.8983C20.5528 15.0772 20.3428 15.1666 20.1017 15.1666H7.89833ZM8.16667 14H19.8333C19.8333 12.3861 19.2644 11.0106 18.1265 9.87347C16.9886 8.73636 15.6131 8.16741 14 8.16663C12.3869 8.16586 11.0114 8.7348 9.8735 9.87347C8.73561 11.0121 8.16667 12.3876 8.16667 14ZM9.422 23.1536C9.16689 23.1536 8.95378 23.0677 8.78267 22.8958C8.61156 22.7231 8.526 22.5092 8.526 22.2541C8.526 21.999 8.61194 21.7863 8.78383 21.616C8.95572 21.4456 9.16961 21.3601 9.4255 21.3593C9.68139 21.3585 9.89411 21.4445 10.0637 21.6171C10.2332 21.7898 10.3188 22.0037 10.3203 22.2588C10.3219 22.5139 10.2356 22.7266 10.0613 22.897C9.88711 23.0673 9.67361 23.1529 9.42083 23.1536M13.9988 23.1536C13.7437 23.1536 13.5306 23.0677 13.3595 22.8958C13.1884 22.7231 13.1028 22.5092 13.1028 22.2541C13.1028 21.999 13.1888 21.7863 13.3607 21.616C13.5326 21.4456 13.7464 21.3601 14.0023 21.3593C14.2582 21.3585 14.4709 21.4445 14.6405 21.6171C14.8101 21.7898 14.8956 22.0037 14.8972 22.2588C14.8987 22.5139 14.8128 22.7266 14.6393 22.897C14.4659 23.0673 14.2532 23.1529 13.9988 23.1536ZM18.5757 23.1536C18.3206 23.1536 18.1074 23.0677 17.9363 22.8958C17.7652 22.7231 17.6797 22.5092 17.6797 22.2541C17.6797 21.999 17.766 21.7863 17.9387 21.616C18.1113 21.4456 18.3248 21.3601 18.5792 21.3593C18.8335 21.3585 19.0462 21.4445 19.2173 21.6171C19.3884 21.7898 19.474 22.0037 19.474 22.2588C19.474 22.5139 19.3881 22.7266 19.2162 22.897C19.0443 23.0673 18.8304 23.1529 18.5745 23.1536" fill="#75554D"/>
</svg>
