<svg width="28" height="28" viewBox="0 0 28 28" fill="none" xmlns="http://www.w3.org/2000/svg">
<path d="M15.302 22.1666H8.43499C7.91699 22.1666 7.47327 21.9819 7.10382 21.6125C6.73438 21.243 6.54966 20.7997 6.54966 20.2825V13.4166C6.54966 10.9806 7.3986 8.91329 9.09649 7.21463C10.7944 5.51596 12.8613 4.66663 15.2973 4.66663C17.7333 4.66663 19.801 5.51557 21.5005 7.21346C23.1999 8.91135 24.0504 10.9775 24.052 13.412C24.0535 15.8464 23.2042 17.9145 21.504 19.6163C19.8038 21.3181 17.7364 22.1682 15.302 22.1666ZM15.302 21C17.402 21 19.1909 20.2611 20.6687 18.7833C22.1464 17.3055 22.8853 15.5166 22.8853 13.4166C22.8853 11.3166 22.1464 9.52774 20.6687 8.04996C19.1909 6.57218 17.402 5.83329 15.302 5.83329C13.202 5.83329 11.4131 6.57218 9.93532 8.04996C8.45755 9.52774 7.71866 11.3166 7.71866 13.4166V20.2825C7.71866 20.4917 7.78555 20.6636 7.91932 20.7981C8.05388 20.9327 8.22616 21 8.43616 21H15.302ZM15.302 16.9166C16.2797 16.9166 17.1072 16.5779 17.7847 15.9005C18.4621 15.223 18.8012 14.3951 18.802 13.4166C18.8028 12.4382 18.4637 11.6102 17.7847 10.9328C17.1057 10.2553 16.2781 9.91663 15.302 9.91663C14.3259 9.91663 13.4975 10.2553 12.817 10.9328C12.1403 11.6102 11.802 12.4382 11.802 13.4166C11.802 14.3951 12.1403 15.223 12.817 15.9005C13.4937 16.5779 14.322 16.9166 15.302 16.9166ZM15.2985 15.75C14.6498 15.75 14.0992 15.5228 13.6465 15.0686C13.1946 14.6144 12.9687 14.063 12.9687 13.4143C12.9687 12.7656 13.1958 12.215 13.65 11.7623C14.1042 11.3096 14.6557 11.0833 15.3043 11.0833C15.953 11.0833 16.5037 11.3104 16.9563 11.7646C17.409 12.2188 17.6353 12.7703 17.6353 13.419C17.6353 14.0676 17.4082 14.6183 16.954 15.071C16.4998 15.5236 15.9479 15.75 15.2985 15.75ZM4.53132 22.1666C4.36566 22.1666 4.22721 22.1106 4.11599 21.9986C4.00477 21.8866 3.94916 21.7482 3.94916 21.5833V18.0833C3.94916 17.9176 4.00516 17.7792 4.11716 17.668C4.22916 17.5567 4.3676 17.5007 4.53249 17.5C4.69738 17.4992 4.83582 17.5552 4.94782 17.668C5.05982 17.7807 5.11582 17.9192 5.11582 18.0833V21.5833C5.11582 21.749 5.05982 21.8874 4.94782 21.9986C4.83582 22.1106 4.69699 22.1666 4.53132 22.1666Z" fill="#75554D"/>
</svg>
