<svg width="28" height="28" viewBox="0 0 28 28" fill="none" xmlns="http://www.w3.org/2000/svg">
<path d="M14 23.8269C13.4976 23.8269 13.0729 23.6534 12.726 23.3066C12.3791 22.9597 12.2057 22.535 12.2057 22.0326C12.2057 21.5301 12.3791 21.1051 12.726 20.7574C13.0729 20.4097 13.4976 20.2363 14 20.2371C14.5024 20.2378 14.9271 20.4113 15.274 20.7574C15.6209 21.1035 15.7943 21.5282 15.7943 22.0314C15.7943 22.5346 15.6209 22.9597 15.274 23.3066C14.9271 23.6534 14.5024 23.8269 14 23.8269ZM7.40833 17.9084L6.21483 16.7021C7.2275 15.6894 8.39572 14.8961 9.7195 14.3221C11.0433 13.7481 12.4713 13.4614 14.0035 13.4622C15.5357 13.463 16.9626 13.7508 18.284 14.3256C19.6054 14.9003 20.7725 15.6968 21.7852 16.7149L20.5917 17.9084C19.7361 17.0528 18.7444 16.382 17.6167 15.8959C16.4889 15.4098 15.2833 15.1667 14 15.1667C12.7167 15.1667 11.5111 15.4098 10.3833 15.8959C9.25556 16.382 8.26389 17.0528 7.40833 17.9084ZM2.45 12.9501L1.2565 11.7566C2.88128 10.1232 4.77711 8.83211 6.944 7.88322C9.11089 6.93433 11.4629 6.46105 14 6.46339C16.5371 6.46572 18.8891 6.93978 21.056 7.88555C23.2229 8.83133 25.1187 10.1221 26.7435 11.7577L25.55 12.9501C24.0528 11.4528 22.3176 10.2815 20.3443 9.43605C18.3711 8.59061 16.2563 8.1675 14 8.16672C11.7437 8.16594 9.62928 8.58905 7.65683 9.43605C5.68439 10.2831 3.94878 11.4544 2.45 12.9501Z" fill="#75554D"/>
</svg>
