<svg width="295" height="63" viewBox="0 0 295 63" fill="none" xmlns="http://www.w3.org/2000/svg">
<line x1="96.8657" y1="54.9083" x2="7.5895e-06" y2="54.9083" stroke="#CAB2AC"/>
<path d="M1.72452 25.6576C1.61463 25.6576 1.547 25.5689 1.52164 25.3914C1.42865 24.5967 1.3568 23.9796 1.30607 23.54C1.25535 23.1005 1.21731 22.7708 1.19195 22.551C1.17505 22.3312 1.16237 22.1917 1.15391 22.1325C1.15391 22.0649 1.15391 22.0184 1.15391 21.9931C1.15391 21.9001 1.19618 21.7986 1.28071 21.6887C1.36525 21.5788 1.46669 21.5239 1.58504 21.5239C1.66957 21.5239 1.75834 21.5746 1.85132 21.6761C1.95276 21.7775 2.04575 21.8958 2.13029 22.0311C2.22328 22.1664 2.29936 22.3016 2.35853 22.4369C2.42616 22.5721 2.46843 22.6693 2.48533 22.7285C2.70512 23.1935 2.94182 23.5865 3.19542 23.9078C3.45748 24.2205 3.75335 24.4742 4.08304 24.6686C4.41272 24.8546 4.78467 24.9898 5.19889 25.0743C5.61311 25.1589 6.08651 25.2011 6.61907 25.2011C7.5236 25.2011 8.22523 24.9856 8.72399 24.5545C9.23119 24.1233 9.4848 23.4301 9.4848 22.4749C9.4848 21.9254 9.36222 21.4267 9.11707 20.9786C8.88038 20.5306 8.5676 20.1164 8.17874 19.736C7.78988 19.3471 7.34607 18.9794 6.84732 18.6328C6.34856 18.2862 5.83713 17.9354 5.31302 17.5804C4.7889 17.2253 4.27747 16.8576 3.77871 16.4772C3.27996 16.0883 2.83615 15.6614 2.44729 15.1965C2.05843 14.7315 1.74143 14.2159 1.49628 13.6495C1.25958 13.0831 1.14123 12.4449 1.14123 11.7348C1.14123 11.3037 1.21731 10.9021 1.36948 10.5302C1.53009 10.1582 1.74143 9.82008 2.00349 9.51575C2.26554 9.21143 2.56987 8.94092 2.91646 8.70422C3.2715 8.45907 3.64768 8.25619 4.045 8.09557C4.44231 7.9265 4.84385 7.7997 5.24961 7.71517C5.66383 7.63063 6.06537 7.58836 6.45423 7.58836C6.76701 7.58836 7.07979 7.61795 7.39257 7.67712C7.7138 7.72785 8.02658 7.79125 8.3309 7.86733C8.64368 7.94341 8.95646 8.02794 9.26923 8.12093C9.58201 8.20547 9.89056 8.28577 10.1949 8.36185L11.0318 8.28577C11.1079 8.28577 11.1544 8.31959 11.1713 8.38722C11.1966 8.44639 11.2135 8.50134 11.222 8.55206L11.5897 11.5319C11.5897 11.5742 11.5348 11.6038 11.4249 11.6207C11.315 11.6376 11.2304 11.646 11.1713 11.646C11.1205 11.646 11.0445 11.6418 10.943 11.6333C10.8416 11.6164 10.7824 11.5995 10.7655 11.5826C10.7401 11.5573 10.7063 11.5065 10.6641 11.4305C10.6302 11.3459 10.5922 11.2572 10.5499 11.1642C10.5077 11.0627 10.4612 10.9613 10.4105 10.8599C10.3682 10.7584 10.3217 10.6696 10.271 10.5936C9.8652 9.96801 9.34532 9.50307 8.71131 9.19875C8.0773 8.88597 7.37989 8.72958 6.61907 8.72958C6.28939 8.72958 5.98084 8.76762 5.69342 8.8437C5.406 8.91978 5.15663 9.04236 4.94529 9.21143C4.73395 9.37204 4.56488 9.57915 4.43808 9.83276C4.31973 10.0864 4.26056 10.3907 4.26056 10.7457C4.26056 11.2614 4.37891 11.7306 4.6156 12.1532C4.86075 12.5675 5.17776 12.9605 5.56662 13.3325C5.96393 13.696 6.41196 14.051 6.91072 14.3976C7.41793 14.7442 7.92936 15.0993 8.44502 15.4628C8.96914 15.8178 9.48057 16.1982 9.97933 16.604C10.4865 17.0097 10.9346 17.4578 11.3234 17.9481C11.7207 18.4384 12.0377 18.9836 12.2744 19.5838C12.5196 20.184 12.6422 20.8603 12.6422 21.6127C12.6422 22.1114 12.5534 22.5763 12.3759 23.0075C12.2068 23.4386 11.9743 23.8317 11.6785 24.1867C11.3826 24.5333 11.036 24.8419 10.6387 25.1124C10.2414 25.3829 9.81448 25.6111 9.358 25.7971C8.90996 25.9746 8.44502 26.1099 7.96317 26.2029C7.48978 26.2959 7.02484 26.3424 6.56835 26.3424C5.99352 26.3424 5.49054 26.3001 5.05941 26.2156C4.63674 26.131 4.26901 26.038 3.95623 25.9366C3.65191 25.8267 3.39408 25.7295 3.18274 25.645C2.97141 25.5604 2.79388 25.5182 2.65018 25.5182C2.59945 25.5182 2.56141 25.5224 2.53605 25.5308L1.72452 25.6576ZM14.6837 26C14.633 25.9831 14.5991 25.9281 14.5822 25.8352C14.5653 25.7337 14.5569 25.6576 14.5569 25.6069C14.5569 25.5646 14.5696 25.497 14.5949 25.404C14.6203 25.311 14.6499 25.2561 14.6837 25.2392C14.7936 25.1885 14.95 25.1504 15.1528 25.1251C15.3557 25.0913 15.5586 25.0321 15.7615 24.9475C15.9644 24.8546 16.1419 24.7151 16.2941 24.5291C16.4462 24.3347 16.5223 24.0515 16.5223 23.6795V17.593C16.5223 17.3902 16.4674 17.2338 16.3575 17.1239C16.2476 17.0055 16.1081 16.9168 15.939 16.8576C15.7699 16.7984 15.5882 16.7519 15.3938 16.7181C15.1993 16.6758 15.0134 16.6293 14.8358 16.5786C14.7851 16.5617 14.7429 16.5406 14.709 16.5152C14.6837 16.4814 14.671 16.418 14.671 16.325C14.671 16.2827 14.6837 16.2405 14.709 16.1982C14.7344 16.1559 14.7851 16.1137 14.8612 16.0714L19.0583 14.0933C19.0922 14.0764 19.126 14.0595 19.1598 14.0426C19.2021 14.0257 19.2316 14.0172 19.2485 14.0172C19.3923 14.0172 19.4641 14.1187 19.4641 14.3215V23.6795C19.4641 24.0515 19.5402 24.3347 19.6924 24.5291C19.8445 24.7151 20.022 24.8546 20.2249 24.9475C20.4278 25.0321 20.6307 25.0913 20.8336 25.1251C21.0365 25.1504 21.1928 25.1885 21.3027 25.2392C21.3365 25.2561 21.3661 25.311 21.3915 25.404C21.4169 25.497 21.4295 25.5646 21.4295 25.6069C21.4295 25.6576 21.4211 25.7337 21.4042 25.8352C21.3873 25.9281 21.3535 25.9831 21.3027 26H14.6837ZM15.9771 9.42699C15.9771 8.88597 16.1377 8.45484 16.4589 8.13361C16.7801 7.81238 17.2113 7.65176 17.7523 7.65176C18.2933 7.65176 18.7244 7.81238 19.0457 8.13361C19.3669 8.45484 19.5275 8.88597 19.5275 9.42699C19.5275 9.96801 19.3669 10.3991 19.0457 10.7204C18.7244 11.0331 18.2933 11.1895 17.7523 11.1895C17.2113 11.1895 16.7801 11.0331 16.4589 10.7204C16.1377 10.3991 15.9771 9.96801 15.9771 9.42699ZM27.0976 13.7002C27.1314 13.6833 27.1652 13.6664 27.199 13.6495C27.2413 13.6326 27.2709 13.6241 27.2878 13.6241C27.4315 13.6241 27.5033 13.7256 27.5033 13.9285V16.0334C27.5118 16.0841 27.5456 16.1095 27.6048 16.1095C27.6555 16.1095 27.7147 16.0925 27.7823 16.0587C28.1627 15.8558 28.5347 15.6487 28.8982 15.4374C29.2617 15.2176 29.6252 15.019 29.9887 14.8414C30.3606 14.6639 30.7326 14.5202 31.1045 14.4103C31.4765 14.3004 31.8527 14.2455 32.2331 14.2455C32.6135 14.2455 32.9347 14.292 33.1968 14.3849C33.4588 14.4779 33.6786 14.6005 33.8561 14.7527C34.0336 14.8964 34.1774 15.057 34.2873 15.2345C34.4056 15.4036 34.507 15.5684 34.5916 15.729C34.6 15.7544 34.6169 15.7882 34.6423 15.8305C34.6677 15.8643 34.6972 15.9023 34.7311 15.9446C34.7733 15.9869 34.8114 16.0249 34.8452 16.0587C34.8874 16.0841 34.9297 16.0968 34.972 16.0968C35.0903 16.0883 35.2129 16.0503 35.3397 15.9826C36.1597 15.5684 36.8275 15.2472 37.3432 15.019C37.8673 14.7823 38.3026 14.609 38.6492 14.4991C39.0043 14.3807 39.3002 14.3089 39.5368 14.2835C39.782 14.2581 40.0314 14.2455 40.285 14.2455C40.7837 14.2455 41.2106 14.3342 41.5657 14.5117C41.9292 14.6893 42.2335 14.926 42.4787 15.2218C42.7238 15.5093 42.9182 15.8432 43.0619 16.2236C43.2141 16.5955 43.3282 16.9802 43.4043 17.3775C43.4804 17.7663 43.5311 18.1552 43.5565 18.544C43.5818 18.9245 43.5945 19.271 43.5945 19.5838C43.5945 19.8797 43.5861 20.1544 43.5692 20.408C43.5607 20.6616 43.548 20.9406 43.5311 21.2449C43.5227 21.5408 43.51 21.8789 43.4931 22.2593C43.4846 22.6397 43.4804 23.1005 43.4804 23.6415C43.4804 23.8951 43.5269 24.1064 43.6199 24.2755C43.7129 24.4446 43.8312 24.584 43.9749 24.6939C44.1271 24.8038 44.2919 24.8884 44.4694 24.9475C44.647 24.9983 44.8203 25.0405 44.9893 25.0743C45.1584 25.1082 45.3106 25.1377 45.4458 25.1631C45.5895 25.18 45.6994 25.2054 45.7755 25.2392C45.8093 25.2561 45.8389 25.311 45.8643 25.404C45.8896 25.497 45.9023 25.5646 45.9023 25.6069C45.9023 25.6576 45.8939 25.7337 45.8769 25.8352C45.86 25.9281 45.8262 25.9831 45.7755 26H38.7C38.6492 25.9831 38.6154 25.9281 38.5985 25.8352C38.5816 25.7337 38.5732 25.6576 38.5732 25.6069C38.5732 25.5646 38.5858 25.497 38.6112 25.404C38.6366 25.311 38.6661 25.2561 38.7 25.2392C38.8099 25.1885 38.9662 25.1504 39.1691 25.1251C39.372 25.0913 39.5749 25.0279 39.7778 24.9349C39.9807 24.8334 40.154 24.6813 40.2977 24.4784C40.4498 24.2755 40.5259 23.9712 40.5259 23.5654V23.54C40.5682 23.278 40.5935 22.9906 40.602 22.6778C40.6189 22.3566 40.6273 22.0057 40.6273 21.6253C40.6273 21.4394 40.6231 21.2661 40.6147 21.1054C40.6147 20.9364 40.6147 20.7673 40.6147 20.5982C40.6147 20.4207 40.6104 20.2305 40.602 20.0276C40.602 19.8247 40.602 19.5923 40.602 19.3302C40.602 18.916 40.5809 18.5018 40.5386 18.0876C40.5048 17.6733 40.4118 17.3014 40.2596 16.9717C40.1159 16.642 39.9003 16.3757 39.6129 16.1729C39.3255 15.9615 38.9282 15.8558 38.421 15.8558C38.3365 15.8558 38.2435 15.8685 38.142 15.8939C38.0406 15.9108 37.9011 15.9531 37.7236 16.0207C37.5461 16.0799 37.3094 16.1729 37.0135 16.2997C36.7176 16.4265 36.3288 16.5913 35.8469 16.7942C35.7793 16.8364 35.7074 16.8872 35.6314 16.9463C35.5637 16.9971 35.5257 17.0647 35.5172 17.1492V23.6415C35.5172 24.0219 35.5933 24.3135 35.7455 24.5164C35.8976 24.7108 36.0752 24.8546 36.278 24.9475C36.4809 25.0321 36.6838 25.0913 36.8867 25.1251C37.0896 25.1504 37.246 25.1885 37.3559 25.2392C37.3897 25.2561 37.4193 25.311 37.4446 25.404C37.47 25.497 37.4827 25.5646 37.4827 25.6069C37.4827 25.6576 37.4742 25.7337 37.4573 25.8352C37.4404 25.9281 37.4066 25.9831 37.3559 26H30.7368C30.6861 25.9831 30.6523 25.9281 30.6354 25.8352C30.6184 25.7337 30.61 25.6576 30.61 25.6069C30.61 25.5646 30.6227 25.497 30.648 25.404C30.6734 25.311 30.703 25.2561 30.7368 25.2392C30.8467 25.1885 31.0031 25.1504 31.206 25.1251C31.4088 25.0913 31.6117 25.0321 31.8146 24.9475C32.0175 24.8546 32.195 24.7108 32.3472 24.5164C32.4993 24.3135 32.5754 24.0219 32.5754 23.6415V18.1129C32.5754 17.7832 32.5501 17.4831 32.4993 17.2126C32.4486 16.9337 32.3514 16.697 32.2077 16.5025C32.064 16.2997 31.8611 16.1433 31.5991 16.0334C31.3454 15.9235 31.0115 15.8685 30.5973 15.8685C30.4029 15.8685 30.1577 15.9235 29.8619 16.0334C29.566 16.1348 29.2617 16.2658 28.9489 16.4265C28.6446 16.5871 28.3571 16.7561 28.0866 16.9337C27.8246 17.1112 27.6302 17.276 27.5033 17.4282V23.6415C27.5033 24.0219 27.5794 24.3135 27.7316 24.5164C27.8838 24.7108 28.0613 24.8546 28.2642 24.9475C28.467 25.0321 28.6699 25.0913 28.8728 25.1251C29.0757 25.1504 29.2321 25.1885 29.342 25.2392C29.3758 25.2561 29.4054 25.311 29.4307 25.404C29.4561 25.497 29.4688 25.5646 29.4688 25.6069C29.4688 25.6576 29.4603 25.7337 29.4434 25.8352C29.4265 25.9281 29.3927 25.9831 29.342 26H22.7229C22.6722 25.9831 22.6384 25.9281 22.6215 25.8352C22.6046 25.7337 22.5961 25.6576 22.5961 25.6069C22.5961 25.5646 22.6088 25.497 22.6342 25.404C22.6595 25.311 22.6891 25.2561 22.7229 25.2392C22.8328 25.1885 22.9892 25.1504 23.1921 25.1251C23.395 25.0913 23.5979 25.0321 23.8007 24.9475C24.0036 24.8546 24.1811 24.7151 24.3333 24.5291C24.4855 24.3347 24.5615 24.0473 24.5615 23.6668V17.2126C24.5615 17.0097 24.5066 16.8534 24.3967 16.7435C24.2868 16.6251 24.1473 16.5364 23.9783 16.4772C23.8092 16.418 23.6274 16.3715 23.433 16.3377C23.2386 16.2954 23.0526 16.2489 22.8751 16.1982C22.8244 16.1813 22.7821 16.1602 22.7483 16.1348C22.7229 16.101 22.7102 16.0376 22.7102 15.9446C22.7102 15.9023 22.7229 15.8601 22.7483 15.8178C22.7736 15.7755 22.8244 15.7333 22.9004 15.691L27.0976 13.7002ZM50.6067 13.7002C50.6405 13.6833 50.6743 13.6664 50.7081 13.6495C50.7504 13.6326 50.78 13.6241 50.7969 13.6241C50.9406 13.6241 51.0124 13.7256 51.0124 13.9285V15.2726C51.0124 15.3148 51.0293 15.3486 51.0631 15.374C51.1054 15.3994 51.1392 15.412 51.1646 15.412C51.2069 15.412 51.2449 15.4036 51.2787 15.3867C51.321 15.3613 51.359 15.3402 51.3928 15.3233C51.731 15.1204 52.0353 14.9513 52.3058 14.8161C52.5763 14.6724 52.8341 14.5625 53.0793 14.4864C53.3244 14.4019 53.578 14.3427 53.8401 14.3089C54.1022 14.2751 54.398 14.2581 54.7277 14.2581C55.4463 14.2581 56.0887 14.4314 56.6551 14.778C57.2299 15.1162 57.716 15.5642 58.1133 16.1221C58.5106 16.6716 58.815 17.2929 59.0263 17.9861C59.2376 18.6793 59.3433 19.3767 59.3433 20.0784C59.3433 20.594 59.2715 21.1097 59.1277 21.6253C58.984 22.141 58.7854 22.6313 58.5318 23.0962C58.2782 23.5527 57.9738 23.9796 57.6188 24.3769C57.2638 24.7742 56.8707 25.1208 56.4395 25.4167C56.0169 25.7041 55.5604 25.9281 55.0701 26.0888C54.5882 26.2578 54.0895 26.3424 53.5738 26.3424C53.1934 26.3424 52.8215 26.317 52.458 26.2663C52.1029 26.2156 51.7098 26.1437 51.2787 26.0507C51.135 26.0507 51.0547 26.1014 51.0378 26.2029C51.0293 26.3043 51.0209 26.41 51.0124 26.5199V31.6807C51.0124 31.9259 51.0631 32.1288 51.1646 32.2894C51.2745 32.4584 51.4097 32.5937 51.5704 32.6951C51.7394 32.805 51.9212 32.8853 52.1156 32.9361C52.3185 32.9952 52.5129 33.0417 52.6989 33.0755C52.8849 33.1094 53.0539 33.1347 53.2061 33.1516C53.3583 33.177 53.4724 33.2066 53.5485 33.2404C53.633 33.2742 53.6753 33.3292 53.6753 33.4052C53.6753 33.5236 53.633 33.5912 53.5485 33.6081H46.232C46.1475 33.5912 46.1052 33.5236 46.1052 33.4052C46.1052 33.3292 46.1475 33.2742 46.232 33.2404C46.3419 33.1897 46.4983 33.1474 46.7012 33.1136C46.904 33.0882 47.1069 33.0291 47.3098 32.9361C47.5127 32.8515 47.6902 32.712 47.8424 32.5176C47.9945 32.3316 48.0706 32.0527 48.0706 31.6807V17.1999C48.0706 16.9971 48.0157 16.8407 47.9058 16.7308C47.7959 16.6124 47.6564 16.5237 47.4873 16.4645C47.3183 16.4053 47.1365 16.3588 46.9421 16.325C46.7477 16.2827 46.5617 16.2363 46.3842 16.1855C46.3334 16.1686 46.2912 16.1475 46.2574 16.1221C46.232 16.0883 46.2193 16.0249 46.2193 15.9319C46.2193 15.8897 46.232 15.8474 46.2574 15.8051C46.2827 15.7629 46.3334 15.7206 46.4095 15.6783L50.6067 13.7002ZM53.5992 15.691C53.1427 15.691 52.7242 15.7544 52.3438 15.8812C51.9719 16.008 51.5915 16.2151 51.2026 16.5025C51.1857 16.511 51.1646 16.5279 51.1392 16.5533C51.1223 16.5702 51.1054 16.5871 51.0885 16.604L51.0124 16.6801V23.4513C51.0124 23.4766 51.0166 23.5485 51.0251 23.6668C51.0336 23.7767 51.0462 23.8782 51.0631 23.9712C51.0885 24.1487 51.1984 24.3135 51.3928 24.4657C51.5873 24.6094 51.807 24.7362 52.0522 24.8461C52.3058 24.9475 52.5552 25.0279 52.8003 25.087C53.0539 25.1377 53.2568 25.1631 53.409 25.1631C53.9669 25.1631 54.4361 25.0617 54.8165 24.8588C55.2053 24.6559 55.5181 24.3854 55.7548 24.0473C55.9915 23.7007 56.1606 23.2991 56.262 22.8426C56.3719 22.3861 56.4269 21.9001 56.4269 21.3844C56.4269 20.9871 56.4057 20.5729 56.3635 20.1418C56.3212 19.7022 56.2536 19.271 56.1606 18.8484C56.076 18.4257 55.9577 18.0242 55.8055 17.6438C55.6618 17.2633 55.4843 16.9294 55.273 16.642C55.0701 16.3546 54.8292 16.1264 54.5502 15.9573C54.2712 15.7798 53.9542 15.691 53.5992 15.691ZM67.8644 25.6196C67.8644 25.6703 67.8559 25.7422 67.839 25.8352C67.8221 25.9281 67.7883 25.9831 67.7376 26H61.1185C61.0678 25.9831 61.034 25.9281 61.0171 25.8352C61.0002 25.7422 60.9917 25.6703 60.9917 25.6196C60.9917 25.5773 61.0044 25.5097 61.0298 25.4167C61.0551 25.3237 61.0847 25.2688 61.1185 25.2519C61.2284 25.2011 61.3848 25.1631 61.5877 25.1377C61.7906 25.1039 61.9935 25.0448 62.1964 24.9602C62.3992 24.8672 62.5768 24.7278 62.7289 24.5418C62.8811 24.3473 62.9572 24.0642 62.9572 23.6922V8.9071C62.9572 8.70422 62.9022 8.54783 62.7923 8.43794C62.6824 8.31959 62.5429 8.23083 62.3739 8.17165C62.2048 8.11248 62.0231 8.06598 61.8286 8.03217C61.6342 7.9899 61.4482 7.94341 61.2707 7.89269C61.1608 7.85042 61.1059 7.73207 61.1059 7.53764C61.1059 7.49538 61.1185 7.44043 61.1439 7.3728C61.1693 7.29672 61.22 7.23754 61.2961 7.19528L65.4932 5.21717C65.527 5.20026 65.5651 5.18335 65.6073 5.16645C65.6496 5.14954 65.6961 5.14109 65.7468 5.14109C65.8144 5.14109 65.8567 5.16645 65.8736 5.21717C65.8905 5.25943 65.899 5.33552 65.899 5.44541V23.6922C65.899 24.0642 65.975 24.3473 66.1272 24.5418C66.2794 24.7278 66.4569 24.8672 66.6598 24.9602C66.8627 25.0448 67.0655 25.1039 67.2684 25.1377C67.4713 25.1631 67.6277 25.2011 67.7376 25.2519C67.7714 25.2688 67.801 25.3237 67.8264 25.4167C67.8517 25.5097 67.8644 25.5773 67.8644 25.6196ZM72.518 33.8617C72.3659 33.8617 72.2179 33.8364 72.0742 33.7856C71.9305 33.7349 71.7995 33.6631 71.6811 33.5701C71.5628 33.4771 71.4656 33.3672 71.3895 33.2404C71.3219 33.122 71.288 32.9868 71.288 32.8346C71.288 32.5979 71.3472 32.4162 71.4656 32.2894C71.5924 32.1626 71.7445 32.0569 71.9221 31.9724C72.0996 31.8878 72.2856 31.816 72.48 31.7568C72.6744 31.6976 72.8393 31.6173 72.9745 31.5159C73.0675 31.4483 73.1647 31.3679 73.2662 31.275C73.3761 31.1904 73.4733 31.0509 73.5578 30.8565L75.2189 26.9891L70.3624 16.8576C70.2187 16.4687 70.0116 16.1306 69.7411 15.8432C69.4706 15.5473 69.1409 15.336 68.752 15.2092C68.6928 15.1923 68.621 15.1753 68.5364 15.1584C68.4519 15.1331 68.3716 15.1035 68.2955 15.0697C68.211 15.0359 68.1434 14.9936 68.0926 14.9429C68.0335 14.8837 68.0039 14.8076 68.0039 14.7146C68.0039 14.6301 68.0292 14.5456 68.08 14.461C68.1307 14.3765 68.2068 14.3342 68.3082 14.3342H75.0033C75.0541 14.3342 75.0837 14.3849 75.0921 14.4864C75.1006 14.5878 75.1048 14.6512 75.1048 14.6766C75.1048 14.7949 75.0541 14.8795 74.9526 14.9302C74.8596 14.9725 74.7413 15.002 74.5976 15.019C74.4539 15.0359 74.2975 15.0485 74.1284 15.057C73.9678 15.0654 73.8156 15.095 73.6719 15.1458C73.5282 15.1965 73.4056 15.2768 73.3042 15.3867C73.2112 15.4966 73.1647 15.6614 73.1647 15.8812C73.1647 15.9066 73.1816 15.9615 73.2154 16.0461C73.2577 16.1221 73.2788 16.1686 73.2788 16.1855L76.4235 22.9187C76.4404 22.961 76.47 23.0244 76.5123 23.1089C76.563 23.185 76.618 23.223 76.6771 23.223C76.7109 23.223 76.7448 23.2061 76.7786 23.1723C76.8124 23.1301 76.842 23.0836 76.8673 23.0328C76.8927 22.9821 76.9138 22.9356 76.9307 22.8934C76.9476 22.8426 76.9603 22.8088 76.9688 22.7919C77.3576 21.7944 77.6831 20.9491 77.9451 20.2559C78.2157 19.5627 78.4355 18.9879 78.6045 18.5314C78.782 18.0749 78.9131 17.7198 78.9976 17.4662C79.0906 17.2042 79.154 17.0055 79.1878 16.8703C79.2301 16.7266 79.2554 16.6251 79.2639 16.5659C79.2723 16.4983 79.2766 16.4349 79.2766 16.3757C79.2935 16.0799 79.2047 15.8347 79.0103 15.6403C78.8159 15.4459 78.5834 15.3021 78.3129 15.2092C78.2368 15.1838 78.1396 15.1669 78.0212 15.1584C77.9113 15.1415 77.8014 15.1204 77.6915 15.095C77.5901 15.0612 77.4971 15.0147 77.4126 14.9556C77.3365 14.8879 77.2985 14.7949 77.2985 14.6766C77.2985 14.609 77.328 14.5371 77.3872 14.461C77.4464 14.3765 77.5098 14.3342 77.5774 14.3342H82.6368C82.7044 14.3342 82.7425 14.3849 82.7509 14.4864C82.7678 14.5794 82.7763 14.647 82.7763 14.6893C82.7763 14.7484 82.7678 14.7992 82.7509 14.8414C82.734 14.8837 82.6918 14.9217 82.6241 14.9556C82.565 14.9894 82.4762 15.0232 82.3579 15.057C82.248 15.0908 82.1 15.1246 81.914 15.1584C81.7365 15.1923 81.5759 15.281 81.4322 15.4247C81.2885 15.56 81.1575 15.7206 81.0391 15.9066C80.9292 16.0841 80.8278 16.2743 80.7348 16.4772C80.6503 16.6801 80.5742 16.8618 80.5065 17.0224L74.0777 32.9487C74.0101 33.1094 73.9128 33.2446 73.786 33.3545C73.6592 33.4729 73.5198 33.5701 73.3676 33.6462C73.2154 33.7222 73.0633 33.7772 72.9111 33.811C72.759 33.8448 72.6279 33.8617 72.518 33.8617ZM91.8046 25.6576C91.6947 25.6576 91.6271 25.5689 91.6017 25.3914C91.5087 24.5967 91.4369 23.9796 91.3861 23.54C91.3354 23.1005 91.2974 22.7708 91.272 22.551C91.2551 22.3312 91.2424 22.1917 91.234 22.1325C91.234 22.0649 91.234 22.0184 91.234 21.9931C91.234 21.9001 91.2763 21.7986 91.3608 21.6887C91.4453 21.5788 91.5468 21.5239 91.6651 21.5239C91.7496 21.5239 91.8384 21.5746 91.9314 21.6761C92.0328 21.7775 92.1258 21.8958 92.2104 22.0311C92.3033 22.1664 92.3794 22.3016 92.4386 22.4369C92.5062 22.5721 92.5485 22.6693 92.5654 22.7285C92.7852 23.1935 93.0219 23.5865 93.2755 23.9078C93.5376 24.2205 93.8334 24.4742 94.1631 24.6686C94.4928 24.8546 94.8647 24.9898 95.279 25.0743C95.6932 25.1589 96.1666 25.2011 96.6991 25.2011C97.6037 25.2011 98.3053 24.9856 98.8041 24.5545C99.3113 24.1233 99.5649 23.4301 99.5649 22.4749C99.5649 21.9254 99.4423 21.4267 99.1971 20.9786C98.9604 20.5306 98.6477 20.1164 98.2588 19.736C97.8699 19.3471 97.4261 18.9794 96.9274 18.6328C96.4286 18.2862 95.9172 17.9354 95.3931 17.5804C94.869 17.2253 94.3575 16.8576 93.8588 16.4772C93.36 16.0883 92.9162 15.6614 92.5274 15.1965C92.1385 14.7315 91.8215 14.2159 91.5763 13.6495C91.3397 13.0831 91.2213 12.4449 91.2213 11.7348C91.2213 11.3037 91.2974 10.9021 91.4495 10.5302C91.6102 10.1582 91.8215 9.82008 92.0836 9.51575C92.3456 9.21143 92.6499 8.94092 92.9965 8.70422C93.3516 8.45907 93.7278 8.25619 94.1251 8.09557C94.5224 7.9265 94.9239 7.7997 95.3297 7.71517C95.7439 7.63063 96.1454 7.58836 96.5343 7.58836C96.8471 7.58836 97.1599 7.61795 97.4726 7.67712C97.7939 7.72785 98.1066 7.79125 98.411 7.86733C98.7237 7.94341 99.0365 8.02794 99.3493 8.12093C99.6621 8.20547 99.9706 8.28577 100.275 8.36185L101.112 8.28577C101.188 8.28577 101.234 8.31959 101.251 8.38722C101.277 8.44639 101.294 8.50134 101.302 8.55206L101.67 11.5319C101.67 11.5742 101.615 11.6038 101.505 11.6207C101.395 11.6376 101.311 11.646 101.251 11.646C101.201 11.646 101.125 11.6418 101.023 11.6333C100.922 11.6164 100.862 11.5995 100.846 11.5826C100.82 11.5573 100.786 11.5065 100.744 11.4305C100.71 11.3459 100.672 11.2572 100.63 11.1642C100.588 11.0627 100.541 10.9613 100.491 10.8599C100.448 10.7584 100.402 10.6696 100.351 10.5936C99.9453 9.96801 99.4254 9.50307 98.7914 9.19875C98.1574 8.88597 97.46 8.72958 96.6991 8.72958C96.3695 8.72958 96.0609 8.76762 95.7735 8.8437C95.4861 8.91978 95.2367 9.04236 95.0254 9.21143C94.814 9.37204 94.645 9.57915 94.5182 9.83276C94.3998 10.0864 94.3406 10.3907 94.3406 10.7457C94.3406 11.2614 94.459 11.7306 94.6957 12.1532C94.9408 12.5675 95.2578 12.9605 95.6467 13.3325C96.044 13.696 96.492 14.051 96.9908 14.3976C97.498 14.7442 98.0094 15.0993 98.5251 15.4628C99.0492 15.8178 99.5606 16.1982 100.059 16.604C100.567 17.0097 101.015 17.4578 101.403 17.9481C101.801 18.4384 102.118 18.9836 102.355 19.5838C102.6 20.184 102.722 20.8603 102.722 21.6127C102.722 22.1114 102.633 22.5763 102.456 23.0075C102.287 23.4386 102.054 23.8317 101.759 24.1867C101.463 24.5333 101.116 24.8419 100.719 25.1124C100.321 25.3829 99.8946 25.6111 99.4381 25.7971C98.99 25.9746 98.5251 26.1099 98.0432 26.2029C97.5699 26.2959 97.1049 26.3424 96.6484 26.3424C96.0736 26.3424 95.5706 26.3001 95.1395 26.2156C94.7168 26.131 94.3491 26.038 94.0363 25.9366C93.732 25.8267 93.4742 25.7295 93.2628 25.645C93.0515 25.5604 92.874 25.5182 92.7302 25.5182C92.6795 25.5182 92.6415 25.5224 92.6161 25.5308L91.8046 25.6576ZM105.791 16.2236H104.84C104.721 16.2236 104.628 16.194 104.561 16.1348C104.493 16.0756 104.455 16.0122 104.447 15.9446C104.447 15.9023 104.455 15.8558 104.472 15.8051C104.489 15.7544 104.51 15.7206 104.536 15.7037C104.705 15.5938 104.886 15.467 105.081 15.3233C105.284 15.1711 105.482 15.0147 105.677 14.8541C105.871 14.6935 106.061 14.5329 106.247 14.3723C106.433 14.2116 106.598 14.0637 106.742 13.9285C106.826 13.8355 106.941 13.696 107.084 13.51C107.236 13.324 107.405 13.1423 107.591 12.9648C107.786 12.7788 107.993 12.6182 108.213 12.4829C108.433 12.3392 108.657 12.2674 108.885 12.2674C108.936 12.2674 108.995 12.2843 109.062 12.3181C109.13 12.3519 109.164 12.3942 109.164 12.4449C109.164 12.5041 109.147 12.597 109.113 12.7238C109.088 12.8422 109.054 12.9774 109.012 13.1296C108.969 13.2818 108.923 13.4424 108.872 13.6115C108.821 13.7805 108.775 13.9454 108.733 14.106C108.733 14.1736 108.741 14.2286 108.758 14.2708C108.783 14.3131 108.843 14.3385 108.936 14.3469H112.169C112.304 14.3469 112.397 14.3723 112.448 14.423C112.499 14.4653 112.537 14.5244 112.562 14.6005C112.579 14.6428 112.596 14.7315 112.613 14.8668C112.63 14.9936 112.647 15.1373 112.664 15.2979C112.68 15.4501 112.693 15.6065 112.702 15.7671C112.718 15.9192 112.727 16.0461 112.727 16.1475C112.727 16.1982 112.693 16.2236 112.625 16.2236H108.809C108.766 16.2236 108.741 16.232 108.733 16.2489C108.733 16.2658 108.733 16.2954 108.733 16.3377V22.6397C108.733 22.9103 108.766 23.147 108.834 23.3498C108.902 23.5527 108.986 23.7218 109.088 23.857C109.198 23.9923 109.32 24.0937 109.455 24.1614C109.591 24.229 109.726 24.2628 109.861 24.2628C110.25 24.2628 110.567 24.2079 110.812 24.098C111.057 23.9796 111.269 23.8528 111.446 23.7176C111.624 23.5823 111.78 23.4597 111.915 23.3498C112.051 23.2315 112.203 23.1723 112.372 23.1723C112.49 23.1723 112.558 23.2188 112.575 23.3118C112.6 23.4048 112.613 23.4766 112.613 23.5274C112.613 23.6373 112.596 23.726 112.562 23.7936C112.537 23.8528 112.516 23.8993 112.499 23.9331C112.49 23.95 112.444 24.0219 112.359 24.1487C112.275 24.2755 112.161 24.4277 112.017 24.6052C111.873 24.7827 111.696 24.9729 111.484 25.1758C111.281 25.3787 111.053 25.5689 110.8 25.7464C110.546 25.9155 110.267 26.0549 109.963 26.1648C109.667 26.2832 109.354 26.3424 109.024 26.3424C108.568 26.3424 108.141 26.2578 107.744 26.0888C107.346 25.9197 107.004 25.6957 106.716 25.4167C106.429 25.1293 106.201 24.8038 106.032 24.4403C105.871 24.0768 105.791 23.7007 105.791 23.3118V16.2236ZM115.136 16.7435C115.111 16.4983 114.997 16.2912 114.794 16.1221C114.599 15.9446 114.388 15.8305 114.16 15.7798C114.101 15.7629 114.033 15.7544 113.957 15.7544C113.889 15.746 113.826 15.7375 113.767 15.729C113.708 15.7121 113.657 15.691 113.615 15.6656C113.581 15.6318 113.564 15.5769 113.564 15.5008C113.564 15.4332 113.572 15.374 113.589 15.3233C113.615 15.2726 113.674 15.2345 113.767 15.2092L117.634 14.0933C117.685 14.0764 117.736 14.0637 117.786 14.0553C117.845 14.0468 117.9 14.0426 117.951 14.0426C118.036 14.0426 118.078 14.1144 118.078 14.2581V22.8173C118.078 23.1047 118.141 23.3667 118.268 23.6034C118.403 23.8317 118.577 24.0261 118.788 24.1867C118.999 24.3473 119.24 24.4699 119.511 24.5545C119.781 24.639 120.06 24.6813 120.348 24.6813C120.551 24.6813 120.762 24.6474 120.982 24.5798C121.202 24.5122 121.413 24.4277 121.616 24.3262C121.819 24.2163 122.009 24.0937 122.186 23.9585C122.364 23.8148 122.508 23.6668 122.617 23.5147V16.7308C122.592 16.4856 122.478 16.2785 122.275 16.1095C122.081 15.9319 121.869 15.8178 121.641 15.7671C121.582 15.7502 121.514 15.7417 121.438 15.7417C121.371 15.7333 121.307 15.7248 121.248 15.7164C121.189 15.6995 121.138 15.6783 121.096 15.653C121.062 15.6192 121.045 15.5642 121.045 15.4881C121.045 15.4205 121.054 15.3613 121.07 15.3106C121.096 15.2599 121.155 15.2218 121.248 15.1965L125.115 14.0933C125.166 14.0764 125.217 14.0637 125.268 14.0553C125.327 14.0468 125.382 14.0426 125.432 14.0426C125.517 14.0426 125.559 14.0806 125.559 14.1567V22.906C125.602 23.278 125.707 23.5443 125.876 23.7049C126.045 23.8655 126.32 23.9458 126.7 23.9458L127.436 23.8951C127.47 23.8951 127.491 23.9543 127.499 24.0726C127.508 24.1825 127.512 24.2628 127.512 24.3135C127.512 24.3304 127.499 24.3854 127.474 24.4784C127.457 24.5714 127.406 24.639 127.322 24.6813L123.467 26.2663C123.45 26.2747 123.408 26.2874 123.34 26.3043C123.273 26.3297 123.235 26.3424 123.226 26.3424C123.167 26.3424 123.129 26.3043 123.112 26.2282C123.104 26.1606 123.099 26.093 123.099 26.0254V24.8081C123.074 24.7742 123.032 24.7573 122.973 24.7573C122.956 24.7573 122.939 24.7573 122.922 24.7573C122.905 24.7573 122.896 24.7658 122.896 24.7827L120.868 25.7718C120.682 25.8394 120.508 25.907 120.348 25.9746C120.187 26.0338 120.026 26.093 119.866 26.1522C119.714 26.2113 119.549 26.2578 119.371 26.2916C119.194 26.3255 118.999 26.3424 118.788 26.3424C118.433 26.3424 118.04 26.3043 117.609 26.2282C117.186 26.1606 116.789 26.0507 116.417 25.8986C116.053 25.7379 115.749 25.5351 115.504 25.2899C115.259 25.0448 115.136 24.7489 115.136 24.4023V16.7435ZM133.434 13.7002C133.467 13.6833 133.501 13.6664 133.535 13.6495C133.577 13.6326 133.607 13.6241 133.624 13.6241C133.768 13.6241 133.839 13.7256 133.839 13.9285V15.9066C133.865 15.9911 133.899 16.0334 133.941 16.0334C133.983 16.0334 134.017 16.0334 134.042 16.0334C134.068 16.0249 134.101 16.008 134.144 15.9826C134.685 15.7037 135.141 15.4712 135.513 15.2852C135.894 15.0908 136.219 14.9302 136.49 14.8034C136.769 14.6681 137.014 14.5667 137.225 14.4991C137.445 14.423 137.665 14.368 137.884 14.3342C138.104 14.292 138.345 14.2666 138.607 14.2581C138.869 14.2497 139.19 14.2455 139.571 14.2455C139.985 14.2455 140.344 14.3342 140.649 14.5117C140.953 14.6893 141.207 14.926 141.41 15.2218C141.621 15.5093 141.79 15.8432 141.917 16.2236C142.052 16.5955 142.153 16.9802 142.221 17.3775C142.289 17.7663 142.335 18.1552 142.361 18.544C142.386 18.9245 142.399 19.271 142.399 19.5838C142.399 19.8797 142.39 20.1544 142.373 20.408C142.365 20.6616 142.352 20.9406 142.335 21.2449C142.327 21.5408 142.314 21.8789 142.297 22.2593C142.289 22.6397 142.284 23.1005 142.284 23.6415C142.284 23.8951 142.331 24.1064 142.424 24.2755C142.517 24.4446 142.635 24.584 142.779 24.6939C142.931 24.8038 143.096 24.8884 143.273 24.9475C143.451 24.9983 143.624 25.0405 143.793 25.0743C143.962 25.1082 144.115 25.1377 144.25 25.1631C144.394 25.18 144.503 25.2054 144.58 25.2392C144.613 25.2561 144.643 25.311 144.668 25.404C144.694 25.497 144.706 25.5646 144.706 25.6069C144.706 25.6576 144.698 25.7337 144.681 25.8352C144.664 25.9281 144.63 25.9831 144.58 26H137.504C137.453 25.9831 137.419 25.9281 137.403 25.8352C137.386 25.7337 137.377 25.6576 137.377 25.6069C137.377 25.5646 137.39 25.497 137.415 25.404C137.441 25.311 137.47 25.2561 137.504 25.2392C137.614 25.1885 137.758 25.1504 137.935 25.1251C138.121 25.0913 138.307 25.0236 138.493 24.9222C138.687 24.8207 138.861 24.6686 139.013 24.4657C139.174 24.2544 139.279 23.9458 139.33 23.54C139.347 23.4132 139.36 23.2949 139.368 23.185C139.385 23.0751 139.398 22.9652 139.406 22.8553C139.414 22.737 139.419 22.6102 139.419 22.4749C139.427 22.3397 139.431 22.1833 139.431 22.0057C139.431 21.6253 139.427 21.2196 139.419 20.7884C139.41 20.3573 139.406 19.8755 139.406 19.3429C139.406 18.9287 139.385 18.5187 139.343 18.1129C139.309 17.7072 139.216 17.3437 139.064 17.0224C138.92 16.7012 138.704 16.4391 138.417 16.2363C138.13 16.0334 137.732 15.9319 137.225 15.9319C137.048 15.9319 136.887 15.9446 136.743 15.97C136.608 15.9869 136.439 16.0334 136.236 16.1095C136.042 16.1855 135.784 16.2997 135.462 16.4518C135.141 16.604 134.71 16.8111 134.169 17.0731C134.101 17.1154 134.03 17.1661 133.954 17.2253C133.886 17.276 133.848 17.3437 133.839 17.4282V23.6415C133.839 24.0219 133.916 24.3135 134.068 24.5164C134.22 24.7108 134.397 24.8546 134.6 24.9475C134.803 25.0321 135.006 25.0913 135.209 25.1251C135.412 25.1504 135.568 25.1885 135.678 25.2392C135.712 25.2561 135.741 25.311 135.767 25.404C135.792 25.497 135.805 25.5646 135.805 25.6069C135.805 25.6576 135.796 25.7337 135.779 25.8352C135.763 25.9281 135.729 25.9831 135.678 26H129.059C129.008 25.9831 128.974 25.9281 128.958 25.8352C128.941 25.7337 128.932 25.6576 128.932 25.6069C128.932 25.5646 128.945 25.497 128.97 25.404C128.996 25.311 129.025 25.2561 129.059 25.2392C129.169 25.1885 129.325 25.1504 129.528 25.1251C129.731 25.0913 129.934 25.0321 130.137 24.9475C130.34 24.8546 130.517 24.7108 130.669 24.5164C130.822 24.3135 130.898 24.0219 130.898 23.6415V17.1999C130.898 16.9971 130.843 16.8407 130.733 16.7308C130.623 16.6124 130.483 16.5237 130.314 16.4645C130.145 16.4053 129.964 16.3588 129.769 16.325C129.575 16.2827 129.389 16.2363 129.211 16.1855C129.16 16.1686 129.118 16.1475 129.084 16.1221C129.059 16.0883 129.046 16.0249 129.046 15.9319C129.046 15.8897 129.059 15.8474 129.084 15.8051C129.11 15.7629 129.16 15.7206 129.237 15.6783L133.434 13.7002ZM150.121 13.7002C150.155 13.6833 150.188 13.6664 150.222 13.6495C150.264 13.6326 150.294 13.6241 150.311 13.6241C150.455 13.6241 150.527 13.7256 150.527 13.9285V15.9066C150.552 15.9911 150.586 16.0334 150.628 16.0334C150.67 16.0334 150.704 16.0334 150.729 16.0334C150.755 16.0249 150.789 16.008 150.831 15.9826C151.372 15.7037 151.828 15.4712 152.2 15.2852C152.581 15.0908 152.906 14.9302 153.177 14.8034C153.456 14.6681 153.701 14.5667 153.912 14.4991C154.132 14.423 154.352 14.368 154.572 14.3342C154.791 14.292 155.032 14.2666 155.294 14.2581C155.556 14.2497 155.878 14.2455 156.258 14.2455C156.672 14.2455 157.031 14.3342 157.336 14.5117C157.64 14.6893 157.894 14.926 158.097 15.2218C158.308 15.5093 158.477 15.8432 158.604 16.2236C158.739 16.5955 158.841 16.9802 158.908 17.3775C158.976 17.7663 159.022 18.1552 159.048 18.544C159.073 18.9245 159.086 19.271 159.086 19.5838C159.086 19.8797 159.077 20.1544 159.06 20.408C159.052 20.6616 159.039 20.9406 159.022 21.2449C159.014 21.5408 159.001 21.8789 158.984 22.2593C158.976 22.6397 158.972 23.1005 158.972 23.6415C158.972 23.8951 159.018 24.1064 159.111 24.2755C159.204 24.4446 159.322 24.584 159.466 24.6939C159.618 24.8038 159.783 24.8884 159.961 24.9475C160.138 24.9983 160.311 25.0405 160.48 25.0743C160.65 25.1082 160.802 25.1377 160.937 25.1631C161.081 25.18 161.191 25.2054 161.267 25.2392C161.3 25.2561 161.33 25.311 161.355 25.404C161.381 25.497 161.393 25.5646 161.393 25.6069C161.393 25.6576 161.385 25.7337 161.368 25.8352C161.351 25.9281 161.317 25.9831 161.267 26H154.191C154.14 25.9831 154.107 25.9281 154.09 25.8352C154.073 25.7337 154.064 25.6576 154.064 25.6069C154.064 25.5646 154.077 25.497 154.102 25.404C154.128 25.311 154.157 25.2561 154.191 25.2392C154.301 25.1885 154.445 25.1504 154.622 25.1251C154.808 25.0913 154.994 25.0236 155.18 24.9222C155.375 24.8207 155.548 24.6686 155.7 24.4657C155.861 24.2544 155.966 23.9458 156.017 23.54C156.034 23.4132 156.047 23.2949 156.055 23.185C156.072 23.0751 156.085 22.9652 156.093 22.8553C156.102 22.737 156.106 22.6102 156.106 22.4749C156.114 22.3397 156.119 22.1833 156.119 22.0057C156.119 21.6253 156.114 21.2196 156.106 20.7884C156.097 20.3573 156.093 19.8755 156.093 19.3429C156.093 18.9287 156.072 18.5187 156.03 18.1129C155.996 17.7072 155.903 17.3437 155.751 17.0224C155.607 16.7012 155.392 16.4391 155.104 16.2363C154.817 16.0334 154.419 15.9319 153.912 15.9319C153.735 15.9319 153.574 15.9446 153.43 15.97C153.295 15.9869 153.126 16.0334 152.923 16.1095C152.729 16.1855 152.471 16.2997 152.15 16.4518C151.828 16.604 151.397 16.8111 150.856 17.0731C150.789 17.1154 150.717 17.1661 150.641 17.2253C150.573 17.276 150.535 17.3437 150.527 17.4282V23.6415C150.527 24.0219 150.603 24.3135 150.755 24.5164C150.907 24.7108 151.084 24.8546 151.287 24.9475C151.49 25.0321 151.693 25.0913 151.896 25.1251C152.099 25.1504 152.255 25.1885 152.365 25.2392C152.399 25.2561 152.429 25.311 152.454 25.404C152.479 25.497 152.492 25.5646 152.492 25.6069C152.492 25.6576 152.484 25.7337 152.467 25.8352C152.45 25.9281 152.416 25.9831 152.365 26H145.746C145.695 25.9831 145.662 25.9281 145.645 25.8352C145.628 25.7337 145.619 25.6576 145.619 25.6069C145.619 25.5646 145.632 25.497 145.657 25.404C145.683 25.311 145.712 25.2561 145.746 25.2392C145.856 25.1885 146.012 25.1504 146.215 25.1251C146.418 25.0913 146.621 25.0321 146.824 24.9475C147.027 24.8546 147.204 24.7108 147.357 24.5164C147.509 24.3135 147.585 24.0219 147.585 23.6415V17.1999C147.585 16.9971 147.53 16.8407 147.42 16.7308C147.31 16.6124 147.171 16.5237 147.001 16.4645C146.832 16.4053 146.651 16.3588 146.456 16.325C146.262 16.2827 146.076 16.2363 145.898 16.1855C145.848 16.1686 145.805 16.1475 145.771 16.1221C145.746 16.0883 145.733 16.0249 145.733 15.9319C145.733 15.8897 145.746 15.8474 145.771 15.8051C145.797 15.7629 145.848 15.7206 145.924 15.6783L150.121 13.7002ZM162.535 26C162.484 25.9831 162.45 25.9281 162.433 25.8352C162.416 25.7337 162.408 25.6576 162.408 25.6069C162.408 25.5646 162.421 25.497 162.446 25.404C162.471 25.311 162.501 25.2561 162.535 25.2392C162.645 25.1885 162.801 25.1504 163.004 25.1251C163.207 25.0913 163.41 25.0321 163.613 24.9475C163.815 24.8546 163.993 24.7151 164.145 24.5291C164.297 24.3347 164.373 24.0515 164.373 23.6795V17.593C164.373 17.3902 164.318 17.2338 164.208 17.1239C164.099 17.0055 163.959 16.9168 163.79 16.8576C163.621 16.7984 163.439 16.7519 163.245 16.7181C163.05 16.6758 162.864 16.6293 162.687 16.5786C162.636 16.5617 162.594 16.5406 162.56 16.5152C162.535 16.4814 162.522 16.418 162.522 16.325C162.522 16.2827 162.535 16.2405 162.56 16.1982C162.585 16.1559 162.636 16.1137 162.712 16.0714L166.909 14.0933C166.943 14.0764 166.977 14.0595 167.011 14.0426C167.053 14.0257 167.083 14.0172 167.1 14.0172C167.243 14.0172 167.315 14.1187 167.315 14.3215V23.6795C167.315 24.0515 167.391 24.3347 167.543 24.5291C167.696 24.7151 167.873 24.8546 168.076 24.9475C168.279 25.0321 168.482 25.0913 168.685 25.1251C168.887 25.1504 169.044 25.1885 169.154 25.2392C169.188 25.2561 169.217 25.311 169.243 25.404C169.268 25.497 169.281 25.5646 169.281 25.6069C169.281 25.6576 169.272 25.7337 169.255 25.8352C169.238 25.9281 169.204 25.9831 169.154 26H162.535ZM163.828 9.42699C163.828 8.88597 163.989 8.45484 164.31 8.13361C164.631 7.81238 165.062 7.65176 165.603 7.65176C166.144 7.65176 166.575 7.81238 166.897 8.13361C167.218 8.45484 167.379 8.88597 167.379 9.42699C167.379 9.96801 167.218 10.3991 166.897 10.7204C166.575 11.0331 166.144 11.1895 165.603 11.1895C165.062 11.1895 164.631 11.0331 164.31 10.7204C163.989 10.3991 163.828 9.96801 163.828 9.42699ZM175.075 13.7002C175.109 13.6833 175.143 13.6664 175.177 13.6495C175.219 13.6326 175.249 13.6241 175.266 13.6241C175.409 13.6241 175.481 13.7256 175.481 13.9285V15.9066C175.507 15.9911 175.54 16.0334 175.583 16.0334C175.625 16.0334 175.659 16.0334 175.684 16.0334C175.709 16.0249 175.743 16.008 175.785 15.9826C176.327 15.7037 176.783 15.4712 177.155 15.2852C177.535 15.0908 177.861 14.9302 178.131 14.8034C178.41 14.6681 178.655 14.5667 178.867 14.4991C179.087 14.423 179.306 14.368 179.526 14.3342C179.746 14.292 179.987 14.2666 180.249 14.2581C180.511 14.2497 180.832 14.2455 181.213 14.2455C181.627 14.2455 181.986 14.3342 182.29 14.5117C182.595 14.6893 182.848 14.926 183.051 15.2218C183.263 15.5093 183.432 15.8432 183.558 16.2236C183.694 16.5955 183.795 16.9802 183.863 17.3775C183.93 17.7663 183.977 18.1552 184.002 18.544C184.028 18.9245 184.04 19.271 184.04 19.5838C184.04 19.8797 184.032 20.1544 184.015 20.408C184.006 20.6616 183.994 20.9406 183.977 21.2449C183.968 21.5408 183.956 21.8789 183.939 22.2593C183.93 22.6397 183.926 23.1005 183.926 23.6415C183.926 23.8951 183.973 24.1064 184.066 24.2755C184.159 24.4446 184.277 24.584 184.421 24.6939C184.573 24.8038 184.738 24.8884 184.915 24.9475C185.093 24.9983 185.266 25.0405 185.435 25.0743C185.604 25.1082 185.756 25.1377 185.892 25.1631C186.035 25.18 186.145 25.2054 186.221 25.2392C186.255 25.2561 186.285 25.311 186.31 25.404C186.335 25.497 186.348 25.5646 186.348 25.6069C186.348 25.6576 186.34 25.7337 186.323 25.8352C186.306 25.9281 186.272 25.9831 186.221 26H179.146C179.095 25.9831 179.061 25.9281 179.044 25.8352C179.027 25.7337 179.019 25.6576 179.019 25.6069C179.019 25.5646 179.032 25.497 179.057 25.404C179.082 25.311 179.112 25.2561 179.146 25.2392C179.256 25.1885 179.399 25.1504 179.577 25.1251C179.763 25.0913 179.949 25.0236 180.135 24.9222C180.329 24.8207 180.503 24.6686 180.655 24.4657C180.815 24.2544 180.921 23.9458 180.972 23.54C180.989 23.4132 181.001 23.2949 181.01 23.185C181.027 23.0751 181.039 22.9652 181.048 22.8553C181.056 22.737 181.06 22.6102 181.06 22.4749C181.069 22.3397 181.073 22.1833 181.073 22.0057C181.073 21.6253 181.069 21.2196 181.06 20.7884C181.052 20.3573 181.048 19.8755 181.048 19.3429C181.048 18.9287 181.027 18.5187 180.984 18.1129C180.951 17.7072 180.858 17.3437 180.705 17.0224C180.562 16.7012 180.346 16.4391 180.059 16.2363C179.771 16.0334 179.374 15.9319 178.867 15.9319C178.689 15.9319 178.529 15.9446 178.385 15.97C178.25 15.9869 178.081 16.0334 177.878 16.1095C177.683 16.1855 177.425 16.2997 177.104 16.4518C176.783 16.604 176.352 16.8111 175.811 17.0731C175.743 17.1154 175.671 17.1661 175.595 17.2253C175.528 17.276 175.49 17.3437 175.481 17.4282V23.6415C175.481 24.0219 175.557 24.3135 175.709 24.5164C175.862 24.7108 176.039 24.8546 176.242 24.9475C176.445 25.0321 176.648 25.0913 176.851 25.1251C177.054 25.1504 177.21 25.1885 177.32 25.2392C177.354 25.2561 177.383 25.311 177.409 25.404C177.434 25.497 177.447 25.5646 177.447 25.6069C177.447 25.6576 177.438 25.7337 177.421 25.8352C177.404 25.9281 177.371 25.9831 177.32 26H170.701C170.65 25.9831 170.616 25.9281 170.599 25.8352C170.582 25.7337 170.574 25.6576 170.574 25.6069C170.574 25.5646 170.587 25.497 170.612 25.404C170.637 25.311 170.667 25.2561 170.701 25.2392C170.811 25.1885 170.967 25.1504 171.17 25.1251C171.373 25.0913 171.576 25.0321 171.779 24.9475C171.981 24.8546 172.159 24.7108 172.311 24.5164C172.463 24.3135 172.539 24.0219 172.539 23.6415V17.1999C172.539 16.9971 172.484 16.8407 172.375 16.7308C172.265 16.6124 172.125 16.5237 171.956 16.4645C171.787 16.4053 171.605 16.3588 171.411 16.325C171.216 16.2827 171.03 16.2363 170.853 16.1855C170.802 16.1686 170.76 16.1475 170.726 16.1221C170.701 16.0883 170.688 16.0249 170.688 15.9319C170.688 15.8897 170.701 15.8474 170.726 15.8051C170.751 15.7629 170.802 15.7206 170.878 15.6783L175.075 13.7002ZM193.982 14.0426C194.793 14.0426 195.52 14.1482 196.163 14.3596C196.805 14.5709 197.342 14.8795 197.773 15.2852C198.306 15.2683 198.813 15.2387 199.295 15.1965C199.785 15.1542 200.309 15.1331 200.867 15.1331C201.061 15.1331 201.218 15.1415 201.336 15.1584C201.463 15.1669 201.56 15.188 201.628 15.2218C201.695 15.2472 201.746 15.2852 201.78 15.336C201.814 15.3782 201.839 15.4332 201.856 15.5008C201.915 15.7121 201.957 15.9023 201.983 16.0714C202.008 16.2405 202.021 16.4138 202.021 16.5913C202.021 16.735 201.966 16.8322 201.856 16.8829C201.755 16.9252 201.543 16.9463 201.222 16.9463H198.901C199.02 17.1408 199.134 17.369 199.244 17.6311C199.362 17.8931 199.421 18.227 199.421 18.6328C199.421 19.2161 199.29 19.7867 199.028 20.3446C198.766 20.8941 198.382 21.3802 197.874 21.8029C197.367 22.2255 196.746 22.5679 196.01 22.83C195.283 23.0836 194.451 23.2104 193.512 23.2104C193.225 23.2104 192.993 23.2019 192.815 23.185C192.637 23.1596 192.451 23.1216 192.257 23.0709C192.139 23.1723 191.991 23.2653 191.813 23.3498C191.636 23.4259 191.462 23.5147 191.293 23.6161C191.124 23.7176 190.981 23.8359 190.862 23.9712C190.744 24.098 190.685 24.2628 190.685 24.4657C190.685 24.8207 190.993 25.0786 191.61 25.2392C192.236 25.3914 193.242 25.4717 194.628 25.4801C195.685 25.4886 196.644 25.5182 197.507 25.5689C198.377 25.6196 199.121 25.7548 199.738 25.9746C200.355 26.186 200.833 26.5157 201.171 26.9637C201.509 27.4202 201.678 28.0542 201.678 28.8657C201.678 29.2039 201.598 29.5674 201.438 29.9562C201.277 30.3535 201.032 30.7466 200.702 31.1355C200.381 31.5243 199.975 31.8963 199.485 32.2513C198.994 32.6148 198.415 32.9318 197.748 33.2023C197.088 33.4813 196.34 33.7011 195.503 33.8617C194.666 34.0308 193.745 34.1153 192.739 34.1153C191.851 34.1153 191.078 34.0266 190.418 33.849C189.759 33.68 189.214 33.4517 188.783 33.1643C188.352 32.8769 188.026 32.5472 187.806 32.1753C187.595 31.8118 187.489 31.4356 187.489 31.0467C187.489 30.7508 187.548 30.4846 187.667 30.2479C187.785 30.0112 187.942 29.7914 188.136 29.5885C188.33 29.3941 188.546 29.2081 188.783 29.0306C189.028 28.8615 189.273 28.684 189.518 28.498C189.763 28.3205 190 28.1303 190.228 27.9274C190.456 27.733 190.655 27.5089 190.824 27.2553C190.376 27.1962 189.966 27.0905 189.594 26.9383C189.231 26.7862 188.918 26.6086 188.656 26.4058C188.402 26.2029 188.204 25.9831 188.06 25.7464C187.916 25.5012 187.844 25.2561 187.844 25.0109C187.844 24.7827 187.904 24.584 188.022 24.415C188.149 24.2459 188.309 24.098 188.504 23.9712C188.707 23.8359 188.935 23.7133 189.188 23.6034C189.442 23.4935 189.704 23.3879 189.975 23.2864C190.144 23.2188 190.321 23.147 190.507 23.0709C190.702 22.9863 190.9 22.8722 191.103 22.7285C190.097 22.3227 189.336 21.7944 188.821 21.1435C188.305 20.4926 188.047 19.7402 188.047 18.8864C188.047 18.2101 188.199 17.5761 188.504 16.9844C188.808 16.3926 189.226 15.8812 189.759 15.4501C190.292 15.0105 190.917 14.6681 191.636 14.423C192.363 14.1694 193.145 14.0426 193.982 14.0426ZM190.38 30.0069C190.38 30.362 190.486 30.717 190.697 31.0721C190.917 31.4356 191.209 31.761 191.572 32.0485C191.944 32.3359 192.38 32.5683 192.878 32.7459C193.377 32.9318 193.91 33.0248 194.476 33.0248C195.068 33.0248 195.643 32.9234 196.201 32.7205C196.759 32.5261 197.253 32.264 197.684 31.9343C198.115 31.6046 198.462 31.22 198.724 30.7804C198.986 30.3493 199.117 29.897 199.117 29.4237C199.117 29.1447 199.071 28.8995 198.978 28.6882C198.893 28.4769 198.775 28.2993 198.623 28.1556C198.47 28.0119 198.293 27.8978 198.09 27.8133C197.887 27.7287 197.676 27.678 197.456 27.6611C197.278 27.6442 196.983 27.6273 196.568 27.6104C196.154 27.6019 195.689 27.5893 195.174 27.5723C194.861 27.5639 194.552 27.5554 194.248 27.547C193.944 27.547 193.66 27.5428 193.398 27.5343C193.145 27.5258 192.912 27.5174 192.701 27.5089C192.498 27.5005 192.337 27.4878 192.219 27.4709C192.058 27.6569 191.872 27.8302 191.661 27.9908C191.45 28.1599 191.247 28.3374 191.052 28.5234C190.866 28.7178 190.706 28.9334 190.571 29.17C190.444 29.4067 190.38 29.6857 190.38 30.0069ZM196.378 18.9118C196.378 18.2609 196.31 17.6818 196.175 17.1746C196.04 16.6589 195.846 16.2278 195.592 15.8812C195.347 15.5262 195.055 15.2599 194.717 15.0824C194.379 14.8964 194.007 14.8034 193.601 14.8034C193.356 14.8034 193.086 14.8541 192.79 14.9556C192.502 15.0485 192.232 15.2261 191.978 15.4881C191.724 15.7417 191.513 16.0925 191.344 16.5406C191.175 16.9886 191.09 17.5634 191.09 18.2651C191.09 18.7131 191.141 19.1823 191.243 19.6726C191.344 20.1629 191.505 20.6151 191.724 21.0294C191.953 21.4436 192.244 21.7859 192.599 22.0565C192.954 22.3185 193.386 22.4495 193.893 22.4495C194.273 22.4495 194.616 22.365 194.92 22.1959C195.224 22.0184 195.482 21.7775 195.693 21.4732C195.913 21.1604 196.082 20.7884 196.201 20.3573C196.319 19.9177 196.378 19.4359 196.378 18.9118ZM210.821 25.6576C210.711 25.6576 210.643 25.5689 210.618 25.3914C210.525 24.5967 210.453 23.9796 210.402 23.54C210.352 23.1005 210.314 22.7708 210.288 22.551C210.271 22.3312 210.259 22.1917 210.25 22.1325C210.25 22.0649 210.25 22.0184 210.25 21.9931C210.25 21.9001 210.293 21.7986 210.377 21.6887C210.462 21.5788 210.563 21.5239 210.681 21.5239C210.766 21.5239 210.855 21.5746 210.948 21.6761C211.049 21.7775 211.142 21.8958 211.227 22.0311C211.32 22.1664 211.396 22.3016 211.455 22.4369C211.523 22.5721 211.565 22.6693 211.582 22.7285C211.801 23.1935 212.038 23.5865 212.292 23.9078C212.554 24.2205 212.85 24.4742 213.179 24.6686C213.509 24.8546 213.881 24.9898 214.295 25.0743C214.709 25.1589 215.183 25.2011 215.715 25.2011C216.62 25.2011 217.322 24.9856 217.82 24.5545C218.328 24.1233 218.581 23.4301 218.581 22.4749C218.581 21.9254 218.459 21.4267 218.213 20.9786C217.977 20.5306 217.664 20.1164 217.275 19.736C216.886 19.3471 216.442 18.9794 215.944 18.6328C215.445 18.2862 214.933 17.9354 214.409 17.5804C213.885 17.2253 213.374 16.8576 212.875 16.4772C212.376 16.0883 211.932 15.6614 211.544 15.1965C211.155 14.7315 210.838 14.2159 210.593 13.6495C210.356 13.0831 210.238 12.4449 210.238 11.7348C210.238 11.3037 210.314 10.9021 210.466 10.5302C210.626 10.1582 210.838 9.82008 211.1 9.51575C211.362 9.21143 211.666 8.94092 212.013 8.70422C212.368 8.45907 212.744 8.25619 213.141 8.09557C213.539 7.9265 213.94 7.7997 214.346 7.71517C214.76 7.63063 215.162 7.58836 215.551 7.58836C215.863 7.58836 216.176 7.61795 216.489 7.67712C216.81 7.72785 217.123 7.79125 217.427 7.86733C217.74 7.94341 218.053 8.02794 218.366 8.12093C218.678 8.20547 218.987 8.28577 219.291 8.36185L220.128 8.28577C220.204 8.28577 220.251 8.31959 220.268 8.38722C220.293 8.44639 220.31 8.50134 220.318 8.55206L220.686 11.5319C220.686 11.5742 220.631 11.6038 220.521 11.6207C220.411 11.6376 220.327 11.646 220.268 11.646C220.217 11.646 220.141 11.6418 220.039 11.6333C219.938 11.6164 219.879 11.5995 219.862 11.5826C219.836 11.5573 219.803 11.5065 219.76 11.4305C219.727 11.3459 219.689 11.2572 219.646 11.1642C219.604 11.0627 219.558 10.9613 219.507 10.8599C219.465 10.7584 219.418 10.6696 219.367 10.5936C218.962 9.96801 218.442 9.50307 217.808 9.19875C217.174 8.88597 216.476 8.72958 215.715 8.72958C215.386 8.72958 215.077 8.76762 214.79 8.8437C214.502 8.91978 214.253 9.04236 214.042 9.21143C213.83 9.37204 213.661 9.57915 213.534 9.83276C213.416 10.0864 213.357 10.3907 213.357 10.7457C213.357 11.2614 213.475 11.7306 213.712 12.1532C213.957 12.5675 214.274 12.9605 214.663 13.3325C215.06 13.696 215.508 14.051 216.007 14.3976C216.514 14.7442 217.026 15.0993 217.541 15.4628C218.065 15.8178 218.577 16.1982 219.076 16.604C219.583 17.0097 220.031 17.4578 220.42 17.9481C220.817 18.4384 221.134 18.9836 221.371 19.5838C221.616 20.184 221.739 20.8603 221.739 21.6127C221.739 22.1114 221.65 22.5763 221.472 23.0075C221.303 23.4386 221.071 23.8317 220.775 24.1867C220.479 24.5333 220.132 24.8419 219.735 25.1124C219.338 25.3829 218.911 25.6111 218.454 25.7971C218.006 25.9746 217.541 26.1099 217.06 26.2029C216.586 26.2959 216.121 26.3424 215.665 26.3424C215.09 26.3424 214.587 26.3001 214.156 26.2156C213.733 26.131 213.365 26.038 213.053 25.9366C212.748 25.8267 212.49 25.7295 212.279 25.645C212.068 25.5604 211.89 25.5182 211.747 25.5182C211.696 25.5182 211.658 25.5224 211.632 25.5308L210.821 25.6576ZM224.807 16.2236H223.856C223.738 16.2236 223.645 16.194 223.577 16.1348C223.51 16.0756 223.471 16.0122 223.463 15.9446C223.463 15.9023 223.471 15.8558 223.488 15.8051C223.505 15.7544 223.526 15.7206 223.552 15.7037C223.721 15.5938 223.903 15.467 224.097 15.3233C224.3 15.1711 224.499 15.0147 224.693 14.8541C224.887 14.6935 225.078 14.5329 225.264 14.3723C225.45 14.2116 225.614 14.0637 225.758 13.9285C225.843 13.8355 225.957 13.696 226.1 13.51C226.253 13.324 226.422 13.1423 226.608 12.9648C226.802 12.7788 227.009 12.6182 227.229 12.4829C227.449 12.3392 227.673 12.2674 227.901 12.2674C227.952 12.2674 228.011 12.2843 228.079 12.3181C228.146 12.3519 228.18 12.3942 228.18 12.4449C228.18 12.5041 228.163 12.597 228.129 12.7238C228.104 12.8422 228.07 12.9774 228.028 13.1296C227.986 13.2818 227.939 13.4424 227.888 13.6115C227.838 13.7805 227.791 13.9454 227.749 14.106C227.749 14.1736 227.757 14.2286 227.774 14.2708C227.8 14.3131 227.859 14.3385 227.952 14.3469H231.185C231.321 14.3469 231.413 14.3723 231.464 14.423C231.515 14.4653 231.553 14.5244 231.578 14.6005C231.595 14.6428 231.612 14.7315 231.629 14.8668C231.646 14.9936 231.663 15.1373 231.68 15.2979C231.697 15.4501 231.709 15.6065 231.718 15.7671C231.735 15.9192 231.743 16.0461 231.743 16.1475C231.743 16.1982 231.709 16.2236 231.642 16.2236H227.825C227.783 16.2236 227.757 16.232 227.749 16.2489C227.749 16.2658 227.749 16.2954 227.749 16.3377V22.6397C227.749 22.9103 227.783 23.147 227.85 23.3498C227.918 23.5527 228.003 23.7218 228.104 23.857C228.214 23.9923 228.336 24.0937 228.472 24.1614C228.607 24.229 228.742 24.2628 228.877 24.2628C229.266 24.2628 229.583 24.2079 229.828 24.098C230.074 23.9796 230.285 23.8528 230.462 23.7176C230.64 23.5823 230.796 23.4597 230.932 23.3498C231.067 23.2315 231.219 23.1723 231.388 23.1723C231.506 23.1723 231.574 23.2188 231.591 23.3118C231.616 23.4048 231.629 23.4766 231.629 23.5274C231.629 23.6373 231.612 23.726 231.578 23.7936C231.553 23.8528 231.532 23.8993 231.515 23.9331C231.506 23.95 231.46 24.0219 231.375 24.1487C231.291 24.2755 231.177 24.4277 231.033 24.6052C230.889 24.7827 230.712 24.9729 230.501 25.1758C230.298 25.3787 230.069 25.5689 229.816 25.7464C229.562 25.9155 229.283 26.0549 228.979 26.1648C228.683 26.2832 228.37 26.3424 228.041 26.3424C227.584 26.3424 227.157 26.2578 226.76 26.0888C226.363 25.9197 226.02 25.6957 225.733 25.4167C225.445 25.1293 225.217 24.8038 225.048 24.4403C224.887 24.0768 224.807 23.7007 224.807 23.3118V16.2236ZM234.152 16.7435C234.127 16.4983 234.013 16.2912 233.81 16.1221C233.616 15.9446 233.404 15.8305 233.176 15.7798C233.117 15.7629 233.049 15.7544 232.973 15.7544C232.906 15.746 232.842 15.7375 232.783 15.729C232.724 15.7121 232.673 15.691 232.631 15.6656C232.597 15.6318 232.58 15.5769 232.58 15.5008C232.58 15.4332 232.589 15.374 232.605 15.3233C232.631 15.2726 232.69 15.2345 232.783 15.2092L236.65 14.0933C236.701 14.0764 236.752 14.0637 236.803 14.0553C236.862 14.0468 236.917 14.0426 236.967 14.0426C237.052 14.0426 237.094 14.1144 237.094 14.2581V22.8173C237.094 23.1047 237.158 23.3667 237.284 23.6034C237.42 23.8317 237.593 24.0261 237.804 24.1867C238.016 24.3473 238.257 24.4699 238.527 24.5545C238.798 24.639 239.077 24.6813 239.364 24.6813C239.567 24.6813 239.778 24.6474 239.998 24.5798C240.218 24.5122 240.429 24.4277 240.632 24.3262C240.835 24.2163 241.025 24.0937 241.203 23.9585C241.38 23.8148 241.524 23.6668 241.634 23.5147V16.7308C241.608 16.4856 241.494 16.2785 241.291 16.1095C241.097 15.9319 240.886 15.8178 240.657 15.7671C240.598 15.7502 240.531 15.7417 240.454 15.7417C240.387 15.7333 240.323 15.7248 240.264 15.7164C240.205 15.6995 240.154 15.6783 240.112 15.653C240.078 15.6192 240.061 15.5642 240.061 15.4881C240.061 15.4205 240.07 15.3613 240.087 15.3106C240.112 15.2599 240.171 15.2218 240.264 15.1965L244.132 14.0933C244.182 14.0764 244.233 14.0637 244.284 14.0553C244.343 14.0468 244.398 14.0426 244.449 14.0426C244.533 14.0426 244.576 14.0806 244.576 14.1567V22.906C244.618 23.278 244.723 23.5443 244.893 23.7049C245.062 23.8655 245.336 23.9458 245.717 23.9458L246.452 23.8951C246.486 23.8951 246.507 23.9543 246.516 24.0726C246.524 24.1825 246.528 24.2628 246.528 24.3135C246.528 24.3304 246.516 24.3854 246.49 24.4784C246.473 24.5714 246.423 24.639 246.338 24.6813L242.483 26.2663C242.466 26.2747 242.424 26.2874 242.356 26.3043C242.289 26.3297 242.251 26.3424 242.242 26.3424C242.183 26.3424 242.145 26.3043 242.128 26.2282C242.12 26.1606 242.116 26.093 242.116 26.0254V24.8081C242.09 24.7742 242.048 24.7573 241.989 24.7573C241.972 24.7573 241.955 24.7573 241.938 24.7573C241.921 24.7573 241.913 24.7658 241.913 24.7827L239.884 25.7718C239.698 25.8394 239.525 25.907 239.364 25.9746C239.203 26.0338 239.043 26.093 238.882 26.1522C238.73 26.2113 238.565 26.2578 238.388 26.2916C238.21 26.3255 238.016 26.3424 237.804 26.3424C237.449 26.3424 237.056 26.3043 236.625 26.2282C236.202 26.1606 235.805 26.0507 235.433 25.8986C235.07 25.7379 234.765 25.5351 234.52 25.2899C234.275 25.0448 234.152 24.7489 234.152 24.4023V16.7435ZM259.462 5.21717C259.496 5.20026 259.53 5.18335 259.564 5.16645C259.606 5.14954 259.635 5.14109 259.652 5.14109C259.796 5.14109 259.868 5.24253 259.868 5.44541V23.0962C259.868 23.4682 259.961 23.7345 260.147 23.8951C260.341 24.0557 260.629 24.136 261.009 24.136L261.745 24.0853C261.778 24.0853 261.799 24.1107 261.808 24.1614C261.816 24.2036 261.821 24.2501 261.821 24.3009C261.821 24.3178 261.808 24.3431 261.783 24.3769C261.766 24.4023 261.715 24.4319 261.63 24.4657L257.294 26.2663C257.277 26.2747 257.235 26.2874 257.167 26.3043C257.099 26.3297 257.061 26.3424 257.053 26.3424C256.994 26.3424 256.956 26.3043 256.939 26.2282C256.93 26.1606 256.926 26.093 256.926 26.0254V25.1504C256.926 25.0659 256.896 25.0236 256.837 25.0236C256.812 25.0236 256.774 25.0363 256.723 25.0617C256.427 25.2307 256.148 25.3956 255.886 25.5562C255.624 25.7084 255.358 25.8436 255.087 25.962C254.825 26.0803 254.546 26.1733 254.251 26.2409C253.963 26.3086 253.642 26.3424 253.287 26.3424C252.526 26.3424 251.841 26.186 251.233 25.8732C250.624 25.5604 250.108 25.142 249.686 24.6179C249.263 24.0937 248.938 23.4935 248.709 22.8173C248.481 22.141 248.367 21.4351 248.367 20.6997C248.367 19.8121 248.54 18.9879 248.887 18.227C249.242 17.4662 249.711 16.8069 250.294 16.2489C250.886 15.691 251.571 15.2557 252.348 14.9429C253.126 14.6216 253.942 14.461 254.796 14.461C255.024 14.461 255.223 14.4822 255.392 14.5244C255.561 14.5667 255.717 14.6132 255.861 14.6639C256.005 14.7062 256.148 14.7484 256.292 14.7907C256.436 14.833 256.596 14.8541 256.774 14.8541C256.799 14.8541 256.829 14.8457 256.863 14.8288C256.905 14.8118 256.926 14.7654 256.926 14.6893V8.7169C256.926 8.51402 256.871 8.35763 256.761 8.24773C256.651 8.12938 256.512 8.04062 256.343 7.98145C256.174 7.92227 255.992 7.87578 255.798 7.84197C255.603 7.7997 255.417 7.75321 255.24 7.70248C255.189 7.68558 255.147 7.66444 255.113 7.63908C255.087 7.60527 255.075 7.54187 255.075 7.44888C255.075 7.40661 255.087 7.36435 255.113 7.32208C255.138 7.27981 255.189 7.23754 255.265 7.19528L259.462 5.21717ZM251.245 20.1291C251.245 20.7377 251.313 21.3252 251.448 21.8916C251.592 22.4495 251.807 22.9441 252.095 23.3752C252.391 23.7979 252.763 24.136 253.211 24.3896C253.659 24.6432 254.187 24.77 254.796 24.77C254.889 24.77 255.054 24.7447 255.29 24.6939C255.527 24.6432 255.764 24.5798 256 24.5037C256.246 24.4192 256.461 24.322 256.647 24.2121C256.833 24.1022 256.926 23.9838 256.926 23.857V17.555C256.926 16.9717 256.715 16.4983 256.292 16.1348C255.878 15.7713 255.282 15.5896 254.504 15.5896C253.938 15.5896 253.447 15.7248 253.033 15.9953C252.627 16.2574 252.289 16.604 252.019 17.0351C251.757 17.4662 251.562 17.9523 251.436 18.4933C251.309 19.0343 251.245 19.5796 251.245 20.1291ZM262.226 26C262.176 25.9831 262.142 25.9281 262.125 25.8352C262.108 25.7337 262.1 25.6576 262.1 25.6069C262.1 25.5646 262.112 25.497 262.138 25.404C262.163 25.311 262.193 25.2561 262.226 25.2392C262.336 25.1885 262.493 25.1504 262.696 25.1251C262.898 25.0913 263.101 25.0321 263.304 24.9475C263.507 24.8546 263.685 24.7151 263.837 24.5291C263.989 24.3347 264.065 24.0515 264.065 23.6795V17.593C264.065 17.3902 264.01 17.2338 263.9 17.1239C263.79 17.0055 263.651 16.9168 263.482 16.8576C263.313 16.7984 263.131 16.7519 262.936 16.7181C262.742 16.6758 262.556 16.6293 262.379 16.5786C262.328 16.5617 262.286 16.5406 262.252 16.5152C262.226 16.4814 262.214 16.418 262.214 16.325C262.214 16.2827 262.226 16.2405 262.252 16.1982C262.277 16.1559 262.328 16.1137 262.404 16.0714L266.601 14.0933C266.635 14.0764 266.669 14.0595 266.702 14.0426C266.745 14.0257 266.774 14.0172 266.791 14.0172C266.935 14.0172 267.007 14.1187 267.007 14.3215V23.6795C267.007 24.0515 267.083 24.3347 267.235 24.5291C267.387 24.7151 267.565 24.8546 267.768 24.9475C267.97 25.0321 268.173 25.0913 268.376 25.1251C268.579 25.1504 268.736 25.1885 268.845 25.2392C268.879 25.2561 268.909 25.311 268.934 25.404C268.96 25.497 268.972 25.5646 268.972 25.6069C268.972 25.6576 268.964 25.7337 268.947 25.8352C268.93 25.9281 268.896 25.9831 268.845 26H262.226ZM263.52 9.42699C263.52 8.88597 263.68 8.45484 264.002 8.13361C264.323 7.81238 264.754 7.65176 265.295 7.65176C265.836 7.65176 266.267 7.81238 266.588 8.13361C266.91 8.45484 267.07 8.88597 267.07 9.42699C267.07 9.96801 266.91 10.3991 266.588 10.7204C266.267 11.0331 265.836 11.1895 265.295 11.1895C264.754 11.1895 264.323 11.0331 264.002 10.7204C263.68 10.3991 263.52 9.96801 263.52 9.42699ZM270.557 20.0784C270.557 19.2837 270.731 18.5229 271.077 17.7959C271.432 17.0689 271.906 16.4265 272.497 15.8685C273.089 15.3106 273.778 14.8668 274.564 14.5371C275.35 14.2074 276.179 14.0426 277.049 14.0426C277.962 14.0426 278.829 14.199 279.649 14.5117C280.469 14.8245 281.187 15.2557 281.805 15.8051C282.43 16.3461 282.925 16.9886 283.288 17.7325C283.652 18.468 283.833 19.2668 283.833 20.1291C283.833 21.0082 283.664 21.8282 283.326 22.589C282.996 23.3414 282.536 23.9965 281.944 24.5545C281.352 25.1124 280.646 25.552 279.826 25.8732C279.015 26.186 278.127 26.3424 277.164 26.3424C276.208 26.3424 275.325 26.1817 274.513 25.8605C273.71 25.5308 273.013 25.087 272.421 24.5291C271.838 23.9627 271.381 23.2991 271.052 22.5383C270.722 21.7775 270.557 20.9575 270.557 20.0784ZM273.803 19.2795C273.803 19.736 273.837 20.2094 273.905 20.6997C273.972 21.1815 274.074 21.6549 274.209 22.1199C274.344 22.5763 274.513 23.0075 274.716 23.4132C274.928 23.819 275.177 24.1783 275.464 24.4911C275.752 24.7954 276.077 25.0363 276.441 25.2138C276.804 25.3914 277.214 25.4801 277.671 25.4801C278.17 25.4801 278.596 25.3533 278.952 25.0997C279.315 24.8376 279.611 24.4995 279.839 24.0853C280.076 23.6711 280.249 23.2061 280.359 22.6905C280.469 22.1748 280.524 21.6591 280.524 21.1435C280.524 20.7293 280.486 20.2939 280.41 19.8374C280.334 19.3725 280.22 18.916 280.067 18.468C279.915 18.0115 279.729 17.5761 279.509 17.1619C279.29 16.7477 279.032 16.3842 278.736 16.0714C278.449 15.7502 278.123 15.4966 277.76 15.3106C277.405 15.1246 277.016 15.0316 276.593 15.0316C276.12 15.0316 275.705 15.1627 275.35 15.4247C275.004 15.6783 274.716 16.0122 274.488 16.4265C274.26 16.8322 274.087 17.2887 273.968 17.7959C273.858 18.2947 273.803 18.7892 273.803 19.2795ZM287.295 25.9239C287.219 25.9239 287.151 25.9451 287.092 25.9873C287.033 26.0296 286.974 26.0761 286.915 26.1268C286.864 26.186 286.813 26.2367 286.763 26.279C286.712 26.3212 286.653 26.3424 286.585 26.3424H286.129C286.112 26.3424 286.086 26.2198 286.052 25.9746C286.019 25.7295 285.981 25.4378 285.938 25.0997C285.905 24.7531 285.875 24.3981 285.85 24.0346C285.824 23.6626 285.812 23.3541 285.812 23.1089C285.812 22.9737 285.858 22.8891 285.951 22.8553C286.052 22.813 286.158 22.7919 286.268 22.7919C286.327 22.7919 286.391 22.813 286.458 22.8553C286.534 22.8976 286.602 22.9525 286.661 23.0202C286.729 23.0793 286.788 23.1427 286.839 23.2104C286.889 23.278 286.927 23.3372 286.953 23.3879C287.096 23.7007 287.24 23.9838 287.384 24.2375C287.528 24.4911 287.692 24.7066 287.878 24.8841C288.064 25.0617 288.284 25.2011 288.538 25.3026C288.791 25.3956 289.096 25.4421 289.451 25.4421C289.721 25.4421 289.941 25.3956 290.11 25.3026C290.279 25.2096 290.41 25.087 290.503 24.9349C290.596 24.7827 290.655 24.6094 290.681 24.415C290.715 24.2205 290.731 24.0177 290.731 23.8063C290.731 23.3837 290.605 23.0286 290.351 22.7412C290.097 22.4453 289.78 22.1706 289.4 21.917C289.028 21.6634 288.618 21.4055 288.17 21.1435C287.73 20.8814 287.32 20.5771 286.94 20.2305C286.568 19.8839 286.255 19.4739 286.002 19.0005C285.748 18.5187 285.621 17.9269 285.621 17.2253C285.621 16.8195 285.748 16.4265 286.002 16.0461C286.255 15.6572 286.585 15.3148 286.991 15.019C287.397 14.7231 287.849 14.4864 288.348 14.3089C288.855 14.1313 289.358 14.0426 289.856 14.0426C290.119 14.0426 290.381 14.0679 290.643 14.1187C290.913 14.1609 291.158 14.2116 291.378 14.2708C291.606 14.33 291.797 14.3892 291.949 14.4483C292.109 14.5075 292.211 14.5498 292.253 14.5751C292.312 14.6174 292.359 14.685 292.393 14.778C292.435 14.8626 292.46 15.002 292.469 15.1965C292.486 15.3909 292.494 15.653 292.494 15.9826C292.502 16.3039 292.507 16.7266 292.507 17.2507C292.507 17.3944 292.452 17.5 292.342 17.5677C292.24 17.6268 292.139 17.6564 292.037 17.6564C291.945 17.6564 291.852 17.6395 291.759 17.6057C291.674 17.5719 291.619 17.517 291.594 17.4409C291.492 17.1788 291.378 16.9168 291.251 16.6547C291.125 16.3842 290.977 16.1433 290.808 15.9319C290.647 15.7121 290.457 15.5388 290.237 15.412C290.017 15.2768 289.764 15.2092 289.476 15.2092C289.307 15.2092 289.138 15.2303 288.969 15.2726C288.8 15.3148 288.648 15.3994 288.512 15.5262C288.377 15.6445 288.267 15.8094 288.183 16.0207C288.107 16.232 288.069 16.5025 288.069 16.8322C288.069 17.1196 288.2 17.3859 288.462 17.6311C288.732 17.8762 289.066 18.1256 289.463 18.3792C289.861 18.6244 290.292 18.8906 290.757 19.1781C291.23 19.4655 291.666 19.7952 292.063 20.1671C292.46 20.5391 292.79 20.9702 293.052 21.4605C293.322 21.9423 293.458 22.5129 293.458 23.1723C293.458 23.6626 293.331 24.1064 293.077 24.5037C292.824 24.8926 292.498 25.2223 292.101 25.4928C291.704 25.7633 291.26 25.9704 290.769 26.1141C290.288 26.2663 289.814 26.3424 289.349 26.3424C289.113 26.3424 288.876 26.3212 288.639 26.279C288.403 26.2367 288.187 26.186 287.993 26.1268C287.798 26.0761 287.637 26.0296 287.511 25.9873C287.384 25.9451 287.312 25.9239 287.295 25.9239Z" fill="#4B2F28"/>
<path d="M110.202 49.6841V48.8258H117.788V49.6841H114.472V59.2879H113.517V49.6841H110.202ZM123.535 59.2879V48.8258H129.603V49.6841H124.49V53.6226H129.282V54.4808H124.49V58.4296H129.706V59.2879H123.535ZM135.672 59.2879V48.8258H136.627V54.4604H136.719L141.828 48.8258H143.084L138.615 53.6635L143.064 59.2879H141.899L138.022 54.3276L136.627 55.8908V59.2879H135.672ZM148.499 59.2879H147.498L151.304 48.8258H152.326L156.131 59.2879H155.13L151.851 50.0672H151.779L148.499 59.2879ZM149.22 55.2778H154.41V56.136H149.22V55.2778ZM161.521 59.2879V48.8258H164.897C165.64 48.8258 166.26 48.9689 166.757 49.2549C167.257 49.5376 167.634 49.9224 167.886 50.4094C168.141 50.8964 168.269 51.4448 168.269 52.0544C168.269 52.664 168.143 53.214 167.891 53.7044C167.639 54.1914 167.264 54.5779 166.767 54.864C166.27 55.1466 165.652 55.288 164.913 55.288H162.256V54.4298H164.887C165.435 54.4298 165.89 54.3276 166.251 54.1233C166.612 53.9155 166.881 53.6329 167.058 53.2753C167.239 52.9177 167.329 52.5107 167.329 52.0544C167.329 51.598 167.239 51.191 167.058 50.8334C166.881 50.4759 166.61 50.1949 166.246 49.9906C165.885 49.7862 165.427 49.6841 164.872 49.6841H162.476V59.2879H161.521ZM182.685 54.0568C182.685 55.1466 182.491 56.0951 182.102 56.9022C181.714 57.706 181.18 58.3292 180.498 58.7719C179.821 59.2112 179.041 59.4309 178.159 59.4309C177.277 59.4309 176.495 59.2112 175.814 58.7719C175.136 58.3292 174.603 57.706 174.215 56.9022C173.83 56.0951 173.638 55.1466 173.638 54.0568C173.638 52.9671 173.83 52.0203 174.215 51.2166C174.603 50.4094 175.138 49.7862 175.819 49.3469C176.5 48.9042 177.28 48.6828 178.159 48.6828C179.041 48.6828 179.821 48.9042 180.498 49.3469C181.18 49.7862 181.714 50.4094 182.102 51.2166C182.491 52.0203 182.685 52.9671 182.685 54.0568ZM181.755 54.0568C181.755 53.1203 181.598 52.3183 181.285 51.6508C180.972 50.9799 180.544 50.4673 180.003 50.1132C179.461 49.759 178.847 49.5819 178.159 49.5819C177.474 49.5819 176.861 49.759 176.32 50.1132C175.778 50.4673 175.349 50.9782 175.032 51.6457C174.719 52.3132 174.562 53.1169 174.562 54.0568C174.562 54.9934 174.719 55.7954 175.032 56.4629C175.346 57.1304 175.773 57.643 176.315 58.0005C176.856 58.3547 177.471 58.5318 178.159 58.5318C178.847 58.5318 179.461 58.3547 180.003 58.0005C180.548 57.6464 180.977 57.1355 181.29 56.468C181.604 55.7971 181.759 54.9934 181.755 54.0568Z" fill="#4B2F28"/>
<line x1="293.742" y1="54.9083" x2="196.876" y2="54.9083" stroke="#CAB2AC"/>
</svg>
