<svg width="220" height="47" viewBox="0 0 220 47" fill="none" xmlns="http://www.w3.org/2000/svg">
<line x1="72.2388" y1="41.0274" x2="3.04878e-05" y2="41.0274" stroke="#CAB2AC" stroke-width="0.744721"/>
<path d="M1.28434 18.745C1.2025 18.745 1.15213 18.6789 1.13325 18.5467C1.064 17.955 1.01048 17.4954 0.972711 17.168C0.934939 16.8407 0.906609 16.5951 0.887723 16.4314C0.875132 16.2678 0.865688 16.1639 0.859393 16.1198C0.859393 16.0695 0.859393 16.0348 0.859393 16.0159C0.859393 15.9467 0.89087 15.8712 0.953825 15.7893C1.01678 15.7075 1.09233 15.6665 1.18046 15.6665C1.24342 15.6665 1.30952 15.7043 1.37877 15.7799C1.45432 15.8554 1.52357 15.9435 1.58652 16.0443C1.65577 16.145 1.71243 16.2457 1.7565 16.3465C1.80686 16.4472 1.83834 16.5196 1.85093 16.5637C2.01461 16.9099 2.19089 17.2026 2.37975 17.4419C2.57491 17.6748 2.79525 17.8637 3.04077 18.0085C3.2863 18.147 3.5633 18.2477 3.87178 18.3106C4.18025 18.3736 4.5328 18.4051 4.92942 18.4051C5.60303 18.4051 6.12556 18.2445 6.49699 17.9235C6.87472 17.6024 7.06358 17.0862 7.06358 16.3748C7.06358 15.9656 6.9723 15.5941 6.78973 15.2605C6.61345 14.9268 6.38052 14.6184 6.09093 14.3351C5.80134 14.0455 5.47083 13.7716 5.09939 13.5135C4.72796 13.2554 4.34708 12.9941 3.95677 12.7297C3.56645 12.4653 3.18557 12.1914 2.81414 11.9082C2.4427 11.6186 2.11219 11.3006 1.8226 10.9544C1.53301 10.6081 1.29693 10.2241 1.11436 9.80232C0.938086 9.38052 0.84995 8.90521 0.84995 8.37639C0.84995 8.05532 0.906609 7.75629 1.01993 7.47929C1.13954 7.20229 1.29693 6.95047 1.49209 6.72383C1.68725 6.49719 1.91388 6.29574 2.172 6.11946C2.43641 5.9369 2.71656 5.7858 3.01244 5.66619C3.30833 5.54028 3.60737 5.44585 3.90955 5.38289C4.21803 5.31994 4.51706 5.28846 4.80665 5.28846C5.03959 5.28846 5.27252 5.3105 5.50545 5.35456C5.74468 5.39234 5.97761 5.43955 6.20425 5.49621C6.43718 5.55287 6.67011 5.61583 6.90305 5.68508C7.13598 5.74803 7.36576 5.80784 7.5924 5.8645L8.21565 5.80784C8.27231 5.80784 8.30694 5.83302 8.31953 5.88338C8.33841 5.92745 8.351 5.96837 8.3573 6.00615L8.63115 8.2253C8.63115 8.25678 8.59023 8.27881 8.50839 8.2914C8.42655 8.30399 8.3636 8.31029 8.31953 8.31029C8.28175 8.31029 8.22509 8.30714 8.14955 8.30085C8.074 8.28825 8.02994 8.27566 8.01734 8.26307C7.99846 8.24419 7.97328 8.20641 7.9418 8.14975C7.91662 8.0868 7.88829 8.0207 7.85681 7.95145C7.82533 7.8759 7.79071 7.80036 7.75293 7.72481C7.72146 7.64926 7.68683 7.58316 7.64906 7.5265C7.34688 7.06064 6.95971 6.71439 6.48754 6.48775C6.01538 6.25482 5.49601 6.13835 4.92942 6.13835C4.68389 6.13835 4.45411 6.16668 4.24006 6.22334C4.02602 6.28 3.8403 6.37128 3.68291 6.49719C3.52553 6.61681 3.39962 6.77105 3.30518 6.95991C3.21705 7.14877 3.17298 7.37541 3.17298 7.63982C3.17298 8.02384 3.26112 8.37324 3.43739 8.68802C3.61996 8.9965 3.85604 9.28923 4.14563 9.56624C4.44152 9.83694 4.77518 10.1014 5.14661 10.3595C5.52434 10.6176 5.90521 10.882 6.28924 11.1527C6.67956 11.4171 7.06043 11.7004 7.43187 12.0026C7.80959 12.3048 8.14325 12.6384 8.43285 13.0036C8.72873 13.3687 8.96481 13.7748 9.14109 14.2217C9.32365 14.6687 9.41494 15.1724 9.41494 15.7327C9.41494 16.1041 9.34884 16.4503 9.21663 16.7714C9.09072 17.0925 8.9176 17.3852 8.69726 17.6496C8.47691 17.9077 8.2188 18.1375 7.92291 18.339C7.62703 18.5404 7.3091 18.7104 6.96915 18.8489C6.63549 18.9811 6.28924 19.0818 5.9304 19.1511C5.57785 19.2203 5.2316 19.255 4.89164 19.255C4.46355 19.255 4.08897 19.2235 3.7679 19.1605C3.45313 19.0976 3.17927 19.0283 2.94634 18.9528C2.7197 18.8709 2.52769 18.7985 2.37031 18.7356C2.21292 18.6726 2.08071 18.6412 1.97369 18.6412C1.93592 18.6412 1.90759 18.6443 1.8887 18.6506L1.28434 18.745ZM10.9353 19C10.8975 18.9874 10.8723 18.9465 10.8597 18.8772C10.8472 18.8017 10.8409 18.745 10.8409 18.7073C10.8409 18.6758 10.8503 18.6254 10.8692 18.5562C10.8881 18.4869 10.9101 18.446 10.9353 18.4334C11.0171 18.3956 11.1336 18.3673 11.2847 18.3484C11.4358 18.3232 11.5869 18.2792 11.738 18.2162C11.8891 18.147 12.0213 18.0431 12.1346 17.9046C12.2479 17.7598 12.3046 17.5489 12.3046 17.2719V12.7392C12.3046 12.5881 12.2636 12.4716 12.1818 12.3898C12.1 12.3016 11.9961 12.2355 11.8702 12.1914C11.7443 12.1474 11.6089 12.1128 11.4641 12.0876C11.3193 12.0561 11.1808 12.0215 11.0486 11.9837C11.0108 11.9711 10.9794 11.9554 10.9542 11.9365C10.9353 11.9113 10.9259 11.8641 10.9259 11.7948C10.9259 11.7634 10.9353 11.7319 10.9542 11.7004C10.9731 11.6689 11.0108 11.6374 11.0675 11.606L14.1932 10.1328C14.2184 10.1202 14.2436 10.1076 14.2687 10.0951C14.3002 10.0825 14.3223 10.0762 14.3349 10.0762C14.4419 10.0762 14.4954 10.1517 14.4954 10.3028V17.2719C14.4954 17.5489 14.552 17.7598 14.6654 17.9046C14.7787 18.0431 14.9109 18.147 15.062 18.2162C15.2131 18.2792 15.3642 18.3232 15.5153 18.3484C15.6663 18.3673 15.7828 18.3956 15.8646 18.4334C15.8898 18.446 15.9119 18.4869 15.9308 18.5562C15.9496 18.6254 15.9591 18.6758 15.9591 18.7073C15.9591 18.745 15.9528 18.8017 15.9402 18.8772C15.9276 18.9465 15.9024 18.9874 15.8646 19H10.9353ZM11.8985 6.65773C11.8985 6.25482 12.0181 5.93375 12.2573 5.69452C12.4966 5.45529 12.8176 5.33568 13.2206 5.33568C13.6235 5.33568 13.9445 5.45529 14.1838 5.69452C14.423 5.93375 14.5426 6.25482 14.5426 6.65773C14.5426 7.06064 14.423 7.38171 14.1838 7.62093C13.9445 7.85387 13.6235 7.97033 13.2206 7.97033C12.8176 7.97033 12.4966 7.85387 12.2573 7.62093C12.0181 7.38171 11.8985 7.06064 11.8985 6.65773ZM20.1802 9.84009C20.2054 9.8275 20.2306 9.81491 20.2557 9.80232C20.2872 9.78972 20.3093 9.78343 20.3218 9.78343C20.4289 9.78343 20.4824 9.85898 20.4824 10.0101V11.5776C20.4887 11.6154 20.5139 11.6343 20.5579 11.6343C20.5957 11.6343 20.6398 11.6217 20.6901 11.5965C20.9734 11.4454 21.2504 11.2912 21.5211 11.1338C21.7918 10.9701 22.0625 10.8222 22.3332 10.69C22.6102 10.5578 22.8872 10.4507 23.1642 10.3689C23.4412 10.2871 23.7214 10.2461 24.0047 10.2461C24.288 10.2461 24.5272 10.2808 24.7224 10.35C24.9175 10.4193 25.0812 10.5106 25.2134 10.6239C25.3456 10.7309 25.4527 10.8505 25.5345 10.9827C25.6226 11.1086 25.6982 11.2314 25.7611 11.351C25.7674 11.3699 25.78 11.3951 25.7989 11.4265C25.8178 11.4517 25.8398 11.4801 25.865 11.5115C25.8965 11.543 25.9248 11.5713 25.95 11.5965C25.9815 11.6154 26.013 11.6249 26.0444 11.6249C26.1326 11.6186 26.2238 11.5902 26.3183 11.5399C26.9289 11.2314 27.4263 10.9922 27.8103 10.8222C28.2006 10.6459 28.5248 10.5169 28.783 10.435C29.0474 10.3469 29.2677 10.2934 29.444 10.2745C29.6266 10.2556 29.8123 10.2461 30.0011 10.2461C30.3726 10.2461 30.6905 10.3122 30.9549 10.4445C31.2256 10.5767 31.4522 10.7529 31.6348 10.9733C31.8174 11.1873 31.9622 11.436 32.0692 11.7193C32.1825 11.9963 32.2675 12.2827 32.3242 12.5786C32.3808 12.8682 32.4186 13.1578 32.4375 13.4474C32.4564 13.7307 32.4658 13.9888 32.4658 14.2217C32.4658 14.4421 32.4595 14.6467 32.4469 14.8355C32.4406 15.0244 32.4312 15.2322 32.4186 15.4588C32.4123 15.6791 32.4029 15.931 32.3903 16.2143C32.384 16.4975 32.3808 16.8407 32.3808 17.2436C32.3808 17.4324 32.4154 17.5898 32.4847 17.7157C32.5539 17.8416 32.6421 17.9455 32.7491 18.0273C32.8624 18.1092 32.9852 18.1721 33.1174 18.2162C33.2496 18.254 33.3787 18.2855 33.5046 18.3106C33.6305 18.3358 33.7438 18.3579 33.8445 18.3767C33.9515 18.3893 34.0334 18.4082 34.09 18.4334C34.1152 18.446 34.1373 18.4869 34.1561 18.5562C34.175 18.6254 34.1845 18.6758 34.1845 18.7073C34.1845 18.745 34.1782 18.8017 34.1656 18.8772C34.153 18.9465 34.1278 18.9874 34.09 19H28.8207C28.783 18.9874 28.7578 18.9465 28.7452 18.8772C28.7326 18.8017 28.7263 18.745 28.7263 18.7073C28.7263 18.6758 28.7357 18.6254 28.7546 18.5562C28.7735 18.4869 28.7955 18.446 28.8207 18.4334C28.9026 18.3956 29.019 18.3673 29.1701 18.3484C29.3212 18.3232 29.4723 18.276 29.6234 18.2068C29.7745 18.1312 29.9036 18.0179 30.0106 17.8668C30.1239 17.7157 30.1806 17.4891 30.1806 17.1869V17.168C30.212 16.9729 30.2309 16.7588 30.2372 16.5259C30.2498 16.2867 30.2561 16.0254 30.2561 15.7421C30.2561 15.6036 30.253 15.4745 30.2467 15.3549C30.2467 15.229 30.2467 15.1031 30.2467 14.9772C30.2467 14.845 30.2435 14.7033 30.2372 14.5522C30.2372 14.4012 30.2372 14.228 30.2372 14.0329C30.2372 13.7244 30.2215 13.4159 30.19 13.1074C30.1648 12.799 30.0956 12.522 29.9822 12.2764C29.8752 12.0309 29.7147 11.8326 29.5006 11.6815C29.2866 11.5241 28.9907 11.4454 28.613 11.4454C28.55 11.4454 28.4808 11.4549 28.4052 11.4738C28.3297 11.4864 28.2258 11.5178 28.0936 11.5682C27.9614 11.6123 27.7851 11.6815 27.5648 11.7759C27.3444 11.8704 27.0549 11.9931 26.696 12.1442C26.6456 12.1757 26.5921 12.2135 26.5355 12.2575C26.4851 12.2953 26.4568 12.3457 26.4505 12.4086V17.2436C26.4505 17.5269 26.5071 17.7441 26.6205 17.8951C26.7338 18.0399 26.866 18.147 27.0171 18.2162C27.1682 18.2792 27.3193 18.3232 27.4704 18.3484C27.6214 18.3673 27.7379 18.3956 27.8198 18.4334C27.8449 18.446 27.867 18.4869 27.8859 18.5562C27.9047 18.6254 27.9142 18.6758 27.9142 18.7073C27.9142 18.745 27.9079 18.8017 27.8953 18.8772C27.8827 18.9465 27.8575 18.9874 27.8198 19H22.8904C22.8526 18.9874 22.8274 18.9465 22.8149 18.8772C22.8023 18.8017 22.796 18.745 22.796 18.7073C22.796 18.6758 22.8054 18.6254 22.8243 18.5562C22.8432 18.4869 22.8652 18.446 22.8904 18.4334C22.9722 18.3956 23.0887 18.3673 23.2398 18.3484C23.3909 18.3232 23.542 18.2792 23.6931 18.2162C23.8442 18.147 23.9764 18.0399 24.0897 17.8951C24.203 17.7441 24.2597 17.5269 24.2597 17.2436V13.1263C24.2597 12.8808 24.2408 12.6573 24.203 12.4559C24.1652 12.2481 24.0928 12.0718 23.9858 11.927C23.8788 11.7759 23.7277 11.6595 23.5325 11.5776C23.3437 11.4958 23.095 11.4549 22.7865 11.4549C22.6417 11.4549 22.4592 11.4958 22.2388 11.5776C22.0185 11.6532 21.7918 11.7508 21.5589 11.8704C21.3323 11.99 21.1182 12.1159 20.9168 12.2481C20.7216 12.3803 20.5768 12.5031 20.4824 12.6164V17.2436C20.4824 17.5269 20.539 17.7441 20.6524 17.8951C20.7657 18.0399 20.8979 18.147 21.049 18.2162C21.2001 18.2792 21.3512 18.3232 21.5022 18.3484C21.6533 18.3673 21.7698 18.3956 21.8516 18.4334C21.8768 18.446 21.8989 18.4869 21.9177 18.5562C21.9366 18.6254 21.9461 18.6758 21.9461 18.7073C21.9461 18.745 21.9398 18.8017 21.9272 18.8772C21.9146 18.9465 21.8894 18.9874 21.8516 19H16.9223C16.8845 18.9874 16.8593 18.9465 16.8467 18.8772C16.8342 18.8017 16.8279 18.745 16.8279 18.7073C16.8279 18.6758 16.8373 18.6254 16.8562 18.5562C16.8751 18.4869 16.8971 18.446 16.9223 18.4334C17.0041 18.3956 17.1206 18.3673 17.2717 18.3484C17.4228 18.3232 17.5739 18.2792 17.725 18.2162C17.8761 18.147 18.0083 18.0431 18.1216 17.9046C18.2349 17.7598 18.2916 17.5457 18.2916 17.2624V12.4559C18.2916 12.3048 18.2506 12.1883 18.1688 12.1065C18.087 12.0183 17.9831 11.9522 17.8572 11.9082C17.7313 11.8641 17.5959 11.8295 17.4511 11.8043C17.3063 11.7728 17.1678 11.7382 17.0356 11.7004C16.9978 11.6878 16.9664 11.6721 16.9412 11.6532C16.9223 11.628 16.9128 11.5808 16.9128 11.5115C16.9128 11.4801 16.9223 11.4486 16.9412 11.4171C16.9601 11.3856 16.9978 11.3541 17.0545 11.3227L20.1802 9.84009ZM37.6879 9.84009C37.7131 9.8275 37.7383 9.81491 37.7634 9.80232C37.7949 9.78972 37.817 9.78343 37.8295 9.78343C37.9366 9.78343 37.9901 9.85898 37.9901 10.0101V11.011C37.9901 11.0425 38.0027 11.0677 38.0279 11.0866C38.0593 11.1055 38.0845 11.1149 38.1034 11.1149C38.1349 11.1149 38.1632 11.1086 38.1884 11.096C38.2199 11.0771 38.2482 11.0614 38.2734 11.0488C38.5252 10.8977 38.7518 10.7718 38.9533 10.6711C39.1547 10.5641 39.3468 10.4822 39.5293 10.4256C39.7119 10.3626 39.9008 10.3185 40.0959 10.2934C40.2911 10.2682 40.5114 10.2556 40.7569 10.2556C41.2921 10.2556 41.7705 10.3846 42.1923 10.6428C42.6204 10.8946 42.9824 11.2282 43.2783 11.6437C43.5742 12.0529 43.8008 12.5157 43.9582 13.0319C44.1156 13.5481 44.1943 14.0675 44.1943 14.59C44.1943 14.974 44.1408 15.3581 44.0337 15.7421C43.9267 16.1261 43.7788 16.4913 43.5899 16.8375C43.401 17.1775 43.1744 17.4954 42.91 17.7913C42.6456 18.0872 42.3528 18.3453 42.0318 18.5656C41.717 18.7797 41.377 18.9465 41.0119 19.0661C40.6531 19.192 40.2816 19.255 39.8976 19.255C39.6143 19.255 39.3373 19.2361 39.0666 19.1983C38.8022 19.1605 38.5095 19.107 38.1884 19.0378C38.0814 19.0378 38.0216 19.0755 38.009 19.1511C38.0027 19.2266 37.9964 19.3053 37.9901 19.3872V23.2306C37.9901 23.4131 38.0279 23.5642 38.1034 23.6838C38.1852 23.8097 38.286 23.9105 38.4056 23.986C38.5315 24.0679 38.6668 24.1277 38.8116 24.1654C38.9627 24.2095 39.1075 24.2441 39.246 24.2693C39.3845 24.2945 39.5104 24.3134 39.6238 24.326C39.7371 24.3449 39.8221 24.3669 39.8787 24.3921C39.9417 24.4173 39.9732 24.4582 39.9732 24.5148C39.9732 24.603 39.9417 24.6533 39.8787 24.6659H34.43C34.367 24.6533 34.3356 24.603 34.3356 24.5148C34.3356 24.4582 34.367 24.4173 34.43 24.3921C34.5118 24.3543 34.6283 24.3228 34.7794 24.2976C34.9305 24.2788 35.0816 24.2347 35.2327 24.1654C35.3838 24.1025 35.516 23.9986 35.6293 23.8538C35.7426 23.7153 35.7993 23.5076 35.7993 23.2306V12.4464C35.7993 12.2953 35.7583 12.1789 35.6765 12.097C35.5947 12.0089 35.4908 11.9428 35.3649 11.8987C35.239 11.8546 35.1036 11.82 34.9588 11.7948C34.814 11.7634 34.6755 11.7287 34.5433 11.691C34.5055 11.6784 34.4741 11.6626 34.4489 11.6437C34.43 11.6186 34.4206 11.5713 34.4206 11.5021C34.4206 11.4706 34.43 11.4391 34.4489 11.4077C34.4678 11.3762 34.5055 11.3447 34.5622 11.3132L37.6879 9.84009ZM39.9165 11.3227C39.5765 11.3227 39.2649 11.3699 38.9816 11.4643C38.7046 11.5588 38.4213 11.713 38.1317 11.927C38.1191 11.9333 38.1034 11.9459 38.0845 11.9648C38.0719 11.9774 38.0593 11.99 38.0467 12.0026L37.9901 12.0592V17.1019C37.9901 17.1208 37.9932 17.1743 37.9995 17.2624C38.0058 17.3443 38.0153 17.4198 38.0279 17.4891C38.0467 17.6213 38.1286 17.7441 38.2734 17.8574C38.4182 17.9644 38.5819 18.0588 38.7644 18.1407C38.9533 18.2162 39.139 18.276 39.3216 18.3201C39.5104 18.3579 39.6615 18.3767 39.7749 18.3767C40.1904 18.3767 40.5398 18.3012 40.823 18.1501C41.1126 17.999 41.3456 17.7976 41.5218 17.5457C41.6981 17.2876 41.824 16.9886 41.8996 16.6486C41.9814 16.3087 42.0223 15.9467 42.0223 15.5627C42.0223 15.2668 42.0066 14.9583 41.9751 14.6372C41.9436 14.3099 41.8933 13.9888 41.824 13.674C41.7611 13.3593 41.6729 13.0602 41.5596 12.7769C41.4526 12.4936 41.3204 12.245 41.163 12.0309C41.0119 11.8169 40.8325 11.6469 40.6247 11.521C40.417 11.3888 40.1809 11.3227 39.9165 11.3227ZM50.5401 18.7167C50.5401 18.7545 50.5338 18.808 50.5212 18.8772C50.5086 18.9465 50.4834 18.9874 50.4457 19H45.5163C45.4785 18.9874 45.4534 18.9465 45.4408 18.8772C45.4282 18.808 45.4219 18.7545 45.4219 18.7167C45.4219 18.6852 45.4313 18.6349 45.4502 18.5656C45.4691 18.4964 45.4911 18.4554 45.5163 18.4429C45.5982 18.4051 45.7146 18.3767 45.8657 18.3579C46.0168 18.3327 46.1679 18.2886 46.319 18.2257C46.4701 18.1564 46.6023 18.0525 46.7156 17.914C46.8289 17.7692 46.8856 17.5583 46.8856 17.2813V6.27056C46.8856 6.11946 46.8447 6.003 46.7628 5.92116C46.681 5.83302 46.5771 5.76692 46.4512 5.72285C46.3253 5.67878 46.1899 5.64416 46.0451 5.61897C45.9003 5.5875 45.7618 5.55287 45.6296 5.5151C45.5478 5.48362 45.5069 5.39549 45.5069 5.25069C45.5069 5.21921 45.5163 5.17829 45.5352 5.12793C45.5541 5.07127 45.5919 5.0272 45.6485 4.99572L48.7742 3.52258C48.7994 3.50999 48.8277 3.4974 48.8592 3.48481C48.8907 3.47222 48.9253 3.46592 48.9631 3.46592C49.0135 3.46592 49.0449 3.48481 49.0575 3.52258C49.0701 3.55406 49.0764 3.61072 49.0764 3.69256V17.2813C49.0764 17.5583 49.1331 17.7692 49.2464 17.914C49.3597 18.0525 49.4919 18.1564 49.643 18.2257C49.7941 18.2886 49.9452 18.3327 50.0963 18.3579C50.2474 18.3767 50.3638 18.4051 50.4457 18.4429C50.4709 18.4554 50.4929 18.4964 50.5118 18.5656C50.5307 18.6349 50.5401 18.6852 50.5401 18.7167ZM54.0058 24.8548C53.8924 24.8548 53.7823 24.8359 53.6753 24.7981C53.5682 24.7604 53.4706 24.7068 53.3825 24.6376C53.2944 24.5683 53.222 24.4865 53.1653 24.3921C53.115 24.3039 53.0898 24.2032 53.0898 24.0899C53.0898 23.9136 53.1338 23.7783 53.222 23.6838C53.3164 23.5894 53.4297 23.5107 53.5619 23.4478C53.6941 23.3848 53.8326 23.3313 53.9774 23.2872C54.1222 23.2431 54.245 23.1833 54.3457 23.1078C54.415 23.0574 54.4874 22.9976 54.5629 22.9284C54.6448 22.8654 54.7172 22.7615 54.7801 22.6167L56.0172 19.7366L52.4004 12.1914C52.2934 11.9019 52.1392 11.65 51.9377 11.436C51.7362 11.2156 51.4907 11.0583 51.2011 10.9638C51.1571 10.9512 51.1036 10.9386 51.0406 10.9261C50.9776 10.9072 50.9178 10.8851 50.8612 10.86C50.7982 10.8348 50.7479 10.8033 50.7101 10.7655C50.666 10.7215 50.644 10.6648 50.644 10.5955C50.644 10.5326 50.6629 10.4696 50.7006 10.4067C50.7384 10.3437 50.7951 10.3122 50.8706 10.3122H55.8566C55.8944 10.3122 55.9164 10.35 55.9227 10.4256C55.929 10.5011 55.9322 10.5483 55.9322 10.5672C55.9322 10.6554 55.8944 10.7183 55.8189 10.7561C55.7496 10.7876 55.6615 10.8096 55.5544 10.8222C55.4474 10.8348 55.331 10.8442 55.2051 10.8505C55.0854 10.8568 54.9721 10.8788 54.8651 10.9166C54.7581 10.9544 54.6668 11.0142 54.5912 11.096C54.522 11.1779 54.4874 11.3006 54.4874 11.4643C54.4874 11.4832 54.5 11.5241 54.5251 11.5871C54.5566 11.6437 54.5724 11.6784 54.5724 11.691L56.9143 16.7053C56.9269 16.7368 56.9489 16.784 56.9804 16.8469C57.0181 16.9036 57.0591 16.9319 57.1031 16.9319C57.1283 16.9319 57.1535 16.9193 57.1787 16.8942C57.2039 16.8627 57.2259 16.8281 57.2448 16.7903C57.2637 16.7525 57.2794 16.7179 57.292 16.6864C57.3046 16.6486 57.314 16.6235 57.3203 16.6109C57.6099 15.868 57.8523 15.2385 58.0475 14.7222C58.2489 14.206 58.4126 13.7779 58.5385 13.438C58.6707 13.098 58.7683 12.8336 58.8312 12.6447C58.9005 12.4496 58.9477 12.3016 58.9729 12.2009C59.0044 12.0939 59.0233 12.0183 59.0296 11.9743C59.0358 11.9239 59.039 11.8767 59.039 11.8326C59.0516 11.6123 58.9855 11.4297 58.8407 11.2849C58.6959 11.1401 58.5228 11.0331 58.3213 10.9638C58.2647 10.9449 58.1923 10.9324 58.1041 10.9261C58.0223 10.9135 57.9404 10.8977 57.8586 10.8788C57.783 10.8537 57.7138 10.819 57.6508 10.775C57.5942 10.7246 57.5659 10.6554 57.5659 10.5672C57.5659 10.5169 57.5879 10.4633 57.632 10.4067C57.676 10.3437 57.7232 10.3122 57.7736 10.3122H61.5414C61.5918 10.3122 61.6201 10.35 61.6264 10.4256C61.639 10.4948 61.6453 10.5452 61.6453 10.5767C61.6453 10.6207 61.639 10.6585 61.6264 10.69C61.6138 10.7215 61.5824 10.7498 61.532 10.775C61.4879 10.8001 61.4218 10.8253 61.3337 10.8505C61.2519 10.8757 61.1417 10.9009 61.0032 10.9261C60.871 10.9512 60.7514 11.0173 60.6443 11.1244C60.5373 11.2251 60.4397 11.3447 60.3516 11.4832C60.2698 11.6154 60.1942 11.7571 60.125 11.9082C60.062 12.0592 60.0053 12.1946 59.955 12.3142L55.1673 24.1749C55.1169 24.2945 55.0445 24.3952 54.9501 24.4771C54.8557 24.5652 54.7518 24.6376 54.6385 24.6943C54.5251 24.7509 54.4118 24.7918 54.2985 24.817C54.1852 24.8422 54.0876 24.8548 54.0058 24.8548ZM68.3689 18.745C68.287 18.745 68.2367 18.6789 68.2178 18.5467C68.1485 17.955 68.095 17.4954 68.0573 17.168C68.0195 16.8407 67.9912 16.5951 67.9723 16.4314C67.9597 16.2678 67.9502 16.1639 67.9439 16.1198C67.9439 16.0695 67.9439 16.0348 67.9439 16.0159C67.9439 15.9467 67.9754 15.8712 68.0384 15.7893C68.1013 15.7075 68.1769 15.6665 68.265 15.6665C68.328 15.6665 68.3941 15.7043 68.4633 15.7799C68.5389 15.8554 68.6081 15.9435 68.6711 16.0443C68.7403 16.145 68.797 16.2457 68.841 16.3465C68.8914 16.4472 68.9229 16.5196 68.9355 16.5637C69.0992 16.9099 69.2754 17.2026 69.4643 17.4419C69.6595 17.6748 69.8798 17.8637 70.1253 18.0085C70.3708 18.147 70.6478 18.2477 70.9563 18.3106C71.2648 18.3736 71.6173 18.4051 72.014 18.4051C72.6876 18.4051 73.2101 18.2445 73.5815 17.9235C73.9593 17.6024 74.1481 17.0862 74.1481 16.3748C74.1481 15.9656 74.0568 15.5941 73.8743 15.2605C73.698 14.9268 73.4651 14.6184 73.1755 14.3351C72.8859 14.0455 72.5554 13.7716 72.1839 13.5135C71.8125 13.2554 71.4316 12.9941 71.0413 12.7297C70.651 12.4653 70.2701 12.1914 69.8987 11.9082C69.5273 11.6186 69.1967 11.3006 68.9071 10.9544C68.6176 10.6081 68.3815 10.2241 68.1989 9.80232C68.0226 9.38052 67.9345 8.90521 67.9345 8.37639C67.9345 8.05532 67.9912 7.75629 68.1045 7.47929C68.2241 7.20229 68.3815 6.95047 68.5766 6.72383C68.7718 6.49719 68.9984 6.29574 69.2565 6.11946C69.521 5.9369 69.8011 5.7858 70.097 5.66619C70.3929 5.54028 70.6919 5.44585 70.9941 5.38289C71.3026 5.31994 71.6016 5.28846 71.8912 5.28846C72.1241 5.28846 72.3571 5.3105 72.59 5.35456C72.8292 5.39234 73.0622 5.43955 73.2888 5.49621C73.5217 5.55287 73.7547 5.61583 73.9876 5.68508C74.2205 5.74803 74.4503 5.80784 74.6769 5.8645L75.3002 5.80784C75.3569 5.80784 75.3915 5.83302 75.4041 5.88338C75.423 5.92745 75.4356 5.96837 75.4418 6.00615L75.7157 8.2253C75.7157 8.25678 75.6748 8.27881 75.5929 8.2914C75.5111 8.30399 75.4481 8.31029 75.4041 8.31029C75.3663 8.31029 75.3096 8.30714 75.2341 8.30085C75.1586 8.28825 75.1145 8.27566 75.1019 8.26307C75.083 8.24419 75.0578 8.20641 75.0263 8.14975C75.0012 8.0868 74.9728 8.0207 74.9414 7.95145C74.9099 7.8759 74.8753 7.80036 74.8375 7.72481C74.806 7.64926 74.7714 7.58316 74.7336 7.5265C74.4314 7.06064 74.0443 6.71439 73.5721 6.48775C73.0999 6.25482 72.5806 6.13835 72.014 6.13835C71.7684 6.13835 71.5387 6.16668 71.3246 6.22334C71.1106 6.28 70.9248 6.37128 70.7675 6.49719C70.6101 6.61681 70.4842 6.77105 70.3897 6.95991C70.3016 7.14877 70.2575 7.37541 70.2575 7.63982C70.2575 8.02384 70.3457 8.37324 70.5219 8.68802C70.7045 8.9965 70.9406 9.28923 71.2302 9.56624C71.5261 9.83694 71.8597 10.1014 72.2312 10.3595C72.6089 10.6176 72.9898 10.882 73.3738 11.1527C73.7641 11.4171 74.145 11.7004 74.5164 12.0026C74.8941 12.3048 75.2278 12.6384 75.5174 13.0036C75.8133 13.3687 76.0494 13.7748 76.2256 14.2217C76.4082 14.6687 76.4995 15.1724 76.4995 15.7327C76.4995 16.1041 76.4334 16.4503 76.3012 16.7714C76.1753 17.0925 76.0021 17.3852 75.7818 17.6496C75.5615 17.9077 75.3033 18.1375 75.0075 18.339C74.7116 18.5404 74.3937 18.7104 74.0537 18.8489C73.72 18.9811 73.3738 19.0818 73.0149 19.1511C72.6624 19.2203 72.3161 19.255 71.9762 19.255C71.5481 19.255 71.1735 19.2235 70.8524 19.1605C70.5377 19.0976 70.2638 19.0283 70.0309 18.9528C69.8043 18.8709 69.6122 18.7985 69.4549 18.7356C69.2975 18.6726 69.1653 18.6412 69.0582 18.6412C69.0205 18.6412 68.9921 18.6443 68.9733 18.6506L68.3689 18.745ZM78.7847 11.7193H78.0765C77.9884 11.7193 77.9191 11.6973 77.8688 11.6532C77.8184 11.6091 77.7901 11.5619 77.7838 11.5115C77.7838 11.4801 77.7901 11.4454 77.8026 11.4077C77.8152 11.3699 77.831 11.3447 77.8499 11.3321C77.9758 11.2503 78.1111 11.1558 78.2559 11.0488C78.407 10.9355 78.555 10.819 78.6998 10.6994C78.8445 10.5798 78.9862 10.4602 79.1247 10.3406C79.2632 10.221 79.386 10.1108 79.493 10.0101C79.5559 9.94082 79.6409 9.83694 79.7479 9.69844C79.8613 9.55994 79.9872 9.42459 80.1257 9.29238C80.2705 9.15388 80.4247 9.03427 80.5884 8.93354C80.7521 8.82652 80.9189 8.77301 81.0889 8.77301C81.1267 8.77301 81.1707 8.7856 81.2211 8.81078C81.2715 8.83596 81.2966 8.86744 81.2966 8.90521C81.2966 8.94928 81.284 9.01853 81.2589 9.11296C81.24 9.2011 81.2148 9.30183 81.1833 9.41514C81.1518 9.52846 81.1172 9.64808 81.0794 9.77399C81.0417 9.8999 81.007 10.0227 80.9756 10.1423C80.9756 10.1926 80.9819 10.2336 80.9945 10.265C81.0133 10.2965 81.0574 10.3154 81.1267 10.3217H83.5347C83.6354 10.3217 83.7047 10.3406 83.7424 10.3784C83.7802 10.4098 83.8085 10.4539 83.8274 10.5106C83.84 10.542 83.8526 10.6081 83.8652 10.7089C83.8778 10.8033 83.8904 10.9103 83.903 11.0299C83.9156 11.1433 83.925 11.2597 83.9313 11.3793C83.9439 11.4926 83.9502 11.5871 83.9502 11.6626C83.9502 11.7004 83.925 11.7193 83.8746 11.7193H81.0322C81.0007 11.7193 80.9819 11.7256 80.9756 11.7382C80.9756 11.7508 80.9756 11.7728 80.9756 11.8043V16.4975C80.9756 16.699 81.0007 16.8753 81.0511 17.0264C81.1015 17.1775 81.1644 17.3034 81.24 17.4041C81.3218 17.5048 81.4131 17.5804 81.5138 17.6307C81.6146 17.6811 81.7153 17.7063 81.816 17.7063C82.1056 17.7063 82.3417 17.6654 82.5243 17.5835C82.7068 17.4954 82.8642 17.401 82.9964 17.3002C83.1286 17.1995 83.2451 17.1082 83.3458 17.0264C83.4465 16.9382 83.5599 16.8942 83.6858 16.8942C83.7739 16.8942 83.8243 16.9288 83.8369 16.998C83.8557 17.0673 83.8652 17.1208 83.8652 17.1586C83.8652 17.2404 83.8526 17.3065 83.8274 17.3569C83.8085 17.401 83.7928 17.4356 83.7802 17.4608C83.7739 17.4733 83.7393 17.5269 83.6763 17.6213C83.6134 17.7157 83.5284 17.829 83.4214 17.9612C83.3143 18.0935 83.1821 18.2351 83.0247 18.3862C82.8737 18.5373 82.7037 18.6789 82.5148 18.8111C82.3259 18.937 82.1182 19.0409 81.8916 19.1228C81.6712 19.2109 81.4383 19.255 81.1928 19.255C80.8528 19.255 80.5349 19.192 80.239 19.0661C79.9431 18.9402 79.6881 18.7734 79.4741 18.5656C79.2601 18.3516 79.0901 18.1092 78.9642 17.8385C78.8445 17.5678 78.7847 17.2876 78.7847 16.998V11.7193ZM85.7444 12.1065C85.7255 11.9239 85.6405 11.7697 85.4894 11.6437C85.3446 11.5115 85.1872 11.4265 85.0173 11.3888C84.9732 11.3762 84.9228 11.3699 84.8662 11.3699C84.8158 11.3636 84.7686 11.3573 84.7245 11.351C84.6805 11.3384 84.6427 11.3227 84.6112 11.3038C84.586 11.2786 84.5734 11.2377 84.5734 11.181C84.5734 11.1307 84.5797 11.0866 84.5923 11.0488C84.6112 11.011 84.6553 10.9827 84.7245 10.9638L87.6047 10.1328C87.6425 10.1202 87.6802 10.1108 87.718 10.1045C87.7621 10.0982 87.803 10.0951 87.8408 10.0951C87.9037 10.0951 87.9352 10.1486 87.9352 10.2556V16.6298C87.9352 16.8438 87.9824 17.039 88.0769 17.2152C88.1776 17.3852 88.3066 17.53 88.464 17.6496C88.6214 17.7692 88.8008 17.8605 89.0023 17.9235C89.2037 17.9864 89.4115 18.0179 89.6255 18.0179C89.7766 18.0179 89.934 17.9927 90.0977 17.9424C90.2614 17.892 90.4188 17.829 90.5699 17.7535C90.721 17.6717 90.8626 17.5804 90.9948 17.4796C91.127 17.3726 91.234 17.2624 91.3159 17.1491V12.097C91.297 11.9144 91.212 11.7602 91.0609 11.6343C90.9161 11.5021 90.7587 11.4171 90.5888 11.3793C90.5447 11.3667 90.4943 11.3604 90.4377 11.3604C90.3873 11.3541 90.3401 11.3479 90.296 11.3416C90.2519 11.329 90.2142 11.3132 90.1827 11.2943C90.1575 11.2692 90.1449 11.2282 90.1449 11.1716C90.1449 11.1212 90.1512 11.0771 90.1638 11.0394C90.1827 11.0016 90.2268 10.9733 90.296 10.9544L93.1762 10.1328C93.214 10.1202 93.2517 10.1108 93.2895 10.1045C93.3336 10.0982 93.3745 10.0951 93.4123 10.0951C93.4752 10.0951 93.5067 10.1234 93.5067 10.18V16.6959C93.5382 16.9729 93.6169 17.1712 93.7428 17.2908C93.8687 17.4104 94.0733 17.4702 94.3566 17.4702L94.9043 17.4324C94.9295 17.4324 94.9452 17.4765 94.9515 17.5646C94.9578 17.6465 94.961 17.7063 94.961 17.7441C94.961 17.7566 94.9515 17.7976 94.9326 17.8668C94.92 17.9361 94.8823 17.9864 94.8193 18.0179L91.9486 19.1983C91.936 19.2046 91.9045 19.214 91.8541 19.2266C91.8038 19.2455 91.7754 19.255 91.7692 19.255C91.7251 19.255 91.6968 19.2266 91.6842 19.17C91.6779 19.1196 91.6747 19.0693 91.6747 19.0189V18.1123C91.6558 18.0872 91.6244 18.0746 91.5803 18.0746C91.5677 18.0746 91.5551 18.0746 91.5425 18.0746C91.5299 18.0746 91.5236 18.0809 91.5236 18.0935L90.0127 18.83C89.8742 18.8804 89.7452 18.9307 89.6255 18.9811C89.5059 19.0252 89.3863 19.0693 89.2667 19.1133C89.1534 19.1574 89.0306 19.192 88.8984 19.2172C88.7662 19.2424 88.6214 19.255 88.464 19.255C88.1996 19.255 87.9069 19.2266 87.5858 19.17C87.271 19.1196 86.9752 19.0378 86.6982 18.9245C86.4274 18.8048 86.2008 18.6537 86.0182 18.4712C85.8357 18.2886 85.7444 18.0683 85.7444 17.8102V12.1065ZM99.3709 9.84009C99.3961 9.8275 99.4213 9.81491 99.4465 9.80232C99.478 9.78972 99.5 9.78343 99.5126 9.78343C99.6196 9.78343 99.6731 9.85898 99.6731 10.0101V11.4832C99.692 11.5462 99.7172 11.5776 99.7487 11.5776C99.7801 11.5776 99.8053 11.5776 99.8242 11.5776C99.8431 11.5713 99.8683 11.5588 99.8998 11.5399C100.303 11.3321 100.643 11.159 100.92 11.0205C101.203 10.8757 101.445 10.7561 101.647 10.6616C101.854 10.5609 102.037 10.4854 102.194 10.435C102.358 10.3784 102.522 10.3374 102.686 10.3122C102.849 10.2808 103.029 10.2619 103.224 10.2556C103.419 10.2493 103.658 10.2461 103.941 10.2461C104.25 10.2461 104.517 10.3122 104.744 10.4445C104.971 10.5767 105.16 10.7529 105.311 10.9733C105.468 11.1873 105.594 11.436 105.688 11.7193C105.789 11.9963 105.865 12.2827 105.915 12.5786C105.965 12.8682 106 13.1578 106.019 13.4474C106.038 13.7307 106.047 13.9888 106.047 14.2217C106.047 14.4421 106.041 14.6467 106.028 14.8355C106.022 15.0244 106.013 15.2322 106 15.4588C105.994 15.6791 105.984 15.931 105.972 16.2143C105.965 16.4975 105.962 16.8407 105.962 17.2436C105.962 17.4324 105.997 17.5898 106.066 17.7157C106.135 17.8416 106.224 17.9455 106.331 18.0273C106.444 18.1092 106.567 18.1721 106.699 18.2162C106.831 18.254 106.96 18.2855 107.086 18.3106C107.212 18.3358 107.325 18.3579 107.426 18.3767C107.533 18.3893 107.615 18.4082 107.672 18.4334C107.697 18.446 107.719 18.4869 107.738 18.5562C107.757 18.6254 107.766 18.6758 107.766 18.7073C107.766 18.745 107.76 18.8017 107.747 18.8772C107.734 18.9465 107.709 18.9874 107.672 19H102.402C102.364 18.9874 102.339 18.9465 102.327 18.8772C102.314 18.8017 102.308 18.745 102.308 18.7073C102.308 18.6758 102.317 18.6254 102.336 18.5562C102.355 18.4869 102.377 18.446 102.402 18.4334C102.484 18.3956 102.591 18.3673 102.723 18.3484C102.862 18.3232 103 18.2729 103.139 18.1973C103.284 18.1218 103.413 18.0085 103.526 17.8574C103.646 17.7 103.724 17.4702 103.762 17.168C103.775 17.0736 103.784 16.9854 103.79 16.9036C103.803 16.8218 103.812 16.7399 103.819 16.6581C103.825 16.5699 103.828 16.4755 103.828 16.3748C103.834 16.2741 103.838 16.1576 103.838 16.0254C103.838 15.7421 103.834 15.4399 103.828 15.1188C103.822 14.7978 103.819 14.4389 103.819 14.0423C103.819 13.7338 103.803 13.4285 103.771 13.1263C103.746 12.8241 103.677 12.5534 103.564 12.3142C103.457 12.075 103.296 11.8798 103.082 11.7287C102.868 11.5776 102.572 11.5021 102.194 11.5021C102.062 11.5021 101.943 11.5115 101.836 11.5304C101.735 11.543 101.609 11.5776 101.458 11.6343C101.313 11.691 101.121 11.7759 100.882 11.8893C100.643 12.0026 100.322 12.1568 99.9186 12.352C99.8683 12.3835 99.8148 12.4212 99.7581 12.4653C99.7077 12.5031 99.6794 12.5534 99.6731 12.6164V17.2436C99.6731 17.5269 99.7298 17.7441 99.8431 17.8951C99.9564 18.0399 100.089 18.147 100.24 18.2162C100.391 18.2792 100.542 18.3232 100.693 18.3484C100.844 18.3673 100.961 18.3956 101.042 18.4334C101.068 18.446 101.09 18.4869 101.108 18.5562C101.127 18.6254 101.137 18.6758 101.137 18.7073C101.137 18.745 101.131 18.8017 101.118 18.8772C101.105 18.9465 101.08 18.9874 101.042 19H96.113C96.0753 18.9874 96.0501 18.9465 96.0375 18.8772C96.0249 18.8017 96.0186 18.745 96.0186 18.7073C96.0186 18.6758 96.028 18.6254 96.0469 18.5562C96.0658 18.4869 96.0878 18.446 96.113 18.4334C96.1949 18.3956 96.3113 18.3673 96.4624 18.3484C96.6135 18.3232 96.7646 18.2792 96.9157 18.2162C97.0668 18.147 97.199 18.0399 97.3123 17.8951C97.4256 17.7441 97.4823 17.5269 97.4823 17.2436V12.4464C97.4823 12.2953 97.4414 12.1789 97.3595 12.097C97.2777 12.0089 97.1738 11.9428 97.0479 11.8987C96.922 11.8546 96.7866 11.82 96.6418 11.7948C96.4971 11.7634 96.3586 11.7287 96.2263 11.691C96.1886 11.6784 96.1571 11.6626 96.1319 11.6437C96.113 11.6186 96.1036 11.5713 96.1036 11.5021C96.1036 11.4706 96.113 11.4391 96.1319 11.4077C96.1508 11.3762 96.1886 11.3447 96.2452 11.3132L99.3709 9.84009ZM111.798 9.84009C111.823 9.8275 111.849 9.81491 111.874 9.80232C111.905 9.78972 111.927 9.78343 111.94 9.78343C112.047 9.78343 112.1 9.85898 112.1 10.0101V11.4832C112.119 11.5462 112.144 11.5776 112.176 11.5776C112.207 11.5776 112.233 11.5776 112.251 11.5776C112.27 11.5713 112.296 11.5588 112.327 11.5399C112.73 11.3321 113.07 11.159 113.347 11.0205C113.63 10.8757 113.873 10.7561 114.074 10.6616C114.282 10.5609 114.464 10.4854 114.622 10.435C114.785 10.3784 114.949 10.3374 115.113 10.3122C115.276 10.2808 115.456 10.2619 115.651 10.2556C115.846 10.2493 116.085 10.2461 116.369 10.2461C116.677 10.2461 116.945 10.3122 117.171 10.4445C117.398 10.5767 117.587 10.7529 117.738 10.9733C117.895 11.1873 118.021 11.436 118.116 11.7193C118.216 11.9963 118.292 12.2827 118.342 12.5786C118.393 12.8682 118.427 13.1578 118.446 13.4474C118.465 13.7307 118.475 13.9888 118.475 14.2217C118.475 14.4421 118.468 14.6467 118.456 14.8355C118.449 15.0244 118.44 15.2322 118.427 15.4588C118.421 15.6791 118.412 15.931 118.399 16.2143C118.393 16.4975 118.39 16.8407 118.39 17.2436C118.39 17.4324 118.424 17.5898 118.493 17.7157C118.563 17.8416 118.651 17.9455 118.758 18.0273C118.871 18.1092 118.994 18.1721 119.126 18.2162C119.258 18.254 119.387 18.2855 119.513 18.3106C119.639 18.3358 119.753 18.3579 119.853 18.3767C119.96 18.3893 120.042 18.4082 120.099 18.4334C120.124 18.446 120.146 18.4869 120.165 18.5562C120.184 18.6254 120.193 18.6758 120.193 18.7073C120.193 18.745 120.187 18.8017 120.174 18.8772C120.162 18.9465 120.137 18.9874 120.099 19H114.829C114.792 18.9874 114.767 18.9465 114.754 18.8772C114.741 18.8017 114.735 18.745 114.735 18.7073C114.735 18.6758 114.744 18.6254 114.763 18.5562C114.782 18.4869 114.804 18.446 114.829 18.4334C114.911 18.3956 115.018 18.3673 115.151 18.3484C115.289 18.3232 115.428 18.2729 115.566 18.1973C115.711 18.1218 115.84 18.0085 115.953 17.8574C116.073 17.7 116.152 17.4702 116.189 17.168C116.202 17.0736 116.211 16.9854 116.218 16.9036C116.23 16.8218 116.24 16.7399 116.246 16.6581C116.252 16.5699 116.255 16.4755 116.255 16.3748C116.262 16.2741 116.265 16.1576 116.265 16.0254C116.265 15.7421 116.262 15.4399 116.255 15.1188C116.249 14.7978 116.246 14.4389 116.246 14.0423C116.246 13.7338 116.23 13.4285 116.199 13.1263C116.174 12.8241 116.104 12.5534 115.991 12.3142C115.884 12.075 115.723 11.8798 115.509 11.7287C115.295 11.5776 114.999 11.5021 114.622 11.5021C114.49 11.5021 114.37 11.5115 114.263 11.5304C114.162 11.543 114.036 11.5776 113.885 11.6343C113.74 11.691 113.548 11.7759 113.309 11.8893C113.07 12.0026 112.749 12.1568 112.346 12.352C112.296 12.3835 112.242 12.4212 112.185 12.4653C112.135 12.5031 112.107 12.5534 112.1 12.6164V17.2436C112.1 17.5269 112.157 17.7441 112.27 17.8951C112.384 18.0399 112.516 18.147 112.667 18.2162C112.818 18.2792 112.969 18.3232 113.12 18.3484C113.271 18.3673 113.388 18.3956 113.47 18.4334C113.495 18.446 113.517 18.4869 113.536 18.5562C113.555 18.6254 113.564 18.6758 113.564 18.7073C113.564 18.745 113.558 18.8017 113.545 18.8772C113.533 18.9465 113.507 18.9874 113.47 19H108.54C108.503 18.9874 108.477 18.9465 108.465 18.8772C108.452 18.8017 108.446 18.745 108.446 18.7073C108.446 18.6758 108.455 18.6254 108.474 18.5562C108.493 18.4869 108.515 18.446 108.54 18.4334C108.622 18.3956 108.739 18.3673 108.89 18.3484C109.041 18.3232 109.192 18.2792 109.343 18.2162C109.494 18.147 109.626 18.0399 109.74 17.8951C109.853 17.7441 109.91 17.5269 109.91 17.2436V12.4464C109.91 12.2953 109.869 12.1789 109.787 12.097C109.705 12.0089 109.601 11.9428 109.475 11.8987C109.349 11.8546 109.214 11.82 109.069 11.7948C108.924 11.7634 108.786 11.7287 108.654 11.691C108.616 11.6784 108.584 11.6626 108.559 11.6437C108.54 11.6186 108.531 11.5713 108.531 11.5021C108.531 11.4706 108.54 11.4391 108.559 11.4077C108.578 11.3762 108.616 11.3447 108.672 11.3132L111.798 9.84009ZM121.043 19C121.005 18.9874 120.98 18.9465 120.968 18.8772C120.955 18.8017 120.949 18.745 120.949 18.7073C120.949 18.6758 120.958 18.6254 120.977 18.5562C120.996 18.4869 121.018 18.446 121.043 18.4334C121.125 18.3956 121.241 18.3673 121.392 18.3484C121.544 18.3232 121.695 18.2792 121.846 18.2162C121.997 18.147 122.129 18.0431 122.242 17.9046C122.356 17.7598 122.412 17.5489 122.412 17.2719V12.7392C122.412 12.5881 122.371 12.4716 122.29 12.3898C122.208 12.3016 122.104 12.2355 121.978 12.1914C121.852 12.1474 121.717 12.1128 121.572 12.0876C121.427 12.0561 121.289 12.0215 121.156 11.9837C121.119 11.9711 121.087 11.9554 121.062 11.9365C121.043 11.9113 121.034 11.8641 121.034 11.7948C121.034 11.7634 121.043 11.7319 121.062 11.7004C121.081 11.6689 121.119 11.6374 121.175 11.606L124.301 10.1328C124.326 10.1202 124.351 10.1076 124.377 10.0951C124.408 10.0825 124.43 10.0762 124.443 10.0762C124.55 10.0762 124.603 10.1517 124.603 10.3028V17.2719C124.603 17.5489 124.66 17.7598 124.773 17.9046C124.886 18.0431 125.019 18.147 125.17 18.2162C125.321 18.2792 125.472 18.3232 125.623 18.3484C125.774 18.3673 125.891 18.3956 125.972 18.4334C125.998 18.446 126.02 18.4869 126.039 18.5562C126.057 18.6254 126.067 18.6758 126.067 18.7073C126.067 18.745 126.061 18.8017 126.048 18.8772C126.035 18.9465 126.01 18.9874 125.972 19H121.043ZM122.006 6.65773C122.006 6.25482 122.126 5.93375 122.365 5.69452C122.604 5.45529 122.925 5.33568 123.328 5.33568C123.731 5.33568 124.052 5.45529 124.292 5.69452C124.531 5.93375 124.65 6.25482 124.65 6.65773C124.65 7.06064 124.531 7.38171 124.292 7.62093C124.052 7.85387 123.731 7.97033 123.328 7.97033C122.925 7.97033 122.604 7.85387 122.365 7.62093C122.126 7.38171 122.006 7.06064 122.006 6.65773ZM130.382 9.84009C130.408 9.8275 130.433 9.81491 130.458 9.80232C130.489 9.78972 130.511 9.78343 130.524 9.78343C130.631 9.78343 130.685 9.85898 130.685 10.0101V11.4832C130.703 11.5462 130.729 11.5776 130.76 11.5776C130.792 11.5776 130.817 11.5776 130.836 11.5776C130.855 11.5713 130.88 11.5588 130.911 11.5399C131.314 11.3321 131.654 11.159 131.931 11.0205C132.214 10.8757 132.457 10.7561 132.658 10.6616C132.866 10.5609 133.049 10.4854 133.206 10.435C133.37 10.3784 133.533 10.3374 133.697 10.3122C133.861 10.2808 134.04 10.2619 134.235 10.2556C134.43 10.2493 134.67 10.2461 134.953 10.2461C135.261 10.2461 135.529 10.3122 135.756 10.4445C135.982 10.5767 136.171 10.7529 136.322 10.9733C136.48 11.1873 136.605 11.436 136.7 11.7193C136.801 11.9963 136.876 12.2827 136.927 12.5786C136.977 12.8682 137.012 13.1578 137.03 13.4474C137.049 13.7307 137.059 13.9888 137.059 14.2217C137.059 14.4421 137.052 14.6467 137.04 14.8355C137.034 15.0244 137.024 15.2322 137.012 15.4588C137.005 15.6791 136.996 15.931 136.983 16.2143C136.977 16.4975 136.974 16.8407 136.974 17.2436C136.974 17.4324 137.008 17.5898 137.078 17.7157C137.147 17.8416 137.235 17.9455 137.342 18.0273C137.455 18.1092 137.578 18.1721 137.71 18.2162C137.843 18.254 137.972 18.2855 138.098 18.3106C138.223 18.3358 138.337 18.3579 138.437 18.3767C138.545 18.3893 138.626 18.4082 138.683 18.4334C138.708 18.446 138.73 18.4869 138.749 18.5562C138.768 18.6254 138.777 18.6758 138.777 18.7073C138.777 18.745 138.771 18.8017 138.759 18.8772C138.746 18.9465 138.721 18.9874 138.683 19H133.414C133.376 18.9874 133.351 18.9465 133.338 18.8772C133.326 18.8017 133.319 18.745 133.319 18.7073C133.319 18.6758 133.329 18.6254 133.348 18.5562C133.366 18.4869 133.389 18.446 133.414 18.4334C133.496 18.3956 133.603 18.3673 133.735 18.3484C133.873 18.3232 134.012 18.2729 134.15 18.1973C134.295 18.1218 134.424 18.0085 134.537 17.8574C134.657 17.7 134.736 17.4702 134.774 17.168C134.786 17.0736 134.796 16.9854 134.802 16.9036C134.814 16.8218 134.824 16.7399 134.83 16.6581C134.836 16.5699 134.84 16.4755 134.84 16.3748C134.846 16.2741 134.849 16.1576 134.849 16.0254C134.849 15.7421 134.846 15.4399 134.84 15.1188C134.833 14.7978 134.83 14.4389 134.83 14.0423C134.83 13.7338 134.814 13.4285 134.783 13.1263C134.758 12.8241 134.689 12.5534 134.575 12.3142C134.468 12.075 134.308 11.8798 134.094 11.7287C133.88 11.5776 133.584 11.5021 133.206 11.5021C133.074 11.5021 132.954 11.5115 132.847 11.5304C132.746 11.543 132.62 11.5776 132.469 11.6343C132.325 11.691 132.133 11.7759 131.893 11.8893C131.654 12.0026 131.333 12.1568 130.93 12.352C130.88 12.3835 130.826 12.4212 130.77 12.4653C130.719 12.5031 130.691 12.5534 130.685 12.6164V17.2436C130.685 17.5269 130.741 17.7441 130.855 17.8951C130.968 18.0399 131.1 18.147 131.251 18.2162C131.402 18.2792 131.553 18.3232 131.704 18.3484C131.856 18.3673 131.972 18.3956 132.054 18.4334C132.079 18.446 132.101 18.4869 132.12 18.5562C132.139 18.6254 132.148 18.6758 132.148 18.7073C132.148 18.745 132.142 18.8017 132.129 18.8772C132.117 18.9465 132.092 18.9874 132.054 19H127.125C127.087 18.9874 127.062 18.9465 127.049 18.8772C127.036 18.8017 127.03 18.745 127.03 18.7073C127.03 18.6758 127.04 18.6254 127.058 18.5562C127.077 18.4869 127.099 18.446 127.125 18.4334C127.206 18.3956 127.323 18.3673 127.474 18.3484C127.625 18.3232 127.776 18.2792 127.927 18.2162C128.078 18.147 128.21 18.0399 128.324 17.8951C128.437 17.7441 128.494 17.5269 128.494 17.2436V12.4464C128.494 12.2953 128.453 12.1789 128.371 12.097C128.289 12.0089 128.185 11.9428 128.059 11.8987C127.933 11.8546 127.798 11.82 127.653 11.7948C127.509 11.7634 127.37 11.7287 127.238 11.691C127.2 11.6784 127.169 11.6626 127.143 11.6437C127.125 11.6186 127.115 11.5713 127.115 11.5021C127.115 11.4706 127.125 11.4391 127.143 11.4077C127.162 11.3762 127.2 11.3447 127.257 11.3132L130.382 9.84009ZM144.462 10.0951C145.067 10.0951 145.608 10.1737 146.086 10.3311C146.565 10.4885 146.965 10.7183 147.286 11.0205C147.682 11.0079 148.06 10.9859 148.419 10.9544C148.784 10.9229 149.174 10.9072 149.59 10.9072C149.735 10.9072 149.851 10.9135 149.939 10.9261C150.034 10.9324 150.106 10.9481 150.157 10.9733C150.207 10.9922 150.245 11.0205 150.27 11.0583C150.295 11.0897 150.314 11.1307 150.326 11.181C150.371 11.3384 150.402 11.4801 150.421 11.606C150.44 11.7319 150.449 11.8609 150.449 11.9931C150.449 12.1002 150.408 12.1726 150.326 12.2103C150.251 12.2418 150.094 12.2575 149.854 12.2575H148.126C148.214 12.4023 148.299 12.5723 148.381 12.7675C148.469 12.9626 148.513 13.2113 148.513 13.5135C148.513 13.9479 148.416 14.3728 148.221 14.7883C148.025 15.1975 147.739 15.5595 147.361 15.8743C146.984 16.1891 146.521 16.444 145.973 16.6392C145.432 16.8281 144.812 16.9225 144.113 16.9225C143.899 16.9225 143.726 16.9162 143.593 16.9036C143.461 16.8847 143.323 16.8564 143.178 16.8186C143.09 16.8942 142.98 16.9634 142.847 17.0264C142.715 17.083 142.586 17.1491 142.46 17.2247C142.334 17.3002 142.227 17.3884 142.139 17.4891C142.051 17.5835 142.007 17.7063 142.007 17.8574C142.007 18.1218 142.237 18.3138 142.696 18.4334C143.162 18.5467 143.911 18.6065 144.944 18.6128C145.731 18.6191 146.445 18.6412 147.087 18.6789C147.736 18.7167 148.29 18.8174 148.749 18.9811C149.209 19.1385 149.565 19.384 149.817 19.7177C150.068 20.0576 150.194 20.5298 150.194 21.1342C150.194 21.386 150.134 21.6567 150.015 21.9463C149.895 22.2422 149.713 22.5349 149.467 22.8245C149.228 23.1141 148.926 23.3911 148.561 23.6555C148.195 23.9262 147.764 24.1623 147.267 24.3637C146.776 24.5715 146.219 24.7352 145.595 24.8548C144.972 24.9807 144.286 25.0437 143.537 25.0437C142.876 25.0437 142.3 24.9776 141.809 24.8453C141.318 24.7194 140.912 24.5495 140.591 24.3354C140.269 24.1214 140.027 23.8758 139.863 23.5988C139.706 23.3281 139.627 23.048 139.627 22.7584C139.627 22.5381 139.671 22.3397 139.76 22.1635C139.848 21.9872 139.964 21.8235 140.109 21.6724C140.254 21.5276 140.414 21.3891 140.591 21.2569C140.773 21.131 140.956 20.9988 141.138 20.8603C141.321 20.7281 141.497 20.5865 141.667 20.4354C141.837 20.2906 141.985 20.1237 142.111 19.9349C141.777 19.8908 141.472 19.8121 141.195 19.6988C140.924 19.5855 140.691 19.4533 140.496 19.3022C140.307 19.1511 140.159 18.9874 140.052 18.8111C139.945 18.6286 139.892 18.446 139.892 18.2634C139.892 18.0935 139.936 17.9455 140.024 17.8196C140.118 17.6937 140.238 17.5835 140.383 17.4891C140.534 17.3884 140.704 17.2971 140.893 17.2152C141.082 17.1334 141.277 17.0547 141.478 16.9792C141.604 16.9288 141.736 16.8753 141.875 16.8186C142.02 16.7557 142.168 16.6707 142.319 16.5637C141.569 16.2615 141.003 15.868 140.619 15.3833C140.235 14.8985 140.043 14.3382 140.043 13.7024C140.043 13.1987 140.156 12.7266 140.383 12.2859C140.609 11.8452 140.921 11.4643 141.318 11.1433C141.714 10.8159 142.18 10.5609 142.715 10.3784C143.257 10.1895 143.839 10.0951 144.462 10.0951ZM141.78 21.9841C141.78 22.2485 141.859 22.5129 142.016 22.7773C142.18 23.048 142.397 23.2904 142.668 23.5044C142.945 23.7185 143.269 23.8916 143.641 24.0238C144.012 24.1623 144.409 24.2315 144.831 24.2315C145.271 24.2315 145.699 24.156 146.115 24.0049C146.53 23.8601 146.899 23.6649 147.22 23.4194C147.541 23.1739 147.799 22.8875 147.994 22.5601C148.189 22.239 148.287 21.9022 148.287 21.5497C148.287 21.3419 148.252 21.1593 148.183 21.002C148.12 20.8446 148.032 20.7124 147.918 20.6053C147.805 20.4983 147.673 20.4133 147.522 20.3504C147.371 20.2874 147.213 20.2497 147.05 20.2371C146.917 20.2245 146.697 20.2119 146.389 20.1993C146.08 20.193 145.734 20.1835 145.35 20.171C145.117 20.1647 144.887 20.1584 144.661 20.1521C144.434 20.1521 144.223 20.1489 144.028 20.1426C143.839 20.1363 143.666 20.13 143.508 20.1237C143.357 20.1174 143.238 20.108 143.15 20.0954C143.03 20.2339 142.892 20.363 142.734 20.4826C142.577 20.6085 142.426 20.7407 142.281 20.8792C142.142 21.024 142.023 21.1845 141.922 21.3608C141.828 21.5371 141.78 21.7448 141.78 21.9841ZM146.247 13.7212C146.247 13.2365 146.197 12.8053 146.096 12.4275C145.995 12.0435 145.85 11.7224 145.662 11.4643C145.479 11.1999 145.262 11.0016 145.01 10.8694C144.758 10.7309 144.481 10.6616 144.179 10.6616C143.996 10.6616 143.795 10.6994 143.575 10.775C143.361 10.8442 143.159 10.9764 142.97 11.1716C142.781 11.3604 142.624 11.6217 142.498 11.9554C142.372 12.289 142.309 12.7171 142.309 13.2396C142.309 13.5733 142.347 13.9227 142.423 14.2878C142.498 14.653 142.618 14.9898 142.781 15.2983C142.951 15.6067 143.169 15.8617 143.433 16.0632C143.697 16.2583 144.018 16.3559 144.396 16.3559C144.679 16.3559 144.934 16.2929 145.161 16.167C145.388 16.0348 145.58 15.8554 145.737 15.6288C145.901 15.3958 146.027 15.1188 146.115 14.7978C146.203 14.4704 146.247 14.1116 146.247 13.7212ZM157.003 18.745C156.921 18.745 156.871 18.6789 156.852 18.5467C156.782 17.955 156.729 17.4954 156.691 17.168C156.653 16.8407 156.625 16.5951 156.606 16.4314C156.594 16.2678 156.584 16.1639 156.578 16.1198C156.578 16.0695 156.578 16.0348 156.578 16.0159C156.578 15.9467 156.609 15.8712 156.672 15.7893C156.735 15.7075 156.811 15.6665 156.899 15.6665C156.962 15.6665 157.028 15.7043 157.097 15.7799C157.173 15.8554 157.242 15.9435 157.305 16.0443C157.374 16.145 157.431 16.2457 157.475 16.3465C157.525 16.4472 157.557 16.5196 157.569 16.5637C157.733 16.9099 157.909 17.2026 158.098 17.4419C158.293 17.6748 158.514 17.8637 158.759 18.0085C159.005 18.147 159.282 18.2477 159.59 18.3106C159.899 18.3736 160.251 18.4051 160.648 18.4051C161.322 18.4051 161.844 18.2445 162.215 17.9235C162.593 17.6024 162.782 17.0862 162.782 16.3748C162.782 15.9656 162.691 15.5941 162.508 15.2605C162.332 14.9268 162.099 14.6184 161.809 14.3351C161.52 14.0455 161.189 13.7716 160.818 13.5135C160.446 13.2554 160.066 12.9941 159.675 12.7297C159.285 12.4653 158.904 12.1914 158.533 11.9082C158.161 11.6186 157.831 11.3006 157.541 10.9544C157.251 10.6081 157.015 10.2241 156.833 9.80232C156.657 9.38052 156.568 8.90521 156.568 8.37639C156.568 8.05532 156.625 7.75629 156.738 7.47929C156.858 7.20229 157.015 6.95047 157.211 6.72383C157.406 6.49719 157.632 6.29574 157.89 6.11946C158.155 5.9369 158.435 5.7858 158.731 5.66619C159.027 5.54028 159.326 5.44585 159.628 5.38289C159.937 5.31994 160.236 5.28846 160.525 5.28846C160.758 5.28846 160.991 5.3105 161.224 5.35456C161.463 5.39234 161.696 5.43955 161.923 5.49621C162.156 5.55287 162.389 5.61583 162.622 5.68508C162.854 5.74803 163.084 5.80784 163.311 5.8645L163.934 5.80784C163.991 5.80784 164.025 5.83302 164.038 5.88338C164.057 5.92745 164.069 5.96837 164.076 6.00615L164.35 8.2253C164.35 8.25678 164.309 8.27881 164.227 8.2914C164.145 8.30399 164.082 8.31029 164.038 8.31029C164 8.31029 163.944 8.30714 163.868 8.30085C163.792 8.28825 163.748 8.27566 163.736 8.26307C163.717 8.24419 163.692 8.20641 163.66 8.14975C163.635 8.0868 163.607 8.0207 163.575 7.95145C163.544 7.8759 163.509 7.80036 163.471 7.72481C163.44 7.64926 163.405 7.58316 163.368 7.5265C163.065 7.06064 162.678 6.71439 162.206 6.48775C161.734 6.25482 161.214 6.13835 160.648 6.13835C160.402 6.13835 160.173 6.16668 159.959 6.22334C159.745 6.28 159.559 6.37128 159.401 6.49719C159.244 6.61681 159.118 6.77105 159.024 6.95991C158.936 7.14877 158.891 7.37541 158.891 7.63982C158.891 8.02384 158.98 8.37324 159.156 8.68802C159.338 8.9965 159.575 9.28923 159.864 9.56624C160.16 9.83694 160.494 10.1014 160.865 10.3595C161.243 10.6176 161.624 10.882 162.008 11.1527C162.398 11.4171 162.779 11.7004 163.15 12.0026C163.528 12.3048 163.862 12.6384 164.151 13.0036C164.447 13.3687 164.683 13.7748 164.86 14.2217C165.042 14.6687 165.133 15.1724 165.133 15.7327C165.133 16.1041 165.067 16.4503 164.935 16.7714C164.809 17.0925 164.636 17.3852 164.416 17.6496C164.195 17.9077 163.937 18.1375 163.641 18.339C163.346 18.5404 163.028 18.7104 162.688 18.8489C162.354 18.9811 162.008 19.0818 161.649 19.1511C161.296 19.2203 160.95 19.255 160.61 19.255C160.182 19.255 159.807 19.2235 159.486 19.1605C159.172 19.0976 158.898 19.0283 158.665 18.9528C158.438 18.8709 158.246 18.7985 158.089 18.7356C157.931 18.6726 157.799 18.6412 157.692 18.6412C157.654 18.6412 157.626 18.6443 157.607 18.6506L157.003 18.745ZM167.419 11.7193H166.71C166.622 11.7193 166.553 11.6973 166.503 11.6532C166.452 11.6091 166.424 11.5619 166.418 11.5115C166.418 11.4801 166.424 11.4454 166.437 11.4077C166.449 11.3699 166.465 11.3447 166.484 11.3321C166.61 11.2503 166.745 11.1558 166.89 11.0488C167.041 10.9355 167.189 10.819 167.334 10.6994C167.478 10.5798 167.62 10.4602 167.759 10.3406C167.897 10.221 168.02 10.1108 168.127 10.0101C168.19 9.94082 168.275 9.83694 168.382 9.69844C168.495 9.55994 168.621 9.42459 168.76 9.29238C168.904 9.15388 169.059 9.03427 169.222 8.93354C169.386 8.82652 169.553 8.77301 169.723 8.77301C169.761 8.77301 169.805 8.7856 169.855 8.81078C169.905 8.83596 169.931 8.86744 169.931 8.90521C169.931 8.94928 169.918 9.01853 169.893 9.11296C169.874 9.2011 169.849 9.30183 169.817 9.41514C169.786 9.52846 169.751 9.64808 169.713 9.77399C169.676 9.8999 169.641 10.0227 169.61 10.1423C169.61 10.1926 169.616 10.2336 169.628 10.265C169.647 10.2965 169.691 10.3154 169.761 10.3217H172.169C172.269 10.3217 172.339 10.3406 172.376 10.3784C172.414 10.4098 172.442 10.4539 172.461 10.5106C172.474 10.542 172.487 10.6081 172.499 10.7089C172.512 10.8033 172.524 10.9103 172.537 11.0299C172.55 11.1433 172.559 11.2597 172.565 11.3793C172.578 11.4926 172.584 11.5871 172.584 11.6626C172.584 11.7004 172.559 11.7193 172.509 11.7193H169.666C169.635 11.7193 169.616 11.7256 169.61 11.7382C169.61 11.7508 169.61 11.7728 169.61 11.8043V16.4975C169.61 16.699 169.635 16.8753 169.685 17.0264C169.735 17.1775 169.798 17.3034 169.874 17.4041C169.956 17.5048 170.047 17.5804 170.148 17.6307C170.249 17.6811 170.349 17.7063 170.45 17.7063C170.74 17.7063 170.976 17.6654 171.158 17.5835C171.341 17.4954 171.498 17.401 171.63 17.3002C171.763 17.1995 171.879 17.1082 171.98 17.0264C172.08 16.9382 172.194 16.8942 172.32 16.8942C172.408 16.8942 172.458 16.9288 172.471 16.998C172.49 17.0673 172.499 17.1208 172.499 17.1586C172.499 17.2404 172.487 17.3065 172.461 17.3569C172.442 17.401 172.427 17.4356 172.414 17.4608C172.408 17.4733 172.373 17.5269 172.31 17.6213C172.247 17.7157 172.162 17.829 172.055 17.9612C171.948 18.0935 171.816 18.2351 171.659 18.3862C171.508 18.5373 171.338 18.6789 171.149 18.8111C170.96 18.937 170.752 19.0409 170.526 19.1228C170.305 19.2109 170.072 19.255 169.827 19.255C169.487 19.255 169.169 19.192 168.873 19.0661C168.577 18.9402 168.322 18.7734 168.108 18.5656C167.894 18.3516 167.724 18.1092 167.598 17.8385C167.478 17.5678 167.419 17.2876 167.419 16.998V11.7193ZM174.378 12.1065C174.359 11.9239 174.274 11.7697 174.123 11.6437C173.979 11.5115 173.821 11.4265 173.651 11.3888C173.607 11.3762 173.557 11.3699 173.5 11.3699C173.45 11.3636 173.403 11.3573 173.358 11.351C173.314 11.3384 173.277 11.3227 173.245 11.3038C173.22 11.2786 173.207 11.2377 173.207 11.181C173.207 11.1307 173.214 11.0866 173.226 11.0488C173.245 11.011 173.289 10.9827 173.358 10.9638L176.239 10.1328C176.276 10.1202 176.314 10.1108 176.352 10.1045C176.396 10.0982 176.437 10.0951 176.475 10.0951C176.538 10.0951 176.569 10.1486 176.569 10.2556V16.6298C176.569 16.8438 176.616 17.039 176.711 17.2152C176.812 17.3852 176.941 17.53 177.098 17.6496C177.255 17.7692 177.435 17.8605 177.636 17.9235C177.838 17.9864 178.045 18.0179 178.259 18.0179C178.411 18.0179 178.568 17.9927 178.732 17.9424C178.895 17.892 179.053 17.829 179.204 17.7535C179.355 17.6717 179.497 17.5804 179.629 17.4796C179.761 17.3726 179.868 17.2624 179.95 17.1491V12.097C179.931 11.9144 179.846 11.7602 179.695 11.6343C179.55 11.5021 179.393 11.4171 179.223 11.3793C179.179 11.3667 179.128 11.3604 179.072 11.3604C179.021 11.3541 178.974 11.3479 178.93 11.3416C178.886 11.329 178.848 11.3132 178.817 11.2943C178.791 11.2692 178.779 11.2282 178.779 11.1716C178.779 11.1212 178.785 11.0771 178.798 11.0394C178.817 11.0016 178.861 10.9733 178.93 10.9544L181.81 10.1328C181.848 10.1202 181.886 10.1108 181.923 10.1045C181.968 10.0982 182.008 10.0951 182.046 10.0951C182.109 10.0951 182.141 10.1234 182.141 10.18V16.6959C182.172 16.9729 182.251 17.1712 182.377 17.2908C182.503 17.4104 182.707 17.4702 182.991 17.4702L183.538 17.4324C183.563 17.4324 183.579 17.4765 183.585 17.5646C183.592 17.6465 183.595 17.7063 183.595 17.7441C183.595 17.7566 183.585 17.7976 183.567 17.8668C183.554 17.9361 183.516 17.9864 183.453 18.0179L180.583 19.1983C180.57 19.2046 180.538 19.214 180.488 19.2266C180.438 19.2455 180.409 19.255 180.403 19.255C180.359 19.255 180.331 19.2266 180.318 19.17C180.312 19.1196 180.309 19.0693 180.309 19.0189V18.1123C180.29 18.0872 180.258 18.0746 180.214 18.0746C180.202 18.0746 180.189 18.0746 180.176 18.0746C180.164 18.0746 180.158 18.0809 180.158 18.0935L178.647 18.83C178.508 18.8804 178.379 18.9307 178.259 18.9811C178.14 19.0252 178.02 19.0693 177.901 19.1133C177.787 19.1574 177.665 19.192 177.532 19.2172C177.4 19.2424 177.255 19.255 177.098 19.255C176.834 19.255 176.541 19.2266 176.22 19.17C175.905 19.1196 175.609 19.0378 175.332 18.9245C175.061 18.8048 174.835 18.6537 174.652 18.4712C174.47 18.2886 174.378 18.0683 174.378 17.8102V12.1065ZM193.227 3.52258C193.252 3.50999 193.277 3.4974 193.303 3.48481C193.334 3.47222 193.356 3.46592 193.369 3.46592C193.476 3.46592 193.529 3.54147 193.529 3.69256V16.8375C193.529 17.1145 193.598 17.3128 193.737 17.4324C193.882 17.552 194.096 17.6118 194.379 17.6118L194.927 17.5741C194.952 17.5741 194.968 17.593 194.974 17.6307C194.98 17.6622 194.983 17.6968 194.983 17.7346C194.983 17.7472 194.974 17.7661 194.955 17.7913C194.942 17.8102 194.905 17.8322 194.842 17.8574L191.612 19.1983C191.6 19.2046 191.568 19.214 191.518 19.2266C191.467 19.2455 191.439 19.255 191.433 19.255C191.389 19.255 191.36 19.2266 191.348 19.17C191.341 19.1196 191.338 19.0693 191.338 19.0189V18.3673C191.338 18.3044 191.316 18.2729 191.272 18.2729C191.253 18.2729 191.225 18.2823 191.187 18.3012C190.967 18.4271 190.759 18.5499 190.564 18.6695C190.369 18.7828 190.171 18.8835 189.969 18.9717C189.774 19.0598 189.566 19.1291 189.346 19.1794C189.132 19.2298 188.893 19.255 188.628 19.255C188.062 19.255 187.552 19.1385 187.098 18.9056C186.645 18.6726 186.261 18.361 185.946 17.9707C185.631 17.5804 185.389 17.1334 185.219 16.6298C185.049 16.1261 184.964 15.6004 184.964 15.0527C184.964 14.3917 185.093 13.7779 185.351 13.2113C185.616 12.6447 185.965 12.1537 186.4 11.7382C186.84 11.3227 187.35 10.9985 187.929 10.7655C188.509 10.5263 189.116 10.4067 189.752 10.4067C189.922 10.4067 190.07 10.4224 190.196 10.4539C190.322 10.4854 190.438 10.52 190.545 10.5578C190.652 10.5892 190.759 10.6207 190.866 10.6522C190.973 10.6837 191.093 10.6994 191.225 10.6994C191.244 10.6994 191.266 10.6931 191.291 10.6805C191.323 10.6679 191.338 10.6333 191.338 10.5767V6.12891C191.338 5.97782 191.297 5.86135 191.216 5.77951C191.134 5.69137 191.03 5.62527 190.904 5.5812C190.778 5.53713 190.643 5.50251 190.498 5.47733C190.353 5.44585 190.215 5.41122 190.082 5.37345C190.045 5.36086 190.013 5.34512 189.988 5.32624C189.969 5.30105 189.96 5.25384 189.96 5.18459C189.96 5.15311 189.969 5.12163 189.988 5.09016C190.007 5.05868 190.045 5.0272 190.101 4.99572L193.227 3.52258ZM187.108 14.6278C187.108 15.0811 187.158 15.5186 187.259 15.9404C187.366 16.3559 187.526 16.7242 187.74 17.0453C187.961 17.36 188.238 17.6118 188.571 17.8007C188.905 17.9896 189.299 18.084 189.752 18.084C189.821 18.084 189.944 18.0651 190.12 18.0273C190.296 17.9896 190.473 17.9424 190.649 17.8857C190.832 17.8227 190.992 17.7503 191.131 17.6685C191.269 17.5867 191.338 17.4985 191.338 17.4041V12.7108C191.338 12.2764 191.181 11.9239 190.866 11.6532C190.558 11.3825 190.114 11.2471 189.535 11.2471C189.113 11.2471 188.748 11.3479 188.439 11.5493C188.137 11.7445 187.885 12.0026 187.684 12.3237C187.489 12.6447 187.344 13.0067 187.249 13.4096C187.155 13.8125 187.108 14.2186 187.108 14.6278ZM195.286 19C195.248 18.9874 195.223 18.9465 195.21 18.8772C195.197 18.8017 195.191 18.745 195.191 18.7073C195.191 18.6758 195.201 18.6254 195.219 18.5562C195.238 18.4869 195.26 18.446 195.286 18.4334C195.367 18.3956 195.484 18.3673 195.635 18.3484C195.786 18.3232 195.937 18.2792 196.088 18.2162C196.239 18.147 196.372 18.0431 196.485 17.9046C196.598 17.7598 196.655 17.5489 196.655 17.2719V12.7392C196.655 12.5881 196.614 12.4716 196.532 12.3898C196.45 12.3016 196.346 12.2355 196.22 12.1914C196.095 12.1474 195.959 12.1128 195.814 12.0876C195.67 12.0561 195.531 12.0215 195.399 11.9837C195.361 11.9711 195.33 11.9554 195.304 11.9365C195.286 11.9113 195.276 11.8641 195.276 11.7948C195.276 11.7634 195.286 11.7319 195.304 11.7004C195.323 11.6689 195.361 11.6374 195.418 11.606L198.544 10.1328C198.569 10.1202 198.594 10.1076 198.619 10.0951C198.651 10.0825 198.673 10.0762 198.685 10.0762C198.792 10.0762 198.846 10.1517 198.846 10.3028V17.2719C198.846 17.5489 198.902 17.7598 199.016 17.9046C199.129 18.0431 199.261 18.147 199.412 18.2162C199.563 18.2792 199.714 18.3232 199.866 18.3484C200.017 18.3673 200.133 18.3956 200.215 18.4334C200.24 18.446 200.262 18.4869 200.281 18.5562C200.3 18.6254 200.309 18.6758 200.309 18.7073C200.309 18.745 200.303 18.8017 200.29 18.8772C200.278 18.9465 200.253 18.9874 200.215 19H195.286ZM196.249 6.65773C196.249 6.25482 196.368 5.93375 196.608 5.69452C196.847 5.45529 197.168 5.33568 197.571 5.33568C197.974 5.33568 198.295 5.45529 198.534 5.69452C198.773 5.93375 198.893 6.25482 198.893 6.65773C198.893 7.06064 198.773 7.38171 198.534 7.62093C198.295 7.85387 197.974 7.97033 197.571 7.97033C197.168 7.97033 196.847 7.85387 196.608 7.62093C196.368 7.38171 196.249 7.06064 196.249 6.65773ZM201.49 14.59C201.49 13.9982 201.619 13.4317 201.877 12.8902C202.141 12.3488 202.494 11.8704 202.935 11.4549C203.375 11.0394 203.888 10.7089 204.474 10.4633C205.059 10.2178 205.676 10.0951 206.325 10.0951C207.005 10.0951 207.65 10.2115 208.261 10.4445C208.871 10.6774 209.406 10.9985 209.866 11.4077C210.332 11.8106 210.7 12.289 210.971 12.843C211.241 13.3907 211.377 13.9857 211.377 14.6278C211.377 15.2825 211.251 15.8932 210.999 16.4598C210.754 17.0201 210.41 17.508 209.97 17.9235C209.529 18.339 209.003 18.6663 208.393 18.9056C207.788 19.1385 207.127 19.255 206.41 19.255C205.698 19.255 205.04 19.1354 204.436 18.8961C203.838 18.6506 203.319 18.3201 202.878 17.9046C202.444 17.4828 202.104 16.9886 201.858 16.422C201.613 15.8554 201.49 15.2448 201.49 14.59ZM203.907 13.9951C203.907 14.3351 203.932 14.6876 203.983 15.0527C204.033 15.4116 204.109 15.7641 204.209 16.1104C204.31 16.4503 204.436 16.7714 204.587 17.0736C204.745 17.3758 204.93 17.6433 205.144 17.8763C205.358 18.1029 205.601 18.2823 205.871 18.4145C206.142 18.5467 206.447 18.6128 206.787 18.6128C207.159 18.6128 207.477 18.5184 207.741 18.3295C208.012 18.1344 208.232 17.8826 208.402 17.5741C208.578 17.2656 208.708 16.9193 208.789 16.5353C208.871 16.1513 208.912 15.7673 208.912 15.3833C208.912 15.0748 208.884 14.7506 208.827 14.4106C208.77 14.0644 208.686 13.7244 208.572 13.3907C208.459 13.0508 208.32 12.7266 208.157 12.4181C207.993 12.1096 207.801 11.8389 207.581 11.606C207.367 11.3667 207.124 11.1779 206.854 11.0394C206.589 10.9009 206.3 10.8316 205.985 10.8316C205.632 10.8316 205.324 10.9292 205.059 11.1244C204.801 11.3132 204.587 11.5619 204.417 11.8704C204.247 12.1726 204.118 12.5125 204.03 12.8902C203.948 13.2617 203.907 13.63 203.907 13.9951ZM213.955 18.9433C213.898 18.9433 213.848 18.9591 213.804 18.9906C213.76 19.022 213.716 19.0567 213.672 19.0944C213.634 19.1385 213.596 19.1763 213.558 19.2078C213.52 19.2392 213.476 19.255 213.426 19.255H213.086C213.073 19.255 213.055 19.1637 213.029 18.9811C213.004 18.7985 212.976 18.5814 212.944 18.3295C212.919 18.0714 212.897 17.807 212.878 17.5363C212.859 17.2593 212.85 17.0295 212.85 16.8469C212.85 16.7462 212.885 16.6833 212.954 16.6581C213.029 16.6266 213.108 16.6109 213.19 16.6109C213.234 16.6109 213.281 16.6266 213.332 16.6581C213.388 16.6896 213.439 16.7305 213.483 16.7808C213.533 16.8249 213.577 16.8721 213.615 16.9225C213.653 16.9729 213.681 17.0169 213.7 17.0547C213.807 17.2876 213.914 17.4985 214.021 17.6874C214.128 17.8763 214.251 18.0368 214.389 18.169C214.528 18.3012 214.691 18.4051 214.88 18.4806C215.069 18.5499 215.296 18.5845 215.56 18.5845C215.762 18.5845 215.925 18.5499 216.051 18.4806C216.177 18.4114 216.275 18.3201 216.344 18.2068C216.413 18.0935 216.457 17.9644 216.476 17.8196C216.501 17.6748 216.514 17.5237 216.514 17.3663C216.514 17.0516 216.419 16.7871 216.231 16.5731C216.042 16.3528 215.806 16.1482 215.522 15.9593C215.245 15.7704 214.94 15.5784 214.606 15.3833C214.279 15.1881 213.974 14.9615 213.69 14.7033C213.413 14.4452 213.18 14.1399 212.992 13.7873C212.803 13.4285 212.708 12.9878 212.708 12.4653C212.708 12.1631 212.803 11.8704 212.992 11.5871C213.18 11.2975 213.426 11.0425 213.728 10.8222C214.03 10.6018 214.367 10.4256 214.739 10.2934C215.116 10.1612 215.491 10.0951 215.862 10.0951C216.057 10.0951 216.253 10.1139 216.448 10.1517C216.649 10.1832 216.832 10.221 216.996 10.265C217.166 10.3091 217.307 10.3532 217.42 10.3972C217.54 10.4413 217.616 10.4728 217.647 10.4917C217.691 10.5231 217.726 10.5735 217.751 10.6428C217.782 10.7057 217.801 10.8096 217.808 10.9544C217.82 11.0992 217.827 11.2943 217.827 11.5399C217.833 11.7791 217.836 12.0939 217.836 12.4842C217.836 12.5912 217.795 12.6699 217.713 12.7203C217.638 12.7643 217.562 12.7864 217.487 12.7864C217.417 12.7864 217.348 12.7738 217.279 12.7486C217.216 12.7234 217.175 12.6825 217.156 12.6258C217.081 12.4307 216.996 12.2355 216.901 12.0404C216.807 11.8389 216.696 11.6595 216.571 11.5021C216.451 11.3384 216.309 11.2094 216.146 11.1149C215.982 11.0142 215.793 10.9638 215.579 10.9638C215.453 10.9638 215.327 10.9796 215.201 11.011C215.075 11.0425 214.962 11.1055 214.861 11.1999C214.761 11.288 214.679 11.4108 214.616 11.5682C214.559 11.7256 214.531 11.927 214.531 12.1726C214.531 12.3866 214.628 12.5849 214.824 12.7675C215.025 12.9501 215.274 13.1358 215.57 13.3246C215.865 13.5072 216.187 13.7055 216.533 13.9196C216.885 14.1336 217.21 14.3791 217.505 14.6561C217.801 14.9331 218.047 15.2542 218.242 15.6193C218.443 15.9782 218.544 16.4031 218.544 16.8942C218.544 17.2593 218.45 17.5898 218.261 17.8857C218.072 18.1753 217.83 18.4208 217.534 18.6223C217.238 18.8237 216.907 18.978 216.542 19.085C216.183 19.1983 215.831 19.255 215.485 19.255C215.308 19.255 215.132 19.2392 214.956 19.2078C214.78 19.1763 214.619 19.1385 214.474 19.0944C214.329 19.0567 214.21 19.022 214.115 18.9906C214.021 18.9591 213.967 18.9433 213.955 18.9433Z" fill="#FEFAF4"/>
<path d="M81.8508 36.6879V36.0488H87.5003V36.6879H85.0312V43.8401H84.3198V36.6879H81.8508ZM91.7801 43.8401V36.0488H96.2997V36.6879H92.4916V39.6211H96.06V40.2602H92.4916V43.201H96.3758V43.8401H91.7801ZM100.819 43.8401V36.0488H101.531V40.245H101.599L105.403 36.0488H106.339L103.011 39.6515L106.324 43.8401H105.457L102.569 40.1461L101.531 41.3102V43.8401H100.819ZM110.372 43.8401H109.626L112.461 36.0488H113.221L116.056 43.8401H115.31L112.868 36.9733H112.814L110.372 43.8401ZM110.908 40.8537H114.774V41.4928H110.908V40.8537ZM120.069 43.8401V36.0488H122.584C123.137 36.0488 123.598 36.1553 123.969 36.3684C124.341 36.5789 124.622 36.8655 124.809 37.2281C125 37.5908 125.095 37.9992 125.095 38.4531C125.095 38.9071 125.001 39.3167 124.813 39.6819C124.626 40.0446 124.347 40.3325 123.976 40.5455C123.606 40.756 123.146 40.8613 122.595 40.8613H120.617V40.2222H122.576C122.985 40.2222 123.323 40.1461 123.592 39.9939C123.861 39.8392 124.061 39.6287 124.193 39.3624C124.328 39.0961 124.395 38.793 124.395 38.4531C124.395 38.1133 124.328 37.8102 124.193 37.5439C124.061 37.2776 123.86 37.0684 123.588 36.9162C123.319 36.764 122.978 36.6879 122.565 36.6879H120.781V43.8401H120.069ZM135.831 39.9444C135.831 40.756 135.686 41.4624 135.397 42.0635C135.108 42.662 134.71 43.1261 134.202 43.4558C133.698 43.783 133.117 43.9466 132.46 43.9466C131.803 43.9466 131.221 43.783 130.714 43.4558C130.209 43.1261 129.812 42.662 129.523 42.0635C129.236 41.4624 129.093 40.756 129.093 39.9444C129.093 39.1329 129.236 38.4278 129.523 37.8292C129.812 37.2281 130.21 36.764 130.718 36.4368C131.225 36.1071 131.806 35.9423 132.46 35.9423C133.117 35.9423 133.698 36.1071 134.202 36.4368C134.71 36.764 135.108 37.2281 135.397 37.8292C135.686 38.4278 135.831 39.1329 135.831 39.9444ZM135.138 39.9444C135.138 39.247 135.022 38.6497 134.788 38.1526C134.555 37.653 134.237 37.2713 133.833 37.0075C133.43 36.7437 132.972 36.6118 132.46 36.6118C131.95 36.6118 131.494 36.7437 131.09 37.0075C130.687 37.2713 130.368 37.6517 130.132 38.1488C129.898 38.6459 129.782 39.2444 129.782 39.9444C129.782 40.6419 129.898 41.2392 130.132 41.7363C130.365 42.2334 130.683 42.6151 131.087 42.8814C131.49 43.1452 131.948 43.277 132.46 43.277C132.972 43.277 133.43 43.1452 133.833 42.8814C134.239 42.6176 134.559 42.2372 134.792 41.7401C135.025 41.2405 135.141 40.6419 135.138 39.9444Z" fill="#FEFAF4"/>
<line x1="219.062" y1="41.0274" x2="146.823" y2="41.0274" stroke="#CAB2AC" stroke-width="0.744721"/>
</svg>
